<svg xmlns="http://www.w3.org/2000/svg" xmlns:xlink="http://www.w3.org/1999/xlink" width="165.606" height="130.653" viewBox="0 0 165.606 130.653">
  <defs>
    <clipPath id="clip-path">
      <rect id="長方形_43" data-name="長方形 43" width="50.819" height="50.818" transform="translate(188.957 745.847)" fill="none"/>
    </clipPath>
  </defs>
  <g id="info" transform="translate(-131.5 -1605.5)">
    <g id="グループ_46" data-name="グループ 46" transform="translate(60 -52)">
      <g id="グループ_45" data-name="グループ 45" transform="translate(-114.457 950.488)">
        <g id="グループ_44" data-name="グループ 44" transform="translate(-3 -38)" opacity="0.3" style="mix-blend-mode: multiply;isolation: isolate">
          <g id="グループ_43" data-name="グループ 43">
            <g id="グループ_42" data-name="グループ 42" clip-path="url(#clip-path)">
              <path id="長方形_41" data-name="長方形 41" d="M5.091,0H44.728a5.091,5.091,0,0,1,5.091,5.091V44.729a5.09,5.09,0,0,1-5.09,5.09H5.091A5.091,5.091,0,0,1,0,44.728V5.091A5.091,5.091,0,0,1,5.091,0Z" transform="translate(189.457 746.347)" fill="#6f5c4f"/>
              <path id="長方形_42" data-name="長方形 42" d="M5.091,0H44.728a5.091,5.091,0,0,1,5.091,5.091V44.729a5.09,5.09,0,0,1-5.09,5.09H5.091A5.091,5.091,0,0,1,0,44.728V5.091A5.091,5.091,0,0,1,5.091,0Z" transform="translate(189.457 746.347)" fill="none" stroke="#6f5c4f" stroke-miterlimit="10" stroke-width="1"/>
            </g>
          </g>
        </g>
        <path id="長方形_44" data-name="長方形 44" d="M5.092,0H44.729a5.09,5.09,0,0,1,5.09,5.09V44.73a5.09,5.09,0,0,1-5.09,5.09H5.091A5.091,5.091,0,0,1,0,44.728V5.092A5.092,5.092,0,0,1,5.092,0Z" transform="translate(186.866 707.512)" fill="#fff"/>
        <path id="長方形_45" data-name="長方形 45" d="M5.092,0H44.729a5.09,5.09,0,0,1,5.09,5.09v39.64a5.09,5.09,0,0,1-5.09,5.09H5.091A5.091,5.091,0,0,1,0,44.728V5.092A5.092,5.092,0,0,1,5.092,0Z" transform="translate(186.457 707.512)" fill="none" stroke="#e5d7cb" stroke-miterlimit="10" stroke-width="1"/>
      </g>
    </g>
    <g id="グループ_47" data-name="グループ 47" transform="translate(117.309 -52)">
      <g id="グループ_45-2" data-name="グループ 45" transform="translate(-114.457 950.488)">
        <g id="グループ_44-2" data-name="グループ 44" transform="translate(-3 -38)" opacity="0.3" style="mix-blend-mode: multiply;isolation: isolate">
          <g id="グループ_43-2" data-name="グループ 43">
            <g id="グループ_42-2" data-name="グループ 42" clip-path="url(#clip-path)">
              <path id="長方形_41-2" data-name="長方形 41" d="M5.091,0H44.728a5.091,5.091,0,0,1,5.091,5.091V44.729a5.09,5.09,0,0,1-5.09,5.09H5.091A5.091,5.091,0,0,1,0,44.728V5.091A5.091,5.091,0,0,1,5.091,0Z" transform="translate(189.457 746.347)" fill="#6f5c4f"/>
              <path id="長方形_42-2" data-name="長方形 42" d="M5.091,0H44.728a5.091,5.091,0,0,1,5.091,5.091V44.729a5.09,5.09,0,0,1-5.09,5.09H5.091A5.091,5.091,0,0,1,0,44.728V5.091A5.091,5.091,0,0,1,5.091,0Z" transform="translate(189.457 746.347)" fill="none" stroke="#6f5c4f" stroke-miterlimit="10" stroke-width="1"/>
            </g>
          </g>
        </g>
        <path id="長方形_44-2" data-name="長方形 44" d="M5.092,0H44.729a5.09,5.09,0,0,1,5.09,5.09V44.73a5.09,5.09,0,0,1-5.09,5.09H5.091A5.091,5.091,0,0,1,0,44.728V5.092A5.092,5.092,0,0,1,5.092,0Z" transform="translate(186.866 707.512)" fill="#fff"/>
        <path id="長方形_45-2" data-name="長方形 45" d="M5.092,0H44.729a5.09,5.09,0,0,1,5.09,5.09v39.64a5.09,5.09,0,0,1-5.09,5.09H5.091A5.091,5.091,0,0,1,0,44.728V5.092A5.092,5.092,0,0,1,5.092,0Z" transform="translate(186.457 707.512)" fill="none" stroke="#e5d7cb" stroke-miterlimit="10" stroke-width="1"/>
      </g>
    </g>
    <g id="グループ_48" data-name="グループ 48" transform="translate(174.787 -52)">
      <g id="グループ_45-3" data-name="グループ 45" transform="translate(-114.457 950.488)">
        <g id="グループ_44-3" data-name="グループ 44" transform="translate(-3 -38)" opacity="0.3" style="mix-blend-mode: multiply;isolation: isolate">
          <g id="グループ_43-3" data-name="グループ 43">
            <g id="グループ_42-3" data-name="グループ 42" clip-path="url(#clip-path)">
              <path id="長方形_41-3" data-name="長方形 41" d="M5.091,0H44.728a5.091,5.091,0,0,1,5.091,5.091V44.729a5.09,5.09,0,0,1-5.09,5.09H5.091A5.091,5.091,0,0,1,0,44.728V5.091A5.091,5.091,0,0,1,5.091,0Z" transform="translate(189.457 746.347)" fill="#6f5c4f"/>
              <path id="長方形_42-3" data-name="長方形 42" d="M5.091,0H44.728a5.091,5.091,0,0,1,5.091,5.091V44.729a5.09,5.09,0,0,1-5.09,5.09H5.091A5.091,5.091,0,0,1,0,44.728V5.091A5.091,5.091,0,0,1,5.091,0Z" transform="translate(189.457 746.347)" fill="none" stroke="#6f5c4f" stroke-miterlimit="10" stroke-width="1"/>
            </g>
          </g>
        </g>
        <path id="長方形_44-3" data-name="長方形 44" d="M5.092,0H44.729a5.09,5.09,0,0,1,5.09,5.09V44.73a5.09,5.09,0,0,1-5.09,5.09H5.091A5.091,5.091,0,0,1,0,44.728V5.092A5.092,5.092,0,0,1,5.092,0Z" transform="translate(186.866 707.512)" fill="#fff"/>
        <path id="長方形_45-3" data-name="長方形 45" d="M5.092,0H44.729a5.09,5.09,0,0,1,5.09,5.09v39.64a5.09,5.09,0,0,1-5.09,5.09H5.091A5.091,5.091,0,0,1,0,44.728V5.092A5.092,5.092,0,0,1,5.092,0Z" transform="translate(186.457 707.512)" fill="none" stroke="#e5d7cb" stroke-miterlimit="10" stroke-width="1"/>
      </g>
    </g>
    <g id="グループ_49" data-name="グループ 49" transform="translate(61.695 27)">
      <g id="グループ_45-4" data-name="グループ 45" transform="translate(-114.457 950.488)">
        <g id="グループ_44-4" data-name="グループ 44" transform="translate(-3 -38)" opacity="0.3" style="mix-blend-mode: multiply;isolation: isolate">
          <g id="グループ_43-4" data-name="グループ 43">
            <g id="グループ_42-4" data-name="グループ 42" clip-path="url(#clip-path)">
              <path id="長方形_41-4" data-name="長方形 41" d="M5.091,0H44.728a5.091,5.091,0,0,1,5.091,5.091V44.729a5.09,5.09,0,0,1-5.09,5.09H5.091A5.091,5.091,0,0,1,0,44.728V5.091A5.091,5.091,0,0,1,5.091,0Z" transform="translate(189.457 746.347)" fill="#6f5c4f"/>
              <path id="長方形_42-4" data-name="長方形 42" d="M5.091,0H44.728a5.091,5.091,0,0,1,5.091,5.091V44.729a5.09,5.09,0,0,1-5.09,5.09H5.091A5.091,5.091,0,0,1,0,44.728V5.091A5.091,5.091,0,0,1,5.091,0Z" transform="translate(189.457 746.347)" fill="none" stroke="#6f5c4f" stroke-miterlimit="10" stroke-width="1"/>
            </g>
          </g>
        </g>
        <path id="長方形_44-4" data-name="長方形 44" d="M5.092,0H44.729a5.09,5.09,0,0,1,5.09,5.09V44.73a5.09,5.09,0,0,1-5.09,5.09H5.091A5.091,5.091,0,0,1,0,44.728V5.092A5.092,5.092,0,0,1,5.092,0Z" transform="translate(186.866 707.512)" fill="#fff"/>
        <path id="長方形_45-4" data-name="長方形 45" d="M5.092,0H44.729a5.09,5.09,0,0,1,5.09,5.09v39.64a5.09,5.09,0,0,1-5.09,5.09H5.091A5.091,5.091,0,0,1,0,44.728V5.092A5.092,5.092,0,0,1,5.092,0Z" transform="translate(186.457 707.512)" fill="none" stroke="#e5d7cb" stroke-miterlimit="10" stroke-width="1"/>
      </g>
    </g>
    <g id="グループ_45-5" data-name="グループ 45" transform="translate(3.03 977.488)">
      <g id="グループ_44-5" data-name="グループ 44" transform="translate(-3 -38)" opacity="0.3" style="mix-blend-mode: multiply;isolation: isolate">
        <g id="グループ_43-5" data-name="グループ 43">
          <g id="グループ_42-5" data-name="グループ 42" clip-path="url(#clip-path)">
            <path id="長方形_41-5" data-name="長方形 41" d="M5.091,0H44.728a5.091,5.091,0,0,1,5.091,5.091V44.729a5.09,5.09,0,0,1-5.09,5.09H5.091A5.091,5.091,0,0,1,0,44.728V5.091A5.091,5.091,0,0,1,5.091,0Z" transform="translate(189.457 746.347)" fill="#6f5c4f"/>
            <path id="長方形_42-5" data-name="長方形 42" d="M5.091,0H44.728a5.091,5.091,0,0,1,5.091,5.091V44.729a5.09,5.09,0,0,1-5.09,5.09H5.091A5.091,5.091,0,0,1,0,44.728V5.091A5.091,5.091,0,0,1,5.091,0Z" transform="translate(189.457 746.347)" fill="none" stroke="#6f5c4f" stroke-miterlimit="10" stroke-width="1"/>
          </g>
        </g>
      </g>
      <path id="長方形_44-5" data-name="長方形 44" d="M5.092,0H44.729a5.09,5.09,0,0,1,5.09,5.09V44.73a5.09,5.09,0,0,1-5.09,5.09H5.091A5.091,5.091,0,0,1,0,44.728V5.092A5.092,5.092,0,0,1,5.092,0Z" transform="translate(186.866 707.512)" fill="#fff"/>
      <path id="長方形_45-5" data-name="長方形 45" d="M5.092,0H44.729a5.09,5.09,0,0,1,5.09,5.09v39.64a5.09,5.09,0,0,1-5.09,5.09H5.091A5.091,5.091,0,0,1,0,44.728V5.092A5.092,5.092,0,0,1,5.092,0Z" transform="translate(186.457 707.512)" fill="none" stroke="#e5d7cb" stroke-miterlimit="10" stroke-width="1"/>
    </g>
    <g id="グループ_51" data-name="グループ 51" transform="translate(60.03 977.488)">
      <g id="グループ_44-6" data-name="グループ 44" transform="translate(-3 -38)" opacity="0.3" style="mix-blend-mode: multiply;isolation: isolate">
        <g id="グループ_43-6" data-name="グループ 43">
          <g id="グループ_42-6" data-name="グループ 42" clip-path="url(#clip-path)">
            <path id="長方形_41-6" data-name="長方形 41" d="M5.091,0H44.728a5.091,5.091,0,0,1,5.091,5.091V44.729a5.09,5.09,0,0,1-5.09,5.09H5.091A5.091,5.091,0,0,1,0,44.728V5.091A5.091,5.091,0,0,1,5.091,0Z" transform="translate(189.457 746.347)" fill="#6f5c4f"/>
            <path id="長方形_42-6" data-name="長方形 42" d="M5.091,0H44.728a5.091,5.091,0,0,1,5.091,5.091V44.729a5.09,5.09,0,0,1-5.09,5.09H5.091A5.091,5.091,0,0,1,0,44.728V5.091A5.091,5.091,0,0,1,5.091,0Z" transform="translate(189.457 746.347)" fill="none" stroke="#6f5c4f" stroke-miterlimit="10" stroke-width="1"/>
          </g>
        </g>
      </g>
      <path id="長方形_44-6" data-name="長方形 44" d="M5.092,0H44.729a5.09,5.09,0,0,1,5.09,5.09V44.73a5.09,5.09,0,0,1-5.09,5.09H5.091A5.091,5.091,0,0,1,0,44.728V5.092A5.092,5.092,0,0,1,5.092,0Z" transform="translate(186.866 707.512)" fill="#fff"/>
      <path id="長方形_45-6" data-name="長方形 45" d="M5.092,0H44.729a5.09,5.09,0,0,1,5.09,5.09v39.64a5.09,5.09,0,0,1-5.09,5.09H5.091A5.091,5.091,0,0,1,0,44.728V5.092A5.092,5.092,0,0,1,5.092,0Z" transform="translate(186.457 707.512)" fill="none" stroke="#e5d7cb" stroke-miterlimit="10" stroke-width="1"/>
    </g>
    <text id="検温" transform="translate(157 1649)" fill="#4f2a14" font-size="7" font-family="UDDigiKyokashoNK-B, UD Digi Kyokasho NK-B"><tspan x="-7" y="0">検温</tspan></text>
    <text id="消毒" transform="translate(272 1649)" fill="#4f2a14" font-size="7" font-family="UDDigiKyokashoNK-B, UD Digi Kyokasho NK-B"><tspan x="-7" y="0">消毒</tspan></text>
    <text id="マスク着用" transform="translate(213 1649)" fill="#4f2a14" font-size="7" font-family="UDDigiKyokashoNK-B, UD Digi Kyokasho NK-B"><tspan x="-16.155" y="0">マスク着用</tspan></text>
    <g id="グループ_36" data-name="グループ 36" transform="translate(64.156 954.41)">
      <path id="パス_97" data-name="パス 97" d="M104.855,659.557l-2.206-1.956a3.885,3.885,0,0,0-2.527-1.011,2.714,2.714,0,0,0-2.067.886L87.4,669.488a4.631,4.631,0,0,0-1.142,3.55l.039.374a3.1,3.1,0,0,1-.676,2.27L80.575,681.7c-.9,1.088-1.58,2.686-.535,3.611a1.555,1.555,0,0,0,1.053.394h0a4.154,4.154,0,0,0,2.473-1.36l5.361-5.719a3.119,3.119,0,0,1,2.182-.95l.377-.006a4.635,4.635,0,0,0,3.386-1.554L105.528,664.1a3.28,3.28,0,0,0-.673-4.547m-23.762,25.3v0Zm23.165-21.882L93.6,674.991a2.945,2.945,0,0,1-2.144.983l-.377.005a4.84,4.84,0,0,0-3.386,1.479l-3.667,3.914-.552-.491,3.453-4.116a4.817,4.817,0,0,0,1.058-3.529l-.04-.374a2.934,2.934,0,0,1,.723-2.247L99.324,658.6a1.045,1.045,0,0,1,.8-.314,2.173,2.173,0,0,1,1.4.583l2.206,1.957c.739.655.981,1.639.529,2.149" fill="#4f2a14"/>
      <path id="パス_98" data-name="パス 98" d="M95.792,665.624a.563.563,0,0,0-.8.047L90.975,670.2a.561.561,0,0,0,.048.8l1.916,1.7a.572.572,0,0,0,.375.141.564.564,0,0,0,.424-.19l4.017-4.531a.561.561,0,0,0,.142-.41.555.555,0,0,0-.19-.388Zm-2.526,5.854-1.068-.947,3.267-3.685,1.069.948Z" fill="#4f2a14"/>
    </g>
    <text id="除菌" transform="translate(157.952 1728)" fill="#4f2a14" font-size="7" font-family="UDDigiKyokashoNK-B, UD Digi Kyokasho NK-B"><tspan x="-7" y="0">除菌</tspan></text>
    <text id="換気" transform="translate(213.952 1728)" fill="#4f2a14" font-size="7" font-family="UDDigiKyokashoNK-B, UD Digi Kyokasho NK-B"><tspan x="-7" y="0">換気</tspan></text>
    <text id="手洗い洗浄" transform="translate(271.952 1728)" fill="#4f2a14" font-size="7" font-family="UDDigiKyokashoNK-B, UD Digi Kyokasho NK-B"><tspan x="-17.36" y="0">手洗い洗浄</tspan></text>
    <g id="グループ_41" data-name="グループ 41" transform="translate(59.136 967.84)">
      <path id="パス_127" data-name="パス 127" d="M227.5,741.751l-4.974-4.507a6.571,6.571,0,0,0-3.82-5.225,20.677,20.677,0,0,0-2.654-.689,3.275,3.275,0,0,0-2.916-3,3.271,3.271,0,0,0-4.952-2.748,3.255,3.255,0,0,0-5.164.37,3.242,3.242,0,0,0-1.262-.255,3.279,3.279,0,0,0-3.276,3.276,3.194,3.194,0,0,0,.062.623,3.247,3.247,0,0,0-1.791,1.73,2.958,2.958,0,0,0-1.826.032.986.986,0,0,0-.608,1.186c.7,2.549,3.74,6.436,3.87,6.6a.983.983,0,0,0,.451.321l6.169,2.138a.956.956,0,0,0,.279.053l8.959.4,3.692,3.075A.986.986,0,0,0,219,743.616l-3.946-3.288a.988.988,0,0,0-.588-.228l-9.147-.4-5.755-1.995a31.307,31.307,0,0,1-2.753-4.245,12.073,12.073,0,0,1,3.265,2.972.983.983,0,0,0,.581.362l5.262,1.09a.94.94,0,0,0,.425-.007,43.017,43.017,0,0,1,7.607-.979.987.987,0,0,0,.205-1.948,23.554,23.554,0,0,1-4.836-1.782c1.9-.9,7,.088,8.713.71a4.64,4.64,0,0,1,2.557,3.884.983.983,0,0,0,.323.689l5.263,4.768a.987.987,0,1,0,1.324-1.463M208.3,731.463a2.7,2.7,0,0,0-1.42,1.74.988.988,0,0,0,.415,1.061,14.914,14.914,0,0,0,1.963,1.069c-1.511.221-2.687.468-3.155.571l-4.7-.974a13.591,13.591,0,0,0-3.447-3.088,1.953,1.953,0,0,1,1.513-1.136.657.657,0,0,0,.508-.925,1.914,1.914,0,0,1-.184-.8,1.954,1.954,0,0,1,3.113-1.579.658.658,0,0,0,1.006-.312,1.94,1.94,0,0,1,3.543-.253.653.653,0,0,0,.48.339.643.643,0,0,0,.558-.177,1.957,1.957,0,0,1,3.325,1.4,1.693,1.693,0,0,1-.065.45.662.662,0,0,0,.154.6.674.674,0,0,0,.594.212,1.977,1.977,0,0,1,2.181,1.424c-2.256-.341-4.852-.438-6.379.375" fill="#4f2a14"/>
      <path id="パス_128" data-name="パス 128" d="M204.882,730.141a2.226,2.226,0,0,0-3.241,2.064.659.659,0,0,0,.57.737.758.758,0,0,0,.083.005.656.656,0,0,0,.651-.576,1.491,1.491,0,0,1,.434-1.02,1.47,1.47,0,0,1,1.094.041.658.658,0,0,0,.409-1.251" fill="#4f2a14"/>
      <g id="グループ_39" data-name="グループ 39" transform="translate(6.817 0.56)">
        <path id="パス_117" data-name="パス 117" d="M94.521,735.956h8.33A2.352,2.352,0,0,0,105.2,733.6v-6.991a2.351,2.351,0,0,0-2.353-2.351h-8.33a2.351,2.351,0,0,0-2.352,2.351V733.6a2.352,2.352,0,0,0,2.352,2.351" fill="#4f2a14"/>
        <path id="パス_118" data-name="パス 118" d="M106.5,730.769a.634.634,0,0,0-.633.633v5.287H91.5V731.4a.634.634,0,0,0-1.268,0v5.5a1.9,1.9,0,0,0,.86,3.592h6.961v1.947l-3.507,3.507a2.076,2.076,0,0,0-.961-.244,2.1,2.1,0,1,0,2.1,2.1,2.081,2.081,0,0,0-.243-.961l2.609-2.611v3.15a2.1,2.1,0,1,0,1.269,0v-3.15l2.61,2.612a2.076,2.076,0,0,0-.242.96,2.129,2.129,0,1,0,1.139-1.859l-3.507-3.507v-1.947h6.961a1.9,1.9,0,0,0,.859-3.593v-5.5a.634.634,0,0,0-.635-.633M93.583,748.64a.832.832,0,1,1,.833-.832.834.834,0,0,1-.833.832m11.039-.832a.833.833,0,1,1-.833-.832.835.835,0,0,1,.833.832m-5.937,2.4a.833.833,0,1,1,.833-.833.834.834,0,0,1-.833.833" fill="#4f2a14"/>
        <path id="パス_119" data-name="パス 119" d="M86.584,743.843c-.223,2.314-.4,2.569-2.046,2.883,1.643.313,1.823.568,2.046,2.882.224-2.314.4-2.569,2.046-2.882-1.642-.314-1.822-.569-2.046-2.883" fill="#4f2a14"/>
        <path id="パス_120" data-name="パス 120" d="M96.338,717.244c-.224,2.313-.4,2.568-2.047,2.883,1.643.313,1.823.568,2.047,2.882.223-2.314.4-2.569,2.045-2.882-1.642-.315-1.822-.57-2.045-2.883" fill="#4f2a14"/>
        <path id="パス_121" data-name="パス 121" d="M87.647,738.361c-2.67-.511-2.964-.926-3.327-4.688-.361,3.762-.657,4.177-3.325,4.688,2.668.512,2.964.927,3.325,4.689.363-3.762.657-4.177,3.327-4.689" fill="#4f2a14"/>
        <rect id="長方形_35" data-name="長方形 35" width="0.671" height="1.532" transform="matrix(0.253, -0.967, 0.967, 0.253, 89.793, 723.957)" fill="#4f2a14"/>
        <rect id="長方形_36" data-name="長方形 36" width="0.672" height="1.567" transform="translate(87.411 723.336) rotate(-75.349)" fill="#4f2a14"/>
        <rect id="長方形_37" data-name="長方形 37" width="0.672" height="1.336" transform="matrix(0.654, -0.756, 0.756, 0.654, 88.617, 725.866)" fill="#4f2a14"/>
        <rect id="長方形_38" data-name="長方形 38" width="0.672" height="1.567" transform="matrix(0.653, -0.757, 0.757, 0.653, 86.755, 724.257)" fill="#4f2a14"/>
        <rect id="長方形_39" data-name="長方形 39" width="1.567" height="0.672" transform="translate(87.458 721.564) rotate(-11.574)" fill="#4f2a14"/>
        <rect id="長方形_40" data-name="長方形 40" width="1.336" height="0.672" transform="translate(89.869 721.068) rotate(-11.633)" fill="#4f2a14"/>
        <path id="パス_122" data-name="パス 122" d="M85.365,721.995l1.215-.25.136.657,0,.06-.169.648-.031.048,0,0-.018.022-.42.486-.939-.812Z" fill="#4f2a14"/>
        <path id="パス_123" data-name="パス 123" d="M76.388,726.627l-1.37,5.25a.583.583,0,0,0,.416.71l5.182,1.351a.583.583,0,0,0,.71-.416l1.369-5.25a.586.586,0,0,0,0-.311l-.85-2.872a.584.584,0,0,0-.108-.2l.4-1.555a.574.574,0,0,0-.351-.678l.082-.31.783.2c-.084,3.313,1.642,4.466,1.718,4.514a.1.1,0,0,0,.032.015.113.113,0,0,0,.032,0l.657-.018a.114.114,0,0,0,.1-.074.112.112,0,0,0-.032-.122c-1.329-1.172-1.271-3.281-1.21-3.98l.622.162a.221.221,0,0,0,.26-.136l.295-1.128a.223.223,0,0,0-.162-.246l-4.68-1.221a.224.224,0,0,0-.273.159L79.7,721.7a.228.228,0,0,0,0,.11l.089.356a.577.577,0,0,0-.5.428l-.406,1.555a.609.609,0,0,0-.191.12l-2.144,2.091a.58.58,0,0,0-.156.27m4.248-2.144-.6-.156.229-.88.6.157Zm-3.163,2.594,1.792-1.747.452.116-.779,2.988-1.318-.343-.866,3.321,3.284.856.867-3.319-1.318-.345.781-2.988.451.118.71,2.4-1.183,4.531-4.055-1.059Z" fill="#4f2a14"/>
      </g>
      <g id="グループ_40" data-name="グループ 40" transform="translate(1.233 1.701)">
        <path id="パス_124" data-name="パス 124" d="M162.371,741.8a1.862,1.862,0,0,0,1.862-1.861v-19.26a1.862,1.862,0,0,0-1.862-1.861H144.444a1.861,1.861,0,0,0-1.861,1.861v19.26a1.861,1.861,0,0,0,1.861,1.861h14.817v5.564a.909.909,0,0,0-.307.679v1.376a.919.919,0,0,0,1.837,0v-1.376a.909.909,0,0,0-.307-.679V741.8Zm-17.952-1.861v-19.26l.025-.024h17.927l.027.024v19.26l-.027.025H144.444Z" fill="#4f2a14"/>
        <path id="パス_125" data-name="パス 125" d="M153.408,721.956a8.225,8.225,0,1,0,8.224,8.224,8.225,8.225,0,0,0-8.224-8.224m4.517,12.742a6.389,6.389,0,1,1,1.871-4.518,6.366,6.366,0,0,1-1.871,4.518" fill="#4f2a14"/>
        <path id="パス_126" data-name="パス 126" d="M157.7,728.46a1.86,1.86,0,0,0-.979-.252,4.051,4.051,0,0,0-1.276.246c-.174.061-.345.129-.513.2.071-.168.141-.338.2-.515a4.022,4.022,0,0,0,.245-1.276,2.026,2.026,0,0,0-.1-.659,1.535,1.535,0,0,0-.682-.837,2.33,2.33,0,0,0-1.188-.276,2.7,2.7,0,0,0-.832.117,1.592,1.592,0,0,0-.887.676,1.836,1.836,0,0,0-.253.979,4.049,4.049,0,0,0,.245,1.276c.06.176.13.348.2.515-.167-.072-.338-.141-.514-.2a4.05,4.05,0,0,0-1.275-.246,2.042,2.042,0,0,0-.659.1,1.525,1.525,0,0,0-.837.682,2.311,2.311,0,0,0-.277,1.188,2.668,2.668,0,0,0,.119.832,1.6,1.6,0,0,0,.674.889,1.868,1.868,0,0,0,.98.252,4.023,4.023,0,0,0,1.275-.247c.175-.059.347-.128.515-.2-.071.168-.142.338-.2.514a4.066,4.066,0,0,0-.245,1.276,2.028,2.028,0,0,0,.1.66,1.528,1.528,0,0,0,.683.836,2.3,2.3,0,0,0,1.187.277,2.7,2.7,0,0,0,.832-.118,1.6,1.6,0,0,0,.888-.675,1.847,1.847,0,0,0,.252-.98,4.038,4.038,0,0,0-.245-1.276c-.061-.175-.129-.347-.2-.515.167.073.337.143.512.2a4.023,4.023,0,0,0,1.276.247,2.016,2.016,0,0,0,.659-.1,1.525,1.525,0,0,0,.838-.682,2.326,2.326,0,0,0,.275-1.187,2.7,2.7,0,0,0-.117-.832,1.607,1.607,0,0,0-.676-.889M152.7,726.6a.3.3,0,0,1,.143-.178,1.141,1.141,0,0,1,.569-.107,1.473,1.473,0,0,1,.453.057.366.366,0,0,1,.225.153.66.66,0,0,1,.07.337,2.885,2.885,0,0,1-.179.88,8.387,8.387,0,0,1-.57,1.249c-.064-.118-.13-.242-.194-.373a7.1,7.1,0,0,1-.394-.937,2.767,2.767,0,0,1-.159-.819.789.789,0,0,1,.036-.262m-1.786,4.168a2.849,2.849,0,0,1-.817.159.894.894,0,0,1-.263-.036.3.3,0,0,1-.177-.144,1.157,1.157,0,0,1-.109-.569,1.462,1.462,0,0,1,.059-.453.365.365,0,0,1,.152-.226.657.657,0,0,1,.338-.069,2.842,2.842,0,0,1,.88.18,8.188,8.188,0,0,1,1.249.569c-.117.064-.242.131-.372.193a7.081,7.081,0,0,1-.94.4m3.21,2.987a.3.3,0,0,1-.142.179,1.169,1.169,0,0,1-.57.107,1.519,1.519,0,0,1-.454-.057.36.36,0,0,1-.223-.154.626.626,0,0,1-.071-.337,2.854,2.854,0,0,1,.18-.879,8.293,8.293,0,0,1,.568-1.25c.065.118.13.242.2.373a7.081,7.081,0,0,1,.393.94,2.739,2.739,0,0,1,.159.816.811.811,0,0,1-.036.262m3.094-3.124a.371.371,0,0,1-.153.225.627.627,0,0,1-.338.069,2.8,2.8,0,0,1-.879-.18,8.191,8.191,0,0,1-1.25-.568c.118-.064.242-.131.373-.194a7.25,7.25,0,0,1,.939-.4,2.778,2.778,0,0,1,.817-.158.857.857,0,0,1,.263.035.3.3,0,0,1,.177.144,1.145,1.145,0,0,1,.109.569,1.5,1.5,0,0,1-.058.453" fill="#4f2a14"/>
      </g>
    </g>
    <g id="グループ_37" data-name="グループ 37" transform="translate(59.784 947.049)">
      <path id="パス_99" data-name="パス 99" d="M144.859,678.592a.16.16,0,0,0,.158-.165c-.009-.431-.016-.862-.019-1.289a.16.16,0,0,0-.162-.16h0a.162.162,0,0,0-.16.163q.006.641.019,1.294a.16.16,0,0,0,.161.157Z" fill="#4f2a14"/>
      <path id="パス_100" data-name="パス 100" d="M144.988,681.5a.16.16,0,0,0,.149-.172c-.029-.416-.052-.847-.071-1.286a.155.155,0,0,0-.168-.154.161.161,0,0,0-.153.169c.018.44.042.874.069,1.294a.162.162,0,0,0,.162.149h.012" fill="#4f2a14"/>
      <path id="パス_101" data-name="パス 101" d="M145.106,682.783a.162.162,0,0,0-.141.18c.059.484.129.918.207,1.288a.162.162,0,0,0,.159.128l.033,0a.163.163,0,0,0,.125-.192c-.077-.362-.146-.786-.2-1.26a.163.163,0,0,0-.18-.141" fill="#4f2a14"/>
      <path id="パス_102" data-name="パス 102" d="M144.832,675.686h0a.16.16,0,0,0,.161-.16l0-.9a.163.163,0,0,0-.161-.162h0a.164.164,0,0,0-.161.161l0,.9a.16.16,0,0,0,.162.161" fill="#4f2a14"/>
      <path id="パス_103" data-name="パス 103" d="M161.887,680.276a.164.164,0,0,0-.169.152c-.021.443-.049.871-.081,1.285a.162.162,0,0,0,.147.174h.014a.16.16,0,0,0,.16-.148c.033-.417.06-.852.082-1.295a.162.162,0,0,0-.153-.169" fill="#4f2a14"/>
      <path id="パス_104" data-name="パス 104" d="M161.649,683.171a.16.16,0,0,0-.182.139c-.046.321-.1.616-.153.875a.159.159,0,0,0,.124.189.143.143,0,0,0,.034,0,.159.159,0,0,0,.158-.128c.056-.264.11-.565.157-.9a.164.164,0,0,0-.138-.184" fill="#4f2a14"/>
      <path id="パス_105" data-name="パス 105" d="M161.964,677.371h0a.159.159,0,0,0-.161.159c-.006.428-.013.861-.024,1.289a.161.161,0,0,0,.157.166h0a.163.163,0,0,0,.162-.157c.01-.431.018-.865.023-1.295a.16.16,0,0,0-.159-.162" fill="#4f2a14"/>
      <path id="パス_106" data-name="パス 106" d="M161.967,674.464h0a.162.162,0,0,0-.16.162c0,.4,0,.822,0,1.29a.149.149,0,0,0,.161.146.176.176,0,0,0,.161-.178c0-.436,0-.857,0-1.26a.162.162,0,0,0-.162-.16" fill="#4f2a14"/>
      <path id="パス_107" data-name="パス 107" d="M167.034,669.958c-1.136-.093-2.348.773-3.307,2.312-2.14-1.006-6.544-1.286-10.3-1.321-3.744.035-8.144.315-10.285,1.321-.959-1.539-2.176-2.405-3.306-2.312a2.294,2.294,0,0,0-1.957,1.738,12.3,12.3,0,0,0,4.858,14.293c.028.075.053.155.081.226l.209.522.559.075a87.007,87.007,0,0,1,9.587,2.1l.263.073.263-.074a87.05,87.05,0,0,1,9.587-2.1l.558-.075.21-.521c.029-.072.053-.152.08-.227a12.3,12.3,0,0,0,4.859-14.293,2.294,2.294,0,0,0-1.957-1.738m-27.944,2.181c.142-.388.4-.859.845-.893.524-.041,1.383.507,2.161,1.788a1.341,1.341,0,0,0-.163.255l-.082.184v.2a71.5,71.5,0,0,0,.406,10.315c-5.622-4.88-3.195-11.774-3.166-11.851m14.344,14.837a89.894,89.894,0,0,0-8.994-2c-.69-2.433-.679-7.573-.656-10.929.951-.6,5.21-1.123,9.641-1.164,4.448.041,8.707.564,9.658,1.164.023,3.356.036,8.5-.656,10.929a89.855,89.855,0,0,0-8.993,2m11.179-2.986a71.518,71.518,0,0,0,.4-10.315l0-.2-.081-.184a1.346,1.346,0,0,0-.164-.255c.779-1.281,1.637-1.828,2.162-1.788.44.034.7.505.844.893.029.077,2.456,6.97-3.164,11.851" fill="#4f2a14"/>
      <path id="パス_108" data-name="パス 108" d="M153.536,681.918a6.843,6.843,0,0,1-5.351-2.546l.89-.719a5.752,5.752,0,0,0,8.922,0l.89.719a6.846,6.846,0,0,1-5.351,2.546" fill="#4f2a14"/>
      <path id="パス_109" data-name="パス 109" d="M148.008,680.136a.552.552,0,0,1-.294-.082.57.57,0,0,1-.2-.784l.707-1.18a.572.572,0,0,1,.981.589l-.707,1.18a.573.573,0,0,1-.491.277" fill="#4f2a14"/>
      <path id="パス_110" data-name="パス 110" d="M158.966,680.136a.573.573,0,0,1-.491-.277l-.707-1.18a.572.572,0,0,1,.981-.589l.708,1.18a.572.572,0,0,1-.2.784.558.558,0,0,1-.295.082" fill="#4f2a14"/>
    </g>
    <g id="グループ_38" data-name="グループ 38" transform="translate(59.528 948.34)">
      <path id="パス_111" data-name="パス 111" d="M209.455,681.45a1.378,1.378,0,0,1,1.684.2l3.234,2.83h4.921V683.2s-1.516.143-2.966.27c-.943.082-1.343-.136-1.483-.876a.963.963,0,0,1,.642-1.25s1.919-.436,4.413-.975,3.167.27,3.167.27a12.783,12.783,0,0,0,1.686,1.55c.2,0,4.111.539,4.111.539l-1.752,7.279-3.436-2.764a10.794,10.794,0,0,1-3.574.944,27.041,27.041,0,0,1-7.009-.405,51.049,51.049,0,0,1-3.909-4.38c-.608-1.011-.742-1.416.271-1.954" fill="#4f2a14"/>
      <path id="パス_112" data-name="パス 112" d="M211.671,679.013c-.738,0-.969-.254-.969-1.188a7.252,7.252,0,0,1,1.061-2.62,8.031,8.031,0,0,1,1.016,2.642c0,.89-.369,1.166-1.108,1.166" fill="#4f2a14"/>
      <path id="パス_113" data-name="パス 113" d="M210.861,673.811c-.615.126-.852-.046-1.012-.824a6.147,6.147,0,0,1,.436-2.364,6.846,6.846,0,0,1,1.3,2.028c.153.739-.107,1.033-.722,1.16" fill="#4f2a14"/>
      <path id="パス_114" data-name="パス 114" d="M209.236,669.423c-.479.245-.712.157-1.022-.447a5.262,5.262,0,0,1-.181-2.049,5.86,5.86,0,0,1,1.533,1.374c.294.575.148.877-.33,1.122" fill="#4f2a14"/>
      <path id="パス_115" data-name="パス 115" d="M205.052,670.561h-1.068a1.211,1.211,0,0,0,.013-.148v-1.294a1.034,1.034,0,0,0-1.034-1.034h-.536v-2.966H204.2l1.954,1.645.994-1.071-2.212-1.862a.73.73,0,0,0-.47-.171h-5.13a.73.73,0,0,0,0,1.459h1.633v2.966h-.536a1.034,1.034,0,0,0-1.033,1.034v1.294a1.045,1.045,0,0,0,.014.148h-1.069a2.874,2.874,0,0,0-2.872,2.87V689.67a2.874,2.874,0,0,0,2.872,2.87h6.708a2.875,2.875,0,0,0,2.873-2.87V673.431a2.875,2.875,0,0,0-2.873-2.87m1.414,19.109a1.414,1.414,0,0,1-1.414,1.411h-6.708a1.414,1.414,0,0,1-1.413-1.411V673.431a1.413,1.413,0,0,1,1.413-1.411h6.708a1.413,1.413,0,0,1,1.414,1.411Z" fill="#4f2a14"/>
      <path id="パス_116" data-name="パス 116" d="M204.042,681.8h-1.27v-4.846h-4.545v12.562h7.123V676.951h-1.308Z" fill="#4f2a14"/>
    </g>
  </g>
</svg>
