<?xml version="1.0" encoding="utf-8"?>
<!-- Generator: Adobe Illustrator 15.0.0, SVG Export Plug-In  -->
<!DOCTYPE svg PUBLIC "-//W3C//DTD SVG 1.1//EN" "http://www.w3.org/Graphics/SVG/1.1/DTD/svg11.dtd" [
	<!ENTITY ns_flows "http://ns.adobe.com/Flows/1.0/">
]>
<svg version="1.1"
	 xmlns="http://www.w3.org/2000/svg" xmlns:xlink="http://www.w3.org/1999/xlink" xmlns:a="http://ns.adobe.com/AdobeSVGViewerExtensions/3.0/"
	 x="0px" y="0px" width="514px" height="73px" viewBox="-15.05 -13.338 514 73" enable-background="new -15.05 -13.338 514 73"
	 xml:space="preserve">
<defs>
</defs>
<path fill="#61381A" d="M445.49,38.881c-0.45,0-0.893-0.217-1.164-0.617c-0.435-0.642-0.266-1.515,0.376-1.949l30.054-20.345
	c0.644-0.433,1.516-0.265,1.948,0.375c0.435,0.641,0.267,1.514-0.375,1.949L446.275,38.64
	C446.034,38.803,445.759,38.881,445.49,38.881z"/>
<path fill="#61381A" d="M486.666,10.196c-0.434,0-0.859-0.199-1.135-0.576c-0.457-0.625-0.321-1.503,0.306-1.961l2.451-1.792
	c0.625-0.456,1.502-0.322,1.961,0.306c0.456,0.625,0.321,1.503-0.306,1.961l-2.451,1.792
	C487.242,10.108,486.953,10.196,486.666,10.196z"/>
<path fill="#61381A" d="M475.541,33.513c-0.271,0-0.544-0.078-0.785-0.241l-30.054-20.345c-0.642-0.434-0.811-1.307-0.376-1.949
	c0.434-0.64,1.305-0.81,1.949-0.375l30.054,20.345c0.642,0.435,0.81,1.308,0.375,1.949C476.432,33.296,475.99,33.513,475.541,33.513
	z"/>
<path fill="#61381A" d="M481.345,20.173c-4.155,0-7.535-3.38-7.535-7.536c0-4.155,3.38-7.536,7.535-7.536s7.534,3.381,7.534,7.536
	C488.879,16.793,485.5,20.173,481.345,20.173z M481.345,7.909c-2.607,0-4.729,2.121-4.729,4.729s2.122,4.729,4.729,4.729
	c2.606,0,4.728-2.121,4.728-4.729S483.952,7.909,481.345,7.909z"/>
<path fill="#61381A" d="M481.345,43.282c-4.155,0-7.535-3.381-7.535-7.536c0-4.155,3.38-7.534,7.535-7.534s7.534,3.379,7.534,7.534
	C488.879,39.901,485.5,43.282,481.345,43.282z M481.345,31.019c-2.607,0-4.729,2.122-4.729,4.728c0,2.608,2.122,4.729,4.729,4.729
	c2.606,0,4.728-2.121,4.728-4.729C486.073,33.14,483.952,31.019,481.345,31.019z"/>
<path fill="#61381A" d="M8.735,16.05c4.292,0,6.834,2.557,6.834,7.371v8.751c0,2.255,0,2.255-2.339,2.255
	c-2.255,0-2.255,0-2.255-2.255v-8.5c0-2.036-1.179-3.113-2.996-3.113c-1.397,0-2.676,0.69-3.383,1.447v10.216
	c0,2.205,0,2.205-2.289,2.205C0,34.428,0,34.428,0,32.223V12.717c0-2.39,0-2.39,2.29-2.39c2.305,0,2.305,0,2.305,2.39v4.628
	C5.318,16.723,6.952,16.05,8.735,16.05z"/>
<path fill="#61381A" d="M35.936,32.931c-0.943,0.622-3.3,1.817-7.103,1.817c-4.897,0-7.103-2.659-7.103-5.823
	c0-2.878,1.969-5.471,6.715-5.471c1.498,0,2.727,0.185,3.906,0.522v-1.228c0-1.701-0.825-2.609-3.148-2.609
	c-1.161,0-2.221,0.287-3.181,0.606c-0.488,0.134-1.026,0.354-1.347,0.337c-0.386-0.034-0.605-0.185-1.144-1.397
	c-0.354-0.791-0.539-1.279-0.539-1.598c0-0.372,0.27-0.69,1.398-1.128c1.345-0.522,2.996-0.908,4.813-0.908
	c4.898,0,7.54,2.104,7.54,6.849v8.432C36.743,32.156,36.558,32.492,35.936,32.931z M32.351,30.17v-3.113
	c-1.145-0.337-2.104-0.522-3.299-0.522c-2.036,0-2.979,1.026-2.979,2.289c0,1.532,1.195,2.272,3.012,2.272
	C30.566,31.095,31.761,30.573,32.351,30.17z"/>
<path fill="#61381A" d="M46.186,14.435c-2.407,0-2.407,0-2.407-2.475c0-2.423,0-2.423,2.407-2.423c2.423,0,2.423,0,2.423,2.423
	C48.609,14.435,48.609,14.435,46.186,14.435z M48.509,18.725v13.498c0,2.205,0,2.205-2.323,2.205c-2.272,0-2.272,0-2.272-2.205
	V18.725c0-2.356,0-2.356,2.272-2.356C48.509,16.369,48.509,16.369,48.509,18.725z"/>
<path fill="#61381A" d="M66.755,17.666c0,0.218-0.051,0.572-0.388,1.7c-0.37,1.229-0.555,1.599-1.195,1.599
	c-0.201,0-0.622-0.067-1.195-0.203c-0.437-0.1-0.925-0.201-1.632-0.201c-1.246,0-1.918,0.605-1.918,2.138v9.576
	c0,2.154,0,2.154-2.289,2.154c-2.323,0-2.323,0-2.323-2.154V21.822c0-3.535,2.053-5.772,5.94-5.772c1.128,0,2.441,0.167,3.484,0.453
	C66.183,16.756,66.755,17.026,66.755,17.666z"/>
<path fill="#61381A" d="M89.659,16.05c1.329,0,2.894,0.354,3.904,0.791v-4.14c0-2.374,0-2.374,2.307-2.374
	c2.305,0,2.305,0,2.305,2.374v18.36c0,0.758-0.202,1.179-0.808,1.6c-0.959,0.69-3.635,2.087-7.103,2.087
	c-4.679,0-7.624-2.929-7.977-7.052c-0.101-1.177-0.134-3.585,0-4.78C82.657,18.743,85.198,16.05,89.659,16.05z M90.366,30.271
	c1.177,0,2.658-0.589,3.197-1.026v-7.926c-0.571-0.372-2.002-0.876-3.467-0.876c-2.104,0-3.114,1.145-3.231,3.148
	c-0.083,0.791-0.083,2.49,0,3.398C87,29.126,88.211,30.271,90.366,30.271z"/>
<path fill="#61381A" d="M118.302,27.073h-9.056v0.336c0,2.138,1.683,3.282,3.906,3.282c1.313,0,2.474-0.252,3.483-0.657
	c0.589-0.235,1.043-0.454,1.38-0.454c0.472,0,0.708,0.354,1.228,1.531c0.372,0.809,0.455,1.179,0.455,1.431
	c0,0.337-0.202,0.606-1.161,1.061c-1.195,0.555-3.215,1.145-5.353,1.145c-4.897,0-7.926-2.996-8.297-7.17
	c-0.083-1.313-0.083-3.315,0.018-4.375c0.37-4.375,3.518-7.152,7.926-7.152c4.611,0,7.759,3.028,7.759,7.792v0.874
	C120.591,26.838,120.221,27.073,118.302,27.073z M116.417,23.521c0.067-2.204-1.296-3.668-3.518-3.668
	c-2.524,0-3.668,1.616-3.652,4.09h6.784C116.417,23.943,116.417,23.943,116.417,23.521z"/>
<path fill="#61381A" d="M138.781,17.648c0.555,0.455,0.741,0.724,0.741,1.061c0,0.354-0.152,0.589-0.875,1.532
	c-0.673,0.874-0.909,1.144-1.329,1.144c-0.388,0-0.657-0.235-1.313-0.556c-0.791-0.403-1.751-0.689-2.778-0.689
	c-1.648,0-2.423,0.606-2.423,1.515c0,0.723,0.539,1.144,2.02,1.498c0.756,0.185,1.766,0.388,2.272,0.506
	c3.483,0.841,5.132,2.49,5.132,5.368c0,3.585-3.146,5.723-7.001,5.723c-3.113,0-5.083-0.909-6.513-1.953
	c-0.504-0.37-0.858-0.689-0.858-1.11c0-0.303,0.101-0.522,0.825-1.465c0.707-0.925,0.976-1.211,1.396-1.211
	c0.354,0,0.707,0.287,1.179,0.573c1.061,0.689,2.406,1.145,4.022,1.145c1.717,0,2.508-0.707,2.508-1.632
	c0-0.707-0.522-1.213-1.935-1.548c-0.926-0.219-1.498-0.337-2.559-0.589c-2.676-0.656-4.847-2.256-4.847-5.235
	c0-3.585,3.097-5.67,7.018-5.67C135.466,16.05,137.603,16.656,138.781,17.648z"/>
<path fill="#61381A" d="M148.829,14.435c-2.407,0-2.407,0-2.407-2.475c0-2.423,0-2.423,2.407-2.423c2.422,0,2.422,0,2.422,2.423
	C151.251,14.435,151.251,14.435,148.829,14.435z M151.152,18.725v13.498c0,2.205,0,2.205-2.323,2.205c-2.272,0-2.272,0-2.272-2.205
	V18.725c0-2.356,0-2.356,2.272-2.356C151.152,16.369,151.152,16.369,151.152,18.725z"/>
<path fill="#61381A" d="M165.696,41.379c-2.188,0-4.039-0.573-5.554-1.347c-1.195-0.605-1.632-0.909-1.632-1.431
	c0-0.37,0.185-0.724,0.707-1.582c0.791-1.228,0.959-1.447,1.447-1.447c0.388,0,0.943,0.37,1.817,0.791
	c1.028,0.506,1.902,0.791,3.215,0.791c2.239,0,3.518-1.262,3.518-3.585v-0.403c-1.026,0.488-2.339,0.909-4.089,0.909
	c-4.275,0-6.816-2.491-7.204-6.597c-0.134-1.28-0.1-3.3,0-4.393c0.37-3.972,3.03-7.034,8.045-7.034c3.197,0,5.957,1.244,7.001,1.985
	c0.639,0.454,0.824,0.875,0.824,1.667v13.48C173.791,38.753,169.937,41.379,165.696,41.379z M162.464,23.826
	c-0.051,0.689-0.033,2.154,0,2.86c0.134,2.054,1.127,3.383,3.4,3.383c1.532,0,2.827-0.605,3.333-0.976v-7.759
	c-0.286-0.22-1.65-0.893-3.231-0.893C163.71,20.442,162.599,21.838,162.464,23.826z"/>
<path fill="#61381A" d="M194.438,34.428c-2.29,0-2.29,0-2.29-2.205v-8.55c0-2.17-1.447-3.113-3.181-3.113
	c-1.363,0-2.575,0.42-3.231,0.825v10.838c0,2.205,0,2.205-2.289,2.205c-2.306,0-2.306,0-2.306-2.205V19.534
	c0-0.825,0.236-1.229,0.809-1.65c1.043-0.724,3.551-1.833,7.136-1.833c5.083,0,7.658,2.658,7.658,7.404v8.769
	C196.743,34.428,196.743,34.428,194.438,34.428z"/>
<path fill="#61381A" d="M266.854,15.344c0,7.289-4.027,11.35-8.918,12.724l9.398,10.901c0.606,0.703,1.086,1.31,1.086,2.078
	c0,0.832-0.415,1.343-2.685,3.261c-1.822,1.534-2.366,2.046-3.324,2.046c-0.768,0-1.312-0.576-2.11-1.535l-10.806-13.396
	c-0.99-1.246-0.99-1.278-2.781-1.278h-5.371v11.35c0,4.283,0,4.283-4.539,4.283c-4.476,0-4.476,0-4.476-4.283V6.361
	c0-5.754,0-5.754,5.913-5.754h13.108C260.94,0.607,266.854,6.777,266.854,15.344z M241.343,8.823v13.172h8.889
	c5.658,0,7.608-2.654,7.608-6.49c0-4.027-2.271-6.682-7.13-6.682H241.343z"/>
<path fill="#61381A" d="M299.913,46.386c-11.094,0-19.341-8.12-19.341-20.044V5.21c0-4.603,0-4.603,4.443-4.603
	c4.476,0,4.476,0,4.476,4.603v21.675c0,6.873,4.444,11.125,10.454,11.125s10.422-4.252,10.422-11.125V5.21
	c0-4.603,0-4.603,4.476-4.603s4.476,0,4.476,4.603v21.131C319.318,38.267,310.974,46.386,299.913,46.386z"/>
<path fill="#61381A" d="M348.444,4.412l17.071,30.178h0.191c-0.606-6.874-0.575-15.504-0.575-21.131V5.21
	c0-4.603,0-4.603,4.476-4.603s4.476,0,4.476,4.603v34.174c0,6.394,0,6.394-5.723,6.394c-5.658,0-5.658,0-7.513-3.453l-17.423-30.881
	l-0.191,0.064c0.608,6.745,0.608,13.49,0.608,18.862v11.092c0,4.316,0,4.316-4.38,4.316c-4.476,0-4.476,0-4.476-4.316V7.385
	c0-6.778,0-6.778,6.714-6.778C346.367,0.607,346.43,0.639,348.444,4.412z"/>
<path fill="#61381A" d="M388.617,28.229c-0.286-3.326-0.286-6.713,0-10.038C389.449,7.992,397.697,0,408.535,0
	c10.837,0,19.085,7.992,19.915,18.19c0.288,3.325,0.288,6.712,0,10.038c-0.83,10.197-9.078,18.158-19.915,18.158
	C397.697,46.386,389.449,38.426,388.617,28.229z M419.532,27.173c0.191-2.557,0.191-5.371,0-7.929
	c-0.479-6.234-4.891-10.71-10.997-10.71s-10.519,4.476-10.967,10.71c-0.223,2.558-0.223,5.372,0,7.929
	c0.448,6.234,4.86,10.709,10.967,10.709S419.052,33.407,419.532,27.173z"/>
</svg>
