<svg xmlns="http://www.w3.org/2000/svg" width="128.88" height="12.188" viewBox="0 0 128.88 12.188">
  <g id="グループ_57" data-name="グループ 57" transform="translate(-178.391 -254.582)">
    <g id="グループ_1" data-name="グループ 1" transform="translate(295.071 255.923)">
      <path id="パス_1" data-name="パス 1" d="M622.845,276.394a.369.369,0,0,1-.207-.674l7.9-5.346a.369.369,0,1,1,.413.611l-7.9,5.346A.369.369,0,0,1,622.845,276.394Z" transform="translate(-622.476 -267.52)" fill="#fefefe"/>
      <path id="パス_2" data-name="パス 2" d="M664.021,261.386a.369.369,0,0,1-.218-.666l.644-.471a.369.369,0,0,1,.435.6l-.644.471A.366.366,0,0,1,664.021,261.386Z" transform="translate(-652.833 -260.048)" fill="#fefefe"/>
      <path id="パス_3" data-name="パス 3" d="M630.741,271.026a.368.368,0,0,1-.207-.063l-7.9-5.346a.369.369,0,0,1,.414-.611l7.9,5.346a.369.369,0,0,1-.207.674Z" transform="translate(-622.476 -263.562)" fill="#fefefe"/>
      <path id="パス_4" data-name="パス 4" d="M654.181,263.644a1.98,1.98,0,1,1,1.98-1.98A1.982,1.982,0,0,1,654.181,263.644Zm0-3.223a1.243,1.243,0,1,0,1.242,1.242A1.244,1.244,0,0,0,654.181,260.421Z" transform="translate(-644.391 -259.684)" fill="#fefefe"/>
      <path id="パス_5" data-name="パス 5" d="M654.181,286.754a1.98,1.98,0,1,1,1.98-1.98A1.982,1.982,0,0,1,654.181,286.754Zm0-3.222a1.242,1.242,0,1,0,1.242,1.242A1.244,1.244,0,0,0,654.181,283.531Z" transform="translate(-644.391 -276.722)" fill="#fefefe"/>
    </g>
    <g id="グループ_2" data-name="グループ 2" transform="translate(178.391 257.087)">
      <path id="パス_6" data-name="パス 6" d="M180.686,266.413a1.693,1.693,0,0,1,1.8,1.937v2.3c0,.593,0,.593-.615.593-.593,0-.593,0-.593-.593v-2.233a.735.735,0,0,0-.787-.818,1.268,1.268,0,0,0-.889.38v2.684c0,.579,0,.579-.6.579s-.606,0-.606-.579v-5.125c0-.628,0-.628.6-.628s.606,0,.606.628v1.216A1.821,1.821,0,0,1,180.686,266.413Z" transform="translate(-178.391 -264.701)" fill="#fefefe"/>
      <path id="パス_7" data-name="パス 7" d="M203.853,275.067a3.405,3.405,0,0,1-1.866.477c-1.287,0-1.866-.7-1.866-1.53,0-.756.517-1.437,1.764-1.437a3.623,3.623,0,0,1,1.026.137v-.323c0-.447-.217-.685-.827-.685a2.622,2.622,0,0,0-.836.159,1.594,1.594,0,0,1-.354.089c-.1-.009-.159-.049-.3-.367a1.275,1.275,0,0,1-.142-.42c0-.1.071-.182.367-.3a3.518,3.518,0,0,1,1.265-.239c1.287,0,1.981.553,1.981,1.8v2.215A.42.42,0,0,1,203.853,275.067Zm-.942-.725v-.818a2.877,2.877,0,0,0-.867-.137c-.535,0-.783.27-.783.6,0,.4.314.6.791.6A1.59,1.59,0,0,0,202.912,274.342Z" transform="translate(-194.412 -268.921)" fill="#fefefe"/>
      <path id="パス_8" data-name="パス 8" d="M222.8,265.4c-.632,0-.632,0-.632-.65s0-.637.632-.637.637,0,.637.637S223.44,265.4,222.8,265.4Zm.61,1.127v3.547c0,.579,0,.579-.61.579s-.6,0-.6-.579v-3.547c0-.619,0-.619.6-.619S223.414,265.913,223.414,266.532Z" transform="translate(-210.668 -264.118)" fill="#fefefe"/>
      <path id="パス_9" data-name="パス 9" d="M237.081,271.056a1.751,1.751,0,0,1-.1.447c-.1.323-.146.42-.314.42a1.684,1.684,0,0,1-.314-.053,1.773,1.773,0,0,0-.429-.053c-.327,0-.5.159-.5.562v2.516c0,.566,0,.566-.6.566s-.61,0-.61-.566v-2.746a1.4,1.4,0,0,1,1.561-1.517,3.681,3.681,0,0,1,.915.119C236.931,270.817,237.081,270.888,237.081,271.056Z" transform="translate(-219.542 -268.921)" fill="#fefefe"/>
      <path id="パス_10" data-name="パス 10" d="M262.55,266.413a2.846,2.846,0,0,1,1.026.208v-1.088c0-.623,0-.623.606-.623s.606,0,.606.623v4.824a.44.44,0,0,1-.212.42,3.4,3.4,0,0,1-1.866.548,1.959,1.959,0,0,1-2.1-1.853,8.515,8.515,0,0,1,0-1.256A1.809,1.809,0,0,1,262.55,266.413Zm.186,3.736a1.629,1.629,0,0,0,.84-.27V267.8a1.915,1.915,0,0,0-.911-.23.771.771,0,0,0-.849.827,6.11,6.11,0,0,0,0,.893A.831.831,0,0,0,262.735,270.149Z" transform="translate(-238.992 -264.701)" fill="#fefefe"/>
      <path id="パス_11" data-name="パス 11" d="M286.758,273.528h-2.379v.088c0,.561.442.862,1.026.862a2.441,2.441,0,0,0,.915-.173,1.252,1.252,0,0,1,.363-.119c.124,0,.186.093.323.4a.968.968,0,0,1,.12.376c0,.089-.053.159-.305.279a3.541,3.541,0,0,1-1.406.3,2.02,2.02,0,0,1-2.18-1.884,9.01,9.01,0,0,1,0-1.149,1.97,1.97,0,0,1,2.083-1.879,1.924,1.924,0,0,1,2.039,2.047v.23C287.36,273.466,287.263,273.528,286.758,273.528Zm-.5-.933a.869.869,0,0,0-.924-.964c-.663,0-.964.425-.96,1.075h1.782C286.263,272.706,286.263,272.706,286.263,272.595Z" transform="translate(-255.675 -268.921)" fill="#fefefe"/>
      <path id="パス_12" data-name="パス 12" d="M307.643,271.052c.146.119.195.19.195.279s-.04.155-.23.4c-.177.23-.239.3-.349.3s-.173-.062-.345-.146a1.622,1.622,0,0,0-.73-.181c-.433,0-.637.159-.637.4,0,.19.142.3.531.394.2.049.464.1.6.133.915.221,1.348.654,1.348,1.41,0,.942-.827,1.5-1.839,1.5a2.747,2.747,0,0,1-1.711-.513c-.133-.1-.225-.181-.225-.292,0-.08.027-.137.217-.385s.256-.318.367-.318a.726.726,0,0,1,.31.151,1.912,1.912,0,0,0,1.057.3c.451,0,.659-.186.659-.429,0-.186-.137-.319-.508-.407-.244-.058-.394-.089-.672-.155a1.433,1.433,0,0,1-1.274-1.375c0-.942.814-1.49,1.844-1.49A2.321,2.321,0,0,1,307.643,271.052Z" transform="translate(-271.179 -268.921)" fill="#fefefe"/>
      <path id="パス_13" data-name="パス 13" d="M325.446,265.4c-.632,0-.632,0-.632-.65s0-.637.632-.637.637,0,.637.637S326.083,265.4,325.446,265.4Zm.61,1.127v3.547c0,.579,0,.579-.61.579s-.6,0-.6-.579v-3.547c0-.619,0-.619.6-.619S326.057,265.913,326.057,266.532Z" transform="translate(-286.342 -264.118)" fill="#fefefe"/>
      <path id="パス_14" data-name="パス 14" d="M338.289,277.287a3.173,3.173,0,0,1-1.46-.354c-.314-.159-.429-.239-.429-.376,0-.1.049-.19.186-.416.208-.323.252-.38.38-.38a1.711,1.711,0,0,1,.477.208,1.744,1.744,0,0,0,.845.208.844.844,0,0,0,.924-.942v-.106a2.433,2.433,0,0,1-1.074.239,1.757,1.757,0,0,1-1.893-1.733,7.222,7.222,0,0,1,0-1.154,1.947,1.947,0,0,1,2.114-1.848,3.5,3.5,0,0,1,1.839.522.455.455,0,0,1,.216.438v3.542A2.013,2.013,0,0,1,338.289,277.287Zm-.849-4.612c-.013.181-.009.566,0,.751a.826.826,0,0,0,.893.889,1.617,1.617,0,0,0,.876-.256V272.02a1.676,1.676,0,0,0-.849-.234A.858.858,0,0,0,337.44,272.675Z" transform="translate(-294.754 -268.921)" fill="#fefefe"/>
      <path id="パス_15" data-name="パス 15" d="M363.026,275.461c-.6,0-.6,0-.6-.579v-2.246a.763.763,0,0,0-.836-.818,1.717,1.717,0,0,0-.849.217v2.848c0,.579,0,.579-.6.579s-.606,0-.606-.579v-3.334a.461.461,0,0,1,.213-.434,3.447,3.447,0,0,1,1.875-.482,1.772,1.772,0,0,1,2.012,1.945v2.3C363.631,275.461,363.631,275.461,363.026,275.461Z" transform="translate(-311.938 -268.921)" fill="#fefefe"/>
    </g>
    <g id="グループ_3" data-name="グループ 3" transform="translate(239.434 254.582)">
      <path id="パス_16" data-name="パス 16" d="M419.791,259.061a3.2,3.2,0,0,1-2.343,3.343l2.469,2.864a.872.872,0,0,1,.286.546c0,.219-.109.353-.705.857-.479.4-.622.538-.873.538-.2,0-.345-.151-.555-.4l-2.839-3.519c-.26-.327-.26-.336-.731-.336h-1.411v2.982c0,1.126,0,1.126-1.192,1.126-1.176,0-1.176,0-1.176-1.126V256.7c0-1.512,0-1.512,1.554-1.512h3.444A3.755,3.755,0,0,1,419.791,259.061Zm-6.7-1.714v3.461h2.336c1.487,0,2-.7,2-1.705a1.641,1.641,0,0,0-1.873-1.756Z" transform="translate(-410.72 -255.03)" fill="#fefefe"/>
      <path id="パス_17" data-name="パス 17" d="M464.044,267.217a4.978,4.978,0,0,1-5.081-5.267V256.4c0-1.209,0-1.209,1.167-1.209s1.176,0,1.176,1.209v5.695a2.748,2.748,0,1,0,5.485,0V256.4c0-1.209,0-1.209,1.176-1.209s1.176,0,1.176,1.209v5.552A5,5,0,0,1,464.044,267.217Z" transform="translate(-446.288 -255.03)" fill="#fefefe"/>
      <path id="パス_18" data-name="パス 18" d="M516.913,256.188l4.485,7.929h.05c-.159-1.806-.151-4.074-.151-5.552V256.4c0-1.209,0-1.209,1.176-1.209s1.176,0,1.176,1.209v8.979c0,1.68,0,1.68-1.5,1.68-1.487,0-1.487,0-1.974-.908l-4.578-8.114-.05.017c.16,1.772.16,3.544.16,4.956v2.914c0,1.134,0,1.134-1.15,1.134-1.176,0-1.176,0-1.176-1.134V256.97c0-1.781,0-1.781,1.764-1.781C516.367,255.189,516.384,255.2,516.913,256.188Z" transform="translate(-486.405 -255.03)" fill="#fefefe"/>
      <path id="パス_19" data-name="パス 19" d="M566.85,262a15.458,15.458,0,0,1,0-2.637,5.255,5.255,0,0,1,10.466,0,15.359,15.359,0,0,1,0,2.637,5.255,5.255,0,0,1-10.466,0Zm8.123-.277a14.436,14.436,0,0,0,0-2.083,2.886,2.886,0,0,0-5.771,0,12.354,12.354,0,0,0,0,2.083,2.886,2.886,0,0,0,5.771,0Z" transform="translate(-525.786 -254.582)" fill="#fefefe"/>
    </g>
  </g>
</svg>
