<?xml version="1.0" encoding="utf-8"?>
<!-- Generator: Adobe Illustrator 15.0.0, SVG Export Plug-In  -->
<!DOCTYPE svg PUBLIC "-//W3C//DTD SVG 1.1//EN" "http://www.w3.org/Graphics/SVG/1.1/DTD/svg11.dtd" [
	<!ENTITY ns_flows "http://ns.adobe.com/Flows/1.0/">
]>
<svg version="1.1"
	 xmlns="http://www.w3.org/2000/svg" xmlns:xlink="http://www.w3.org/1999/xlink" xmlns:a="http://ns.adobe.com/AdobeSVGViewerExtensions/3.0/"
	 x="0px" y="0px" width="225px" height="187px" viewBox="-5.13 8.123 225 187" enable-background="new -5.13 8.123 225 187"
	 xml:space="preserve">
<defs>
</defs>
<path fill="none" stroke="#E9DED4" stroke-width="4" stroke-linecap="round" stroke-linejoin="round" stroke-miterlimit="10" d="
	M198.599,172.891H16.173C8.346,172.891,2,166.545,2,158.718V30.474c0-7.826,6.346-14.173,14.173-14.173h182.426
	c7.828,0,14.173,6.347,14.173,14.173v128.244C212.771,166.545,206.427,172.891,198.599,172.891z"/>
<text transform="matrix(1 0 0 1 4.4971 189.6182)"><tspan x="0" y="0" fill="#61381A" font-family="'TsukuARdGothicStd-B'" font-size="8">駐</tspan><tspan x="7.929" y="0" fill="#61381A" font-family="'TsukuARdGothicStd-B'" font-size="8">車</tspan><tspan x="15.889" y="0" fill="#61381A" font-family="'TsukuARdGothicStd-B'" font-size="8">場</tspan><tspan x="23.641" y="0" fill="#61381A" font-family="'TsukuARdGothicStd-B'" font-size="8">は</tspan><tspan x="31.297" y="0" fill="#61381A" font-family="'TsukuARdGothicStd-B'" font-size="8" letter-spacing="-1">あ</tspan><tspan x="38.24" y="0" fill="#61381A" font-family="'TsukuARdGothicStd-B'" font-size="8" letter-spacing="-1">り</tspan><tspan x="44.729" y="0" fill="#61381A" font-family="'TsukuARdGothicStd-B'" font-size="8">ま</tspan><tspan x="51.984" y="0" fill="#61381A" font-family="'TsukuARdGothicStd-B'" font-size="8">せ</tspan><tspan x="59.168" y="0" fill="#61381A" font-family="'TsukuARdGothicStd-B'" font-size="8">ん</tspan><tspan x="66.977" y="0" fill="#61381A" font-family="'TsukuARdGothicStd-B'" font-size="8">の</tspan><tspan x="74.448" y="0" fill="#61381A" font-family="'TsukuARdGothicStd-B'" font-size="8">で</tspan><tspan x="82.537" y="0" fill="#61381A" font-family="'TsukuARdGothicStd-B'" font-size="8">近</tspan><tspan x="90.513" y="0" fill="#61381A" font-family="'TsukuARdGothicStd-B'" font-size="8">隣</tspan><tspan x="98.297" y="0" fill="#61381A" font-family="'TsukuARdGothicStd-B'" font-size="8">の</tspan><tspan x="105.984" y="0" fill="#61381A" font-family="'TsukuARdGothicStd-B'" font-size="8">パ</tspan><tspan x="113.4" y="0" fill="#61381A" font-family="'TsukuARdGothicStd-B'" font-size="8">ー</tspan><tspan x="120.713" y="0" fill="#61381A" font-family="'TsukuARdGothicStd-B'" font-size="8" letter-spacing="-1">キ</tspan><tspan x="127.656" y="0" fill="#61381A" font-family="'TsukuARdGothicStd-B'" font-size="8">ン</tspan><tspan x="134.752" y="0" fill="#61381A" font-family="'TsukuARdGothicStd-B'" font-size="8">グ</tspan><tspan x="142.201" y="0" fill="#61381A" font-family="'TsukuARdGothicStd-B'" font-size="8" letter-spacing="-1">を</tspan><tspan x="149.097" y="0" fill="#61381A" font-family="'TsukuARdGothicStd-B'" font-size="8">ご</tspan><tspan x="157.041" y="0" fill="#61381A" font-family="'TsukuARdGothicStd-B'" font-size="8">利</tspan><tspan x="164.929" y="0" fill="#61381A" font-family="'TsukuARdGothicStd-B'" font-size="8" letter-spacing="-1">用</tspan><tspan x="171.873" y="0" fill="#61381A" font-family="'TsukuARdGothicStd-B'" font-size="8" letter-spacing="-1">く</tspan><tspan x="178.633" y="0" fill="#61381A" font-family="'TsukuARdGothicStd-B'" font-size="8">だ</tspan><tspan x="185.816" y="0" fill="#61381A" font-family="'TsukuARdGothicStd-B'" font-size="8">さ</tspan><tspan x="192.881" y="0" fill="#61381A" font-family="'TsukuARdGothicStd-B'" font-size="8">い</tspan></text>
<g>
	<defs>
		<path id="SVGID_1_" d="M16.174,15.967C8.346,15.967,2,22.313,2,30.14v128.244c0,7.828,6.346,14.173,14.174,14.173h182.424
			c7.828,0,14.174-6.345,14.174-14.173V30.14c0-7.827-6.346-14.173-14.174-14.173H16.174z"/>
	</defs>
	<clipPath id="SVGID_2_">
		<use xlink:href="#SVGID_1_"  overflow="visible"/>
	</clipPath>
	<rect x="1.839" clip-path="url(#SVGID_2_)" fill="#FFFFFF" width="226.505" height="174.475"/>
	<path clip-path="url(#SVGID_2_)" fill="#61381A" d="M87.426,64.176c2.985,9.729-5.316,20.907-18.543,24.967
		c-13.227,4.057-26.369-0.54-29.354-10.271c-2.986-9.729,5.316-20.907,18.543-24.966C71.299,49.85,84.44,54.447,87.426,64.176"/>
	
		<path clip-path="url(#SVGID_2_)" fill="none" stroke="#DDCDBF" stroke-width="4.528" stroke-linecap="round" stroke-linejoin="round" stroke-miterlimit="10" d="
		M15.219,160.641c0,0,96.648-19.559,114.99-38.248c27.828-28.356,36.104-77.176,69.4-92.579"/>
	
		<path clip-path="url(#SVGID_2_)" fill="none" stroke="#DDCDBF" stroke-width="2.264" stroke-linecap="round" stroke-linejoin="round" stroke-miterlimit="10" d="
		M9.072,122.885L155.088,64.22c0,0,5.467-1.987,10.436-0.496"/>
	
		<path clip-path="url(#SVGID_2_)" fill="none" stroke="#DDCDBF" stroke-width="2.264" stroke-linecap="round" stroke-linejoin="round" stroke-miterlimit="10" d="
		M125.24,126.833c0,0-28.363-68.924-27.484-103.167"/>
	<path clip-path="url(#SVGID_2_)" fill="none" stroke="#6A3906" stroke-width="2.264" stroke-miterlimit="10" d="M120.838,137.738
		c0,0-27.4-80.01-28.893-97.401c-1.49-17.395-1.987-34.289-1.987-34.289"/>
	
		<path clip-path="url(#SVGID_2_)" fill="none" stroke="#6A3906" stroke-width="4.528" stroke-miterlimit="10" stroke-dasharray="1.132,9.055" d="
		M120.838,137.738c0,0-27.4-80.01-28.893-97.401c-1.49-17.395-1.987-34.289-1.987-34.289"/>
	
		<line clip-path="url(#SVGID_2_)" fill="none" stroke="#DDCDBF" stroke-width="2.264" stroke-linecap="round" stroke-linejoin="round" stroke-miterlimit="10" x1="101.854" y1="59.778" x2="131.67" y2="50.338"/>
	
		<path clip-path="url(#SVGID_2_)" fill="none" stroke="#DDCDBF" stroke-width="2.264" stroke-linecap="round" stroke-linejoin="round" stroke-miterlimit="10" d="
		M11.707,28.934l72.319,80.011c0,0,11.429,11.927,15.405,29.815c3.975,17.891,6.227,26.839,6.227,26.839"/>
	<polygon clip-path="url(#SVGID_2_)" fill="#BC7092" points="114.041,59.757 115.899,63.524 120.057,64.128 117.049,67.061 
		117.758,71.199 114.041,69.244 110.322,71.199 111.033,67.061 108.025,64.128 112.182,63.524 	"/>
	<path clip-path="url(#SVGID_2_)" fill="#6A3906" d="M108.857,103.147h-3.054c-1.528,0-2.78-1.252-2.78-2.78v-3.054
		c0-1.528,1.252-2.78,2.78-2.78h3.054c1.529,0,2.78,1.252,2.78,2.78v3.054C111.638,101.896,110.387,103.147,108.857,103.147"/>
	<path clip-path="url(#SVGID_2_)" fill="none" stroke="#FFFFFF" stroke-width="1.132" stroke-miterlimit="10" d="M108.857,103.147
		h-3.054c-1.528,0-2.78-1.252-2.78-2.78v-3.054c0-1.528,1.252-2.78,2.78-2.78h3.054c1.529,0,2.78,1.252,2.78,2.78v3.054
		C111.638,101.896,110.387,103.147,108.857,103.147z"/>
	<path clip-path="url(#SVGID_2_)" fill="#6A3906" d="M92.707,36.807h-3.054c-1.528,0-2.78-1.252-2.78-2.78v-3.054
		c0-1.528,1.252-2.78,2.78-2.78h3.054c1.529,0,2.78,1.252,2.78,2.78v3.054C95.487,35.555,94.236,36.807,92.707,36.807"/>
	<path clip-path="url(#SVGID_2_)" fill="none" stroke="#FFFFFF" stroke-width="1.132" stroke-miterlimit="10" d="M92.707,36.807
		h-3.054c-1.528,0-2.78-1.252-2.78-2.78v-3.054c0-1.528,1.252-2.78,2.78-2.78h3.054c1.529,0,2.78,1.252,2.78,2.78v3.054
		C95.487,35.555,94.236,36.807,92.707,36.807z"/>
	
		<line clip-path="url(#SVGID_2_)" fill="none" stroke="#6A3906" stroke-width="2.264" stroke-miterlimit="10" x1="9.328" y1="175.02" x2="222.986" y2="126.435"/>
	
		<line clip-path="url(#SVGID_2_)" fill="none" stroke="#6A3906" stroke-width="4.528" stroke-miterlimit="10" stroke-dasharray="1.132,5.66" x1="9.328" y1="175.02" x2="222.986" y2="126.435"/>
	<g clip-path="url(#SVGID_2_)">
		<text transform="matrix(1 0 0 1 68.5166 35.3027)"><tspan x="0" y="0" fill="#6A3906" font-family="'TsukuARdGothicStd-B'" font-size="8">公</tspan><tspan x="7.977" y="0" fill="#6A3906" font-family="'TsukuARdGothicStd-B'" font-size="8">園</tspan></text>
	</g>
	<g clip-path="url(#SVGID_2_)">
		<text transform="matrix(0.9999 0.0124 -0.0124 0.9999 56.9785 65.8608)"><tspan x="0" y="0" fill="#FFFFFF" font-family="'TsukuARdGothicStd-B'" font-size="7.9233">A</tspan><tspan x="5.325" y="0" fill="#FFFFFF" font-family="'TsukuARdGothicStd-B'" font-size="7.9233">E</tspan><tspan x="9.444" y="0" fill="#FFFFFF" font-family="'TsukuARdGothicStd-B'" font-size="7.9233">O</tspan><tspan x="15.435" y="0" fill="#FFFFFF" font-family="'TsukuARdGothicStd-B'" font-size="7.9233">N</tspan></text>
	</g>
	<g clip-path="url(#SVGID_2_)">
		<text transform="matrix(0.9999 0.0124 -0.0124 0.9999 56.8799 73.7842)"><tspan x="0" y="0" fill="#FFFFFF" font-family="'TsukuARdGothicStd-B'" font-size="7.9233">T</tspan><tspan x="4.049" y="0" fill="#FFFFFF" font-family="'TsukuARdGothicStd-B'" font-size="7.9233">O</tspan><tspan x="10.015" y="0" fill="#FFFFFF" font-family="'TsukuARdGothicStd-B'" font-size="7.9233">W</tspan><tspan x="17.479" y="0" fill="#FFFFFF" font-family="'TsukuARdGothicStd-B'" font-size="7.9233">N</tspan></text>
	</g>
	<g clip-path="url(#SVGID_2_)">
		<text transform="matrix(1 0 0 1 56.332 101.6064)"><tspan x="0" y="0" fill="#6A3906" font-family="'TsukuARdGothicStd-B'" font-size="8">地</tspan><tspan x="7.968" y="0" fill="#6A3906" font-family="'TsukuARdGothicStd-B'" font-size="8">区</tspan><tspan x="15.319" y="0" fill="#6A3906" font-family="'TsukuARdGothicStd-B'" font-size="8">セ</tspan><tspan x="22.487" y="0" fill="#6A3906" font-family="'TsukuARdGothicStd-B'" font-size="8">ン</tspan><tspan x="29.608" y="0" fill="#6A3906" font-family="'TsukuARdGothicStd-B'" font-size="8" letter-spacing="-1">タ</tspan><tspan x="36.601" y="0" fill="#6A3906" font-family="'TsukuARdGothicStd-B'" font-size="8">ー</tspan></text>
	</g>
	<g clip-path="url(#SVGID_2_)">
		<text transform="matrix(1 0 0 1 120.3799 89.0225)"><tspan x="0" y="0" fill="#6A3906" font-family="'TsukuARdGothicStd-B'" font-size="8" letter-spacing="-1">ウ</tspan><tspan x="6.721" y="0" fill="#6A3906" font-family="'TsukuARdGothicStd-B'" font-size="8">ェ</tspan><tspan x="14.271" y="0" fill="#6A3906" font-family="'TsukuARdGothicStd-B'" font-size="8">ル</tspan><tspan x="22.088" y="0" fill="#6A3906" font-family="'TsukuARdGothicStd-B'" font-size="8">シ</tspan><tspan x="29.656" y="0" fill="#6A3906" font-family="'TsukuARdGothicStd-B'" font-size="8">ア</tspan></text>
	</g>
	<g clip-path="url(#SVGID_2_)">
		<text transform="matrix(1 0 0 1 153.6514 128.2012)"><tspan x="0" y="0" fill="#6A3906" font-family="'TsukuARdGothicStd-B'" font-size="9">京</tspan><tspan x="9" y="0" fill="#6A3906" font-family="'TsukuARdGothicStd-B'" font-size="9">成</tspan><tspan x="18.145" y="0" fill="#6A3906" font-family="'TsukuARdGothicStd-B'" font-size="9">本</tspan><tspan x="27.162" y="0" fill="#6A3906" font-family="'TsukuARdGothicStd-B'" font-size="9">線</tspan></text>
	</g>
	<g clip-path="url(#SVGID_2_)">
		<text transform="matrix(0.7424 -0.67 0.67 0.7424 181.5947 61.8828)"><tspan x="0" y="0" fill="#6A3906" font-family="'TsukuARdGothicStd-B'" font-size="9">R</tspan><tspan x="5.526" y="0" fill="#6A3906" font-family="'TsukuARdGothicStd-B'" font-size="9">2</tspan><tspan x="10.539" y="0.001" fill="#6A3906" font-family="'TsukuARdGothicStd-B'" font-size="9">9</tspan><tspan x="15.525" y="0" fill="#6A3906" font-family="'TsukuARdGothicStd-B'" font-size="9">6</tspan></text>
	</g>
	<path clip-path="url(#SVGID_2_)" fill="#6A3906" d="M138.703,152.395l-42.111,9.013c-3.645,0.779-7.231-1.542-8.012-5.187
		l-0.03-0.143c-0.78-3.646,1.543-7.231,5.187-8.011l42.111-9.013c3.645-0.779,7.23,1.542,8.011,5.188l0.03,0.142
		C144.668,148.029,142.347,151.615,138.703,152.395"/>
	<g clip-path="url(#SVGID_2_)">
		<text transform="matrix(0.9811 -0.1935 0.1935 0.9811 92.8662 157.3296)"><tspan x="0" y="0" fill="#FFFFFF" font-family="'TsukuARdGothicStd-B'" font-size="8" letter-spacing="-1">ユ</tspan><tspan x="6.753" y="0" fill="#FFFFFF" font-family="'TsukuARdGothicStd-B'" font-size="8" letter-spacing="-1">ー</tspan><tspan x="13.528" y="0" fill="#FFFFFF" font-family="'TsukuARdGothicStd-B'" font-size="8" letter-spacing="-1">カ</tspan><tspan x="19.728" y="0" fill="#FFFFFF" font-family="'TsukuARdGothicStd-B'" font-size="8" letter-spacing="-1">リ</tspan><tspan x="26.208" y="0" fill="#FFFFFF" font-family="'TsukuARdGothicStd-B'" font-size="8">が</tspan><tspan x="33.336" y="0" fill="#FFFFFF" font-family="'TsukuARdGothicStd-B'" font-size="8">丘</tspan><tspan x="41.112" y="0" fill="#FFFFFF" font-family="'TsukuARdGothicStd-B'" font-size="8">駅</tspan></text>
	</g>
	<path clip-path="url(#SVGID_2_)" fill="#6A3906" d="M118.718,86.647c0,1.294-1.048,2.343-2.343,2.343
		c-1.293,0-2.34-1.049-2.34-2.343c0-1.293,1.047-2.341,2.34-2.341C117.67,84.307,118.718,85.354,118.718,86.647"/>
</g>
<path fill="#BC7092" d="M159.366,49.474h-38.048c-6.6,0-12-5.398-12-12v-0.878c0-6.6,5.4-12,12-12h38.048c6.601,0,12,5.4,12,12
	v0.878C171.366,44.075,165.967,49.474,159.366,49.474"/>
<text transform="matrix(1 0 0 1 116.0576 35.3633)"><tspan x="0" y="0" fill="#FFFFFF" font-family="'TsukuARdGothicStd-B'" font-size="9" letter-spacing="-1">オ</tspan><tspan x="7.75" y="0" fill="#FFFFFF" font-family="'TsukuARdGothicStd-B'" font-size="9">レ</tspan><tspan x="16.047" y="0" fill="#FFFFFF" font-family="'TsukuARdGothicStd-B'" font-size="9">ン</tspan><tspan x="24.192" y="0" fill="#FFFFFF" font-family="'TsukuARdGothicStd-B'" font-size="9">ジ</tspan><tspan x="33.039" y="0" fill="#FFFFFF" font-family="'TsukuARdGothicStd-B'" font-size="9">色</tspan><tspan x="41.599" y="0" fill="#FFFFFF" font-family="'TsukuARdGothicStd-B'" font-size="9">の</tspan></text>
<text transform="matrix(1 0 0 1 123.5283 44.3633)"><tspan x="0" y="0" fill="#FFFFFF" font-family="'TsukuARdGothicStd-B'" font-size="9">建</tspan><tspan x="9" y="0" fill="#FFFFFF" font-family="'TsukuARdGothicStd-B'" font-size="9">物</tspan><tspan x="17.648" y="0" fill="#FFFFFF" font-family="'TsukuARdGothicStd-B'" font-size="9">です</tspan></text>
<path fill="#BC7092" d="M122.873,47.435c0,0,0.896,5.819-3.805,7.833c0,0,6.491,0.896,11.414-7.386L122.873,47.435z"/>
</svg>
