<?xml version="1.0" encoding="utf-8"?>
<!-- Generator: Adobe Illustrator 15.0.0, SVG Export Plug-In  -->
<!DOCTYPE svg PUBLIC "-//W3C//DTD SVG 1.1//EN" "http://www.w3.org/Graphics/SVG/1.1/DTD/svg11.dtd" [
	<!ENTITY ns_flows "http://ns.adobe.com/Flows/1.0/">
]>
<svg version="1.1"
	 xmlns="http://www.w3.org/2000/svg" xmlns:xlink="http://www.w3.org/1999/xlink" xmlns:a="http://ns.adobe.com/AdobeSVGViewerExtensions/3.0/"
	 x="0px" y="0px" width="269px" height="207px" viewBox="-7.872 -3.316 269 207" enable-background="new -7.872 -3.316 269 207"
	 xml:space="preserve">
<defs>
</defs>
<path fill="#FFFFFF" d="M172.326,14.033c0,0-33.675,1.82-70.232-9.101C65.535-5.99,21.713,4.02,7.281,26.773
	C-7.153,49.527,3,78.651,23.203,84.112c20.203,5.46,59.736,0.092,77.927-1.819c34.636-3.642,77.07,5.157,108.713,2.729
	c35.599-2.729,54.837-27.303,43.294-53.699C243.199,8.604,210.806,7.663,172.326,14.033"/>
<path fill="none" stroke="#BC7092" stroke-linecap="round" stroke-linejoin="round" stroke-dasharray="1.006,4.024" d="
	M172.326,14.033c0,0-33.675,1.82-70.232-9.101C65.535-5.99,21.713,4.02,7.281,26.773C-7.153,49.527,3,78.651,23.203,84.112
	c20.203,5.46,59.736,0.092,77.927-1.819c34.636-3.642,77.07,5.157,108.713,2.729c35.599-2.729,54.837-27.303,43.294-53.699
	C243.199,8.604,210.806,7.663,172.326,14.033z"/>
<path fill="#61381A" d="M28.071,50.148v0.212c0,0.184-0.015,0.297-0.071,0.466c-0.279,0.904-0.657,1.78-1.217,2.641
	c0.378,0.424,0.728,0.833,1.26,1.512c0.153,0.183,0.14,0.367-0.028,0.536l-0.224,0.226c-0.182,0.184-0.378,0.169-0.546-0.042
	c-0.434-0.564-0.644-0.833-0.882-1.073v4.972c0,0.254-0.126,0.381-0.378,0.381h-0.531c-0.252,0-0.378-0.127-0.378-0.381v-4.379
	c-0.392,0.367-0.798,0.692-1.259,1.031c-0.224,0.155-0.42,0.085-0.518-0.17l-0.084-0.226c-0.083-0.212-0.014-0.368,0.168-0.509
	c1.554-1.158,2.701-2.74,3.331-4.788h-2.939c-0.252,0-0.378-0.127-0.378-0.382v-0.028c0-0.254,0.126-0.381,0.378-0.381h1.245v-1.836
	c0-0.254,0.126-0.381,0.378-0.381h0.644c0.252,0,0.377,0.127,0.377,0.381v1.836h1.274C27.945,49.767,28.071,49.894,28.071,50.148z
	 M36.214,48.312c0,0.24-0.125,0.367-0.378,0.367h-7.15c-0.252,0-0.378-0.127-0.378-0.381c0-0.226,0.126-0.339,0.378-0.339h7.15
	C36.089,47.959,36.214,48.086,36.214,48.312z M35.697,59.909h-0.645c-0.251,0-0.376-0.127-0.376-0.382v-0.239h-4.955v0.239
	c0,0.255-0.126,0.382-0.378,0.382h-0.615c-0.252,0-0.378-0.127-0.378-0.382v-5.211c0-0.254,0.126-0.382,0.378-0.382h6.969
	c0.251,0,0.378,0.127,0.378,0.382v5.211C36.075,59.782,35.948,59.909,35.697,59.909z M35.249,52.86h-6.018
	c-0.251,0-0.377-0.127-0.377-0.381V50.12c0-0.254,0.126-0.381,0.377-0.381h6.018c0.252,0,0.378,0.127,0.378,0.381v2.359
	C35.626,52.733,35.5,52.86,35.249,52.86z M31.47,54.626h-1.749v1.681h1.749V54.626z M31.47,56.914h-1.749v1.723h1.749V56.914z
	 M34.199,50.388h-3.945v1.865h3.945V50.388z M34.676,54.626h-1.849v1.681h1.849V54.626z M34.676,56.914h-1.849v1.723h1.849V56.914z"
	/>
<path fill="#61381A" d="M43.728,50.148v0.198c0,0.169-0.027,0.296-0.083,0.466c-0.351,0.918-0.784,1.808-1.372,2.684
	c0.658,0.721,1.203,1.371,1.554,1.836c0.154,0.198,0.125,0.381-0.057,0.537l-0.237,0.198c-0.196,0.155-0.364,0.141-0.518-0.071
	c-0.308-0.423-0.7-0.889-1.05-1.313v4.916c0,0.254-0.126,0.381-0.378,0.381h-0.56c-0.251,0-0.378-0.127-0.378-0.381v-4.407
	c-0.405,0.339-0.868,0.692-1.398,1.06c-0.224,0.155-0.407,0.085-0.505-0.17l-0.084-0.212c-0.083-0.226-0.014-0.381,0.169-0.522
	c1.58-1.144,2.784-2.726,3.553-4.788h-3.175c-0.253,0-0.378-0.127-0.378-0.382v-0.028c0-0.254,0.125-0.381,0.378-0.381h1.385v-1.836
	c0-0.254,0.126-0.381,0.377-0.381h0.616c0.252,0,0.378,0.127,0.378,0.381v1.836h1.385C43.603,49.767,43.728,49.894,43.728,50.148z
	 M51.397,51.702c0,0.254-0.126,0.381-0.378,0.381H48.71v6.611h2.603c0.251,0,0.378,0.127,0.378,0.382v0.027
	c0,0.255-0.127,0.382-0.378,0.382h-8.438c-0.252,0-0.378-0.127-0.378-0.382v-0.027c0-0.255,0.126-0.382,0.378-0.382h1.386v-8.433
	c0-0.254,0.126-0.382,0.378-0.382h0.616c0.252,0,0.377,0.128,0.377,0.382v8.433h1.679V48.058c0-0.254,0.127-0.381,0.378-0.381h0.645
	c0.251,0,0.378,0.127,0.378,0.381v3.263h2.309C51.271,51.32,51.397,51.448,51.397,51.702z"/>
<path fill="#61381A" d="M58.926,47.451c0.279,0.423,0.518,0.847,0.741,1.256h2.379c0.266-0.452,0.503-0.847,0.687-1.2
	c0.097-0.211,0.265-0.283,0.488-0.211l0.49,0.141c0.251,0.071,0.336,0.254,0.21,0.495c-0.126,0.212-0.28,0.48-0.477,0.776h2.813
	c0.252,0,0.378,0.128,0.378,0.382c0,0.226-0.126,0.339-0.378,0.339h-4.716v1.469h4.044c0.252,0,0.378,0.127,0.378,0.381
	c0,0.197-0.126,0.297-0.378,0.297h-4.044v1.511h5.121c0.252,0,0.378,0.127,0.378,0.381c0,0.198-0.126,0.297-0.378,0.297h-5.121
	v1.554h5.052c0.252,0,0.378,0.127,0.378,0.381c0,0.226-0.126,0.339-0.378,0.339h-4.898c0.616,1.37,2.267,2.415,4.675,2.896
	c0.266,0.057,0.35,0.212,0.279,0.466l-0.028,0.1c-0.083,0.211-0.237,0.311-0.476,0.254c-2.407-0.509-4.352-1.667-5.261-2.896
	c-0.924,1.229-2.911,2.373-5.374,2.896c-0.238,0.057-0.405-0.042-0.476-0.269L55.007,59.4c-0.083-0.254,0.014-0.409,0.266-0.466
	c2.407-0.48,4.059-1.526,4.688-2.896h-4.897c-0.252,0-0.378-0.127-0.378-0.382c0-0.226,0.126-0.338,0.378-0.338h5.052v-1.554h-5.122
	c-0.252,0-0.378-0.127-0.378-0.381c0-0.198,0.126-0.297,0.378-0.297h5.122v-1.511h-4.045c-0.251,0-0.378-0.127-0.378-0.382
	c0-0.198,0.127-0.296,0.378-0.296h4.045v-1.469h-4.717c-0.251,0-0.378-0.127-0.378-0.381c0-0.227,0.127-0.34,0.378-0.34h2.884
	l-0.448-0.776c-0.141-0.24-0.084-0.424,0.167-0.508l0.421-0.142C58.646,47.21,58.8,47.252,58.926,47.451z"/>
<path fill="#61381A" d="M77.088,51.984c1.539,1.483,3.148,2.712,4.869,3.715c0.211,0.127,0.253,0.296,0.141,0.508l-0.069,0.128
	c-0.127,0.226-0.295,0.268-0.52,0.141l-0.938-0.551v3.673c0,0.254-0.125,0.381-0.377,0.381h-0.671c-0.253,0-0.378-0.127-0.378-0.381
	v-0.382h-6.103v0.382c0,0.254-0.125,0.381-0.378,0.381h-0.672c-0.251,0-0.378-0.127-0.378-0.381v-3.673l-0.937,0.551
	c-0.224,0.127-0.392,0.085-0.518-0.141l-0.07-0.128c-0.112-0.212-0.07-0.381,0.141-0.508c1.722-1.003,3.329-2.232,4.869-3.715
	c0.14-0.141,0.28-0.197,0.462-0.197h1.063C76.808,51.787,76.949,51.844,77.088,51.984z M82.154,48.863v1.949
	c0,0.254-0.125,0.381-0.378,0.381h-0.63c-0.252,0-0.378-0.127-0.378-0.381v-1.638h-9.347v1.638c0,0.254-0.127,0.381-0.378,0.381
	h-0.63c-0.252,0-0.378-0.127-0.378-0.381v-1.949c0-0.255,0.126-0.382,0.378-0.382h4.968v-1.031c0-0.255,0.125-0.382,0.378-0.382
	h0.672c0.252,0,0.377,0.127,0.377,0.382v1.031h4.968C82.029,48.481,82.154,48.608,82.154,48.863z M74.834,50.417
	c-0.866,1.059-2.084,2.091-3.68,2.995c-0.224,0.127-0.405,0.07-0.518-0.142l-0.069-0.127c-0.112-0.212-0.071-0.396,0.14-0.523
	c1.259-0.776,2.336-1.709,3.261-2.896c0.152-0.197,0.335-0.211,0.531-0.056l0.266,0.211C74.961,50.036,74.989,50.219,74.834,50.417z
	 M76.094,52.408c-0.896,0.875-1.917,1.751-3.051,2.585h6.103C78.011,54.16,76.99,53.284,76.094,52.408z M79.146,55.685h-6.103v2.868
	h6.103V55.685z M77.83,49.583c1.428,1.017,2.617,2.048,3.597,3.009c0.182,0.184,0.168,0.353,0.014,0.537l-0.224,0.255
	c-0.168,0.184-0.364,0.184-0.531,0c-1.119-1.145-2.268-2.133-3.457-3.023c-0.196-0.141-0.224-0.339-0.056-0.522l0.14-0.184
	C77.452,49.47,77.633,49.442,77.83,49.583z"/>
<path fill="#61381A" d="M88.773,48.043c-0.141,0.438-0.295,0.875-0.477,1.328h1.609c0.253,0,0.378,0.127,0.378,0.381v3.15
	c0,0.254-0.125,0.381-0.378,0.381h-3.289v1.639h3.415c0.252,0,0.378,0.127,0.378,0.381v4.011c0,0.255-0.126,0.382-0.378,0.382
	h-0.587c-0.253,0-0.378-0.127-0.378-0.382v-0.239h-2.45v0.522c0,0.254-0.125,0.381-0.378,0.381H85.61
	c-0.252,0-0.377-0.127-0.377-0.381v-9.846c0-0.254,0.125-0.381,0.377-0.381h1.301c0.169-0.367,0.337-0.904,0.547-1.568
	c0.069-0.226,0.224-0.324,0.462-0.296l0.573,0.084C88.744,47.634,88.856,47.79,88.773,48.043z M88.968,50.091h-2.352v2.5h2.352
	V50.091z M89.067,55.643h-2.45v2.74h2.45V55.643z M97.729,48.538c0,0.24-0.127,0.367-0.378,0.367H94.79v2.104h2.295
	c0.252,0,0.378,0.127,0.378,0.381v5.452c0,1.498-0.126,1.695-1.288,1.695c-0.167,0-0.419-0.014-0.727-0.042
	c-0.238-0.028-0.351-0.155-0.363-0.396c-0.015-0.254,0.125-0.382,0.391-0.354l0.378,0.043c0.336,0.042,0.279-0.848,0.279-0.848
	v-5.227H94.79v8.023c0,0.254-0.126,0.381-0.377,0.381h-0.645c-0.251,0-0.378-0.127-0.378-0.381v-8.023h-1.245v6.441
	c0,0.254-0.126,0.381-0.378,0.381h-0.588c-0.252,0-0.378-0.127-0.378-0.381v-6.766c0-0.254,0.126-0.381,0.378-0.381h2.211v-2.104
	h-2.589c-0.252,0-0.378-0.127-0.378-0.382c0-0.226,0.126-0.353,0.378-0.353h6.55C97.602,48.171,97.729,48.298,97.729,48.538z"/>
<path fill="#61381A" d="M138.2,49.952h-6.064v1.764h6.785c0.393,0,0.589,0.199,0.589,0.595c0,0.287-0.196,0.441-0.589,0.441h-6.785
	v1.917h7.767c0.393,0,0.59,0.199,0.59,0.595c0,0.309-0.197,0.485-0.59,0.485h-17.716c-0.394,0-0.59-0.198-0.59-0.595
	c0-0.309,0.196-0.485,0.59-0.485h7.788v-1.917h-6.807c-0.393,0-0.589-0.199-0.589-0.595c0-0.287,0.196-0.441,0.589-0.441h6.807
	v-1.764h-6.087c-0.393,0-0.589-0.198-0.589-0.595V43.03c0-0.396,0.196-0.595,0.589-0.595H138.2c0.394,0,0.59,0.199,0.59,0.595v6.326
	C138.79,49.754,138.593,49.952,138.2,49.952z M125.72,57.689c-0.633,1.014-1.418,2.072-2.355,3.196
	c-0.24,0.287-0.524,0.331-0.829,0.11l-0.438-0.308c-0.327-0.221-0.349-0.507-0.086-0.816c0.697-0.881,1.439-1.874,2.159-3.042
	c0.196-0.331,0.48-0.397,0.808-0.221l0.523,0.287C125.852,57.094,125.938,57.358,125.72,57.689z M129.974,43.516h-4.472v2.204h4.472
	V43.516z M129.974,46.646h-4.472v2.314h4.472V46.646z M129.583,57.381c0.283,1.058,0.437,2.006,0.566,2.865
	c0.066,0.397-0.108,0.595-0.501,0.662l-0.938,0.132c-0.393,0.066-0.634-0.132-0.677-0.529c-0.13-0.882-0.283-1.83-0.479-2.778
	c-0.088-0.396,0.086-0.662,0.479-0.706l0.852-0.11C129.233,56.874,129.496,57.006,129.583,57.381z M133.859,57.116
	c0.501,1.081,0.959,2.072,1.287,2.954c0.152,0.375,0,0.639-0.393,0.75l-0.786,0.198c-0.371,0.089-0.61-0.043-0.741-0.396
	c-0.393-1.036-0.808-1.984-1.179-2.866c-0.175-0.374-0.043-0.661,0.327-0.771l0.72-0.221
	C133.444,56.653,133.684,56.763,133.859,57.116z M136.585,43.516h-4.45v2.204h4.45V43.516z M136.585,46.646h-4.45v2.314h4.45V46.646
	z M137.895,56.609c0.851,1.081,1.593,2.139,2.313,3.197c0.218,0.331,0.152,0.617-0.175,0.815l-0.523,0.308
	c-0.327,0.199-0.633,0.132-0.829-0.176c-0.742-1.124-1.462-2.161-2.203-3.13c-0.241-0.309-0.196-0.617,0.13-0.837l0.459-0.309
	C137.393,56.256,137.677,56.323,137.895,56.609z"/>
<path fill="#61381A" d="M159.913,60.643h-1.004c-0.393,0-0.589-0.198-0.589-0.595v-0.816h-13.31v0.816
	c0,0.396-0.196,0.595-0.589,0.595h-1.004c-0.393,0-0.588-0.198-0.588-0.595V43.537c0-0.396,0.195-0.595,0.588-0.595h16.495
	c0.393,0,0.589,0.199,0.589,0.595v16.511C160.501,60.445,160.305,60.643,159.913,60.643z M150.595,44.111h-5.585v6.172h5.585V44.111
	z M150.595,51.407h-5.585v6.701h5.585V51.407z M158.32,44.111h-5.585v6.172h5.585V44.111z M158.32,51.407h-5.585v6.701h5.585V51.407
	z"/>
<path fill="#61381A" d="M185.161,41.95c-0.065,0.375-0.109,0.705-0.174,0.992h7.832c0.393,0,0.589,0.199,0.589,0.595
	c0,0.309-0.196,0.485-0.589,0.485h-8.073c-0.173,0.595-0.414,1.3-0.698,2.138h8.008c0.394,0,0.59,0.198,0.59,0.595
	c0,0.264-0.196,0.396-0.59,0.396h-4.757c0.438,0.97,0.873,1.72,1.2,2.249h5.105c0.394,0,0.59,0.198,0.59,0.594
	c0,0.309-0.196,0.464-0.59,0.464h-4.386c1.396,1.763,2.902,3.085,4.539,4.034c0.306,0.176,0.414,0.44,0.283,0.793l-0.131,0.353
	c-0.152,0.397-0.437,0.507-0.786,0.287c-0.807-0.485-1.505-0.97-2.095-1.455v6.018c0,0.396-0.195,0.595-0.588,0.595h-1.026
	c-0.392,0-0.588-0.199-0.588-0.595v-0.375h-8.858v0.375c0,0.396-0.196,0.595-0.589,0.595h-1.025c-0.393,0-0.59-0.199-0.59-0.595
	v-5.996c-0.589,0.462-1.287,0.948-2.095,1.433c-0.349,0.221-0.632,0.11-0.785-0.287l-0.131-0.353
	c-0.131-0.353-0.021-0.617,0.284-0.793c1.657-0.97,3.185-2.292,4.538-4.034h-4.385c-0.393,0-0.59-0.199-0.59-0.596
	c0-0.309,0.197-0.462,0.59-0.462h5.104c0.327-0.529,0.764-1.279,1.2-2.249h-4.756c-0.394,0-0.59-0.198-0.59-0.595
	c0-0.264,0.196-0.396,0.59-0.396h5.17c0.196-0.573,0.437-1.301,0.655-2.138h-6.59c-0.393,0-0.589-0.198-0.589-0.595
	c0-0.309,0.196-0.485,0.589-0.485h6.808c0.088-0.331,0.152-0.706,0.196-1.146c0.044-0.375,0.262-0.573,0.633-0.551l1.025,0.044
	C185.03,41.311,185.226,41.531,185.161,41.95z M179.924,52.642h8.945c-0.698-0.794-1.287-1.543-1.745-2.182h-5.367
	C181.43,50.922,180.84,51.649,179.924,52.642z M188.827,53.611h-8.858v2.292h8.858V53.611z M188.827,56.808h-8.858v2.38h8.858
	V56.808z M182.455,49.401h3.972c-0.546-0.948-0.938-1.653-1.179-2.249h-1.614C183.373,47.748,183,48.453,182.455,49.401z"/>
<path fill="#61381A" d="M209.708,48.85h4.036c0.394,0,0.59,0.221,0.59,0.618c-0.021,2.755-0.131,4.893-0.349,6.48
	c-0.459,3.196-1.463,4.431-3.666,4.431c-0.981,0-2.313-0.066-3.928-0.22c-0.37-0.044-0.566-0.265-0.566-0.64v-0.11
	c0-0.396,0.218-0.595,0.633-0.55c1.636,0.154,2.793,0.22,3.534,0.22c0.546,0,0.938-0.309,1.462-1.697
	c0.458-1.168,0.676-3.704,0.676-7.363h-2.728l-0.326,0.882c-0.131,0.353-0.372,0.507-0.721,0.419l-0.828-0.199
	c-0.393-0.088-0.546-0.353-0.415-0.75c0.611-1.83,1.113-3.902,1.462-6.128h-4.822c-0.087,6.194-0.807,9.854-2.486,12.741
	c-0.677,1.168-1.746,2.38-3.252,3.704c-0.304,0.264-0.588,0.242-0.851-0.044l-0.327-0.375c-0.262-0.287-0.24-0.573,0.044-0.838
	c1.462-1.345,2.443-2.667,3.316-4.938c0.895-2.315,1.266-5.467,1.33-10.25h-4.538c-0.393,0-0.589-0.198-0.589-0.595v-0.044
	c0-0.397,0.196-0.595,0.589-0.595h13.091c0.394,0,0.59,0.198,0.59,0.595v0.771C210.495,45.742,210.167,47.196,209.708,48.85z"/>
<path fill="#61381A" d="M26.795,29.54c0.248,0.377,0.459,0.753,0.658,1.118h2.113c0.237-0.402,0.448-0.754,0.609-1.068
	c0.087-0.188,0.236-0.251,0.436-0.188l0.435,0.125c0.224,0.063,0.299,0.227,0.187,0.44c-0.111,0.188-0.248,0.427-0.422,0.691h2.499
	c0.224,0,0.335,0.113,0.335,0.339c0,0.201-0.111,0.302-0.335,0.302h-4.19v1.307h3.593c0.224,0,0.336,0.113,0.336,0.339
	c0,0.176-0.112,0.264-0.336,0.264H29.12v1.345h4.551c0.225,0,0.335,0.113,0.335,0.339c0,0.176-0.11,0.264-0.335,0.264H29.12v1.382
	h4.488c0.224,0,0.336,0.113,0.336,0.339c0,0.201-0.112,0.302-0.336,0.302h-4.352c0.548,1.219,2.014,2.148,4.153,2.575
	c0.235,0.051,0.311,0.188,0.248,0.415l-0.024,0.088c-0.074,0.188-0.212,0.276-0.424,0.227c-2.138-0.452-3.866-1.482-4.674-2.576
	c-0.821,1.093-2.586,2.111-4.774,2.576c-0.211,0.05-0.361-0.038-0.423-0.239l-0.024-0.075c-0.075-0.226,0.013-0.364,0.236-0.415
	c2.138-0.427,3.605-1.356,4.164-2.575h-4.351c-0.224,0-0.336-0.113-0.336-0.34c0-0.201,0.112-0.301,0.336-0.301h4.488v-1.382h-4.551
	c-0.224,0-0.335-0.113-0.335-0.339c0-0.176,0.112-0.264,0.335-0.264h4.551v-1.345h-3.593c-0.224,0-0.336-0.113-0.336-0.339
	c0-0.176,0.112-0.264,0.336-0.264h3.593v-1.307h-4.19c-0.223,0-0.335-0.113-0.335-0.339c0-0.201,0.112-0.302,0.335-0.302h2.562
	l-0.398-0.691c-0.125-0.213-0.074-0.377,0.149-0.453l0.373-0.125C26.546,29.327,26.683,29.364,26.795,29.54z"/>
<path fill="#61381A" d="M41.757,33.573c1.367,1.319,2.798,2.412,4.326,3.304c0.187,0.113,0.224,0.264,0.124,0.452l-0.062,0.113
	c-0.111,0.201-0.261,0.239-0.46,0.125l-0.833-0.49v3.266c0,0.227-0.111,0.339-0.335,0.339H43.92c-0.224,0-0.336-0.113-0.336-0.339
	v-0.339h-5.42v0.339c0,0.227-0.112,0.339-0.336,0.339h-0.596c-0.225,0-0.336-0.113-0.336-0.339v-3.266l-0.833,0.49
	c-0.199,0.113-0.348,0.075-0.46-0.125l-0.063-0.113c-0.1-0.188-0.063-0.339,0.124-0.452c1.529-0.892,2.959-1.985,4.327-3.304
	c0.124-0.126,0.248-0.176,0.409-0.176h0.945C41.508,33.397,41.633,33.447,41.757,33.573z M46.258,30.796v1.734
	c0,0.226-0.112,0.339-0.336,0.339h-0.56c-0.224,0-0.336-0.113-0.336-0.339v-1.457h-8.305v1.457c0,0.226-0.112,0.339-0.336,0.339
	h-0.559c-0.224,0-0.336-0.113-0.336-0.339v-1.734c0-0.226,0.112-0.339,0.336-0.339h4.413V29.54c0-0.226,0.112-0.339,0.336-0.339
	h0.596c0.224,0,0.336,0.113,0.336,0.339v0.917h4.414C46.146,30.458,46.258,30.57,46.258,30.796z M39.755,32.179
	c-0.771,0.942-1.853,1.859-3.27,2.663c-0.198,0.113-0.36,0.063-0.459-0.125l-0.063-0.113c-0.1-0.189-0.062-0.352,0.123-0.465
	c1.12-0.691,2.077-1.52,2.897-2.575c0.138-0.176,0.299-0.188,0.473-0.051l0.236,0.188C39.868,31.839,39.893,32.002,39.755,32.179z
	 M40.875,33.95c-0.796,0.779-1.704,1.558-2.711,2.299h5.42C42.579,35.508,41.67,34.729,40.875,33.95z M43.584,36.865h-5.42v2.551
	h5.42V36.865z M42.416,31.437c1.27,0.905,2.326,1.822,3.196,2.676c0.161,0.164,0.149,0.314,0.012,0.478l-0.198,0.226
	c-0.149,0.164-0.324,0.164-0.473,0c-0.995-1.018-2.015-1.897-3.071-2.689c-0.173-0.125-0.198-0.301-0.049-0.464l0.124-0.164
	C42.08,31.337,42.243,31.312,42.416,31.437z"/>
<path fill="#61381A" d="M50.962,30.068c-0.124,0.39-0.261,0.779-0.423,1.181h1.431c0.224,0,0.336,0.113,0.336,0.339v2.802
	c0,0.226-0.112,0.339-0.336,0.339h-2.922v1.458h3.033c0.225,0,0.336,0.113,0.336,0.339v3.568c0,0.227-0.111,0.339-0.336,0.339
	h-0.522c-0.224,0-0.335-0.113-0.335-0.339V39.88h-2.176v0.464c0,0.227-0.111,0.339-0.336,0.339h-0.56
	c-0.224,0-0.336-0.113-0.336-0.339v-8.756c0-0.227,0.112-0.339,0.336-0.339h1.157c0.148-0.327,0.298-0.804,0.483-1.395
	c0.063-0.201,0.2-0.289,0.41-0.265l0.511,0.076C50.938,29.703,51.037,29.842,50.962,30.068z M51.137,31.889h-2.089v2.224h2.089
	V31.889z M51.224,36.827h-2.176v2.438h2.176V36.827z M58.919,30.507c0,0.214-0.112,0.327-0.336,0.327h-2.275v1.872h2.039
	c0.224,0,0.336,0.113,0.336,0.339v4.85c0,1.332-0.112,1.508-1.144,1.508c-0.149,0-0.373-0.013-0.646-0.038
	c-0.212-0.025-0.311-0.138-0.323-0.352c-0.013-0.227,0.111-0.34,0.349-0.314l0.335,0.038c0.298,0.038,0.249-0.754,0.249-0.754
	v-4.648h-1.194v7.136c0,0.226-0.112,0.339-0.335,0.339h-0.572c-0.223,0-0.335-0.113-0.335-0.339v-7.136h-1.107v5.729
	c0,0.226-0.112,0.339-0.335,0.339h-0.522c-0.224,0-0.336-0.113-0.336-0.339v-6.018c0-0.227,0.112-0.339,0.336-0.339h1.965v-1.872
	h-2.301c-0.224,0-0.335-0.113-0.335-0.339c0-0.201,0.111-0.313,0.335-0.313h5.818C58.807,30.181,58.919,30.293,58.919,30.507z"/>
<path fill="#61381A" d="M70.984,30.357c0,0.201-0.111,0.314-0.336,0.314h-1.814v1.143h1.579c0.224,0,0.336,0.113,0.336,0.339
	c0,0.163-0.112,0.251-0.336,0.251h-1.468c0.436,0.817,1.045,1.571,1.791,2.274c0.162,0.15,0.174,0.314,0.05,0.49l-0.124,0.163
	c-0.149,0.164-0.312,0.188-0.485,0.025c-0.56-0.515-1.007-0.992-1.343-1.432v1.847c0,0.226-0.112,0.339-0.336,0.339h-0.46
	c-0.224,0-0.336-0.113-0.336-0.339V33.95c-0.397,0.502-0.895,1.03-1.529,1.583c-0.161,0.151-0.322,0.139-0.472-0.037l-0.074-0.088
	c-0.149-0.176-0.125-0.339,0.037-0.491c0.845-0.766,1.529-1.608,2.026-2.513h-1.256c-0.224,0-0.336-0.113-0.336-0.339
	c0-0.164,0.112-0.251,0.336-0.251h1.268v-1.143h-3.083v1.143h0.971c0.224,0,0.336,0.113,0.336,0.339
	c0,0.163-0.112,0.251-0.336,0.251h-0.858c0.373,0.415,0.746,0.842,1.094,1.257c0.138,0.163,0.124,0.327-0.025,0.477l-0.136,0.139
	c-0.162,0.163-0.336,0.163-0.473-0.025c-0.236-0.301-0.435-0.541-0.572-0.729v2.25c0,0.226-0.111,0.339-0.336,0.339h-0.46
	c-0.224,0-0.335-0.113-0.335-0.339v-1.897c-0.211,0.301-0.46,0.615-0.746,0.954c-0.162,0.188-0.335,0.177-0.484,0l-0.125-0.15
	c-0.137-0.164-0.137-0.314,0-0.477c0.436-0.528,0.883-1.182,1.168-1.797h-0.894c-0.225,0-0.336-0.113-0.336-0.339
	c0-0.164,0.111-0.251,0.336-0.251h1.081v-1.143h-1.716v4.423c0,2.06-0.385,3.769-1.045,5.214c-0.112,0.238-0.311,0.264-0.472,0.075
	l-0.336-0.39c-0.124-0.138-0.138-0.276-0.074-0.453c0.522-1.432,0.795-3.417,0.795-5.83v-3.317c0-0.226,0.112-0.339,0.336-0.339
	h9.672C70.873,30.055,70.984,30.156,70.984,30.357z M70.176,37.568c0,0.176-0.111,0.264-0.336,0.264h-2.909v1.847h3.717
	c0.225,0,0.336,0.113,0.336,0.339c0,0.188-0.111,0.289-0.336,0.289h-9.037c-0.224,0-0.336-0.113-0.336-0.339
	c0-0.188,0.112-0.289,0.336-0.289h1.255v-2.462c0-0.226,0.112-0.339,0.336-0.339h0.547c0.224,0,0.336,0.113,0.336,0.339v2.462h1.616
	v-3.342c0-0.226,0.112-0.339,0.336-0.339h0.559c0.224,0,0.336,0.113,0.336,0.339v0.892h2.909
	C70.065,37.229,70.176,37.342,70.176,37.568z"/>
<path fill="#61381A" d="M73.229,31.01c0.684-0.339,1.554-0.54,2.462-0.54c1.853,0,2.872,0.979,2.872,2.513
	c0,0.753-0.262,1.52-0.883,2.437c-0.484,0.729-1.642,1.721-3.183,3.279l-0.224,0.226h4.003c0.211,0,0.323,0.113,0.323,0.327v0.013
	c0,0.213-0.112,0.327-0.323,0.327H73.18c-0.212,0-0.324-0.113-0.324-0.327v-0.075c0-0.163,0.051-0.289,0.187-0.402
	c1.554-1.332,2.648-2.45,3.332-3.354c0.548-0.729,0.883-1.583,0.883-2.375c0-1.307-0.609-1.91-1.69-1.91
	c-0.672,0-1.344,0.201-2.126,0.653c-0.237,0.139-0.398,0.038-0.398-0.213v-0.214C73.042,31.186,73.105,31.073,73.229,31.01z"/>
<path fill="#61381A" d="M86.112,30.922v0.013c0,0.214-0.112,0.327-0.323,0.327h-3.493l-0.162,3.016
	c0.398-0.188,0.933-0.314,1.467-0.314c1.853,0,2.872,1.043,2.872,2.701c0,1.935-1.143,3.054-3.406,3.054
	c-0.758,0-1.467-0.151-2.064-0.402c-0.161-0.076-0.235-0.201-0.235-0.377v-0.176c0-0.263,0.161-0.339,0.385-0.226
	c0.721,0.377,1.306,0.515,1.915,0.515c1.367,0,2.126-0.766,2.126-2.387c0-1.407-0.646-2.073-1.766-2.073
	c-0.484,0-0.857,0.113-1.268,0.427c-0.124,0.101-0.236,0.151-0.398,0.151h-0.572c-0.21,0-0.322-0.126-0.311-0.34l0.224-3.92
	c0.013-0.201,0.124-0.314,0.324-0.314h4.363C86,30.595,86.112,30.708,86.112,30.922z"/>
<path fill="#61381A" d="M91.524,29.98c-0.062,0.201-0.137,0.452-0.236,0.741h7.037c0.224,0,0.336,0.113,0.336,0.339
	c0,0.213-0.112,0.327-0.336,0.327h-3.481v2.324h3.108c0.224,0,0.336,0.113,0.336,0.339c0,0.214-0.112,0.327-0.336,0.327h-3.108
	v2.751h4.041c0.223,0,0.335,0.113,0.335,0.339c0,0.227-0.112,0.339-0.335,0.339h-4.041v2.538c0,0.227-0.111,0.339-0.336,0.339
	h-0.608c-0.225,0-0.336-0.113-0.336-0.339v-2.538h-5.172c-0.224,0-0.336-0.113-0.336-0.339c0-0.226,0.112-0.339,0.336-0.339h1.803
	V34.05c0-0.226,0.111-0.339,0.335-0.339h3.034v-2.324h-2.536c-0.448,1.13-1.021,2.211-1.716,3.292
	c-0.124,0.188-0.286,0.201-0.46,0.075l-0.348-0.251c-0.175-0.125-0.2-0.289-0.088-0.477c0.809-1.269,1.468-2.701,1.965-4.31
	c0.063-0.214,0.198-0.289,0.398-0.251l0.509,0.101C91.511,29.615,91.598,29.767,91.524,29.98z M93.563,34.377h-2.138v2.751h2.138
	V34.377z"/>
<path fill="#61381A" d="M25.218,123.56v-7.152h-0.021l-1.301,0.758l-0.21-0.661l1.638-0.928h0.75v7.982H25.218z"/>
<path fill="#61381A" d="M32.304,119.787c-0.432,0.554-1.046,0.885-1.817,0.885c-1.352,0-2.186-1.065-2.186-2.419
	c0-1.461,0.95-2.804,2.503-2.804c1.479,0,2.42,1.3,2.42,3.336c0,2.654-1.331,4.498-3.359,4.818c-0.37,0.064-0.708,0.085-0.94,0.075
	v-0.736c0.223,0.022,0.476-0.011,0.813-0.053c1.332-0.192,2.336-1.279,2.598-3.102H32.304z M29.188,118.198
	c0,1.077,0.604,1.801,1.512,1.801c0.856,0,1.636-0.66,1.636-1.3c0-1.534-0.559-2.568-1.605-2.568
	C29.812,116.131,29.188,117.005,29.188,118.198z"/>
<path fill="#61381A" d="M38.429,119.787c-0.434,0.554-1.047,0.885-1.817,0.885c-1.354,0-2.188-1.065-2.188-2.419
	c0-1.461,0.953-2.804,2.506-2.804c1.479,0,2.42,1.3,2.42,3.336c0,2.654-1.332,4.498-3.36,4.818
	c-0.369,0.064-0.706,0.085-0.939,0.075v-0.736c0.222,0.022,0.474-0.011,0.813-0.053c1.332-0.192,2.335-1.279,2.599-3.102H38.429z
	 M35.313,118.198c0,1.077,0.603,1.801,1.511,1.801c0.856,0,1.637-0.66,1.637-1.3c0-1.534-0.559-2.568-1.605-2.568
	C35.936,116.131,35.313,117.005,35.313,118.198z"/>
<path fill="#61381A" d="M44.747,115.577v0.735h-2.844l-0.327,2.26c0.167-0.022,0.338-0.043,0.611-0.043
	c1.407,0,2.663,0.841,2.663,2.452c0,1.577-1.162,2.707-2.726,2.707c-0.792,0-1.459-0.235-1.817-0.47l0.255-0.692
	c0.294,0.202,0.875,0.447,1.563,0.447c0.992,0,1.849-0.735,1.837-1.887c0-1.097-0.694-1.865-2.174-1.865
	c-0.424,0-0.751,0.033-1.015,0.075l0.496-3.72H44.747z"/>
<path fill="#61381A" d="M55.942,121.323v0.702h-3.953v2.44h-0.716v-2.44h-5.01v-0.702h1.775v-2.932h3.234v-1.749h-2.728
	c-0.507,0.842-1.088,1.599-1.69,2.153c-0.126-0.127-0.401-0.361-0.57-0.469c0.982-0.854,1.911-2.323,2.463-3.805l0.896,0.288
	c-0.043,0.096-0.136,0.117-0.243,0.096c-0.138,0.352-0.296,0.693-0.476,1.035h6.509v0.703h-3.445v1.749h3.213v0.682h-3.213v2.25
	H55.942z M48.756,121.323h2.517v-2.25h-2.517V121.323z"/>
<path fill="#61381A" d="M25.218,142.011v-7.151h-0.021l-1.301,0.757l-0.21-0.662l1.638-0.927h0.75v7.982H25.218z"/>
<path fill="#61381A" d="M32.304,138.239c-0.432,0.553-1.046,0.884-1.817,0.884c-1.352,0-2.186-1.066-2.186-2.419
	c0-1.461,0.95-2.804,2.503-2.804c1.479,0,2.42,1.301,2.42,3.336c0,2.653-1.331,4.498-3.359,4.817
	c-0.37,0.063-0.708,0.085-0.94,0.074v-0.735c0.223,0.021,0.476-0.011,0.813-0.054c1.332-0.191,2.336-1.279,2.598-3.101H32.304z
	 M29.188,136.65c0,1.077,0.604,1.8,1.512,1.8c0.856,0,1.636-0.66,1.636-1.299c0-1.534-0.559-2.569-1.605-2.569
	C29.812,134.583,29.188,135.456,29.188,136.65z"/>
<path fill="#61381A" d="M38.429,138.239c-0.434,0.553-1.047,0.884-1.817,0.884c-1.354,0-2.188-1.066-2.188-2.419
	c0-1.461,0.953-2.804,2.506-2.804c1.479,0,2.42,1.301,2.42,3.336c0,2.653-1.332,4.498-3.36,4.817
	c-0.369,0.063-0.706,0.085-0.939,0.074v-0.735c0.222,0.021,0.474-0.011,0.813-0.054c1.332-0.191,2.335-1.279,2.599-3.101H38.429z
	 M35.313,136.65c0,1.077,0.603,1.8,1.511,1.8c0.856,0,1.637-0.66,1.637-1.299c0-1.534-0.559-2.569-1.605-2.569
	C35.936,134.583,35.313,135.456,35.313,136.65z"/>
<path fill="#61381A" d="M41.203,137.779c0.361-0.532,1.006-0.979,1.852-0.979c1.341,0,2.24,1.012,2.24,2.547
	c0,1.46-0.888,2.793-2.431,2.793c-1.541,0-2.578-1.291-2.578-3.358c0-2.142,0.994-4.38,3.562-4.807
	c0.295-0.043,0.56-0.075,0.74-0.075l0.01,0.735c-2.198,0-3.244,1.609-3.424,3.144H41.203z M44.407,139.411
	c0-1.226-0.654-1.94-1.605-1.94c-0.931,0-1.638,0.917-1.638,1.514c0.01,1.459,0.623,2.462,1.722,2.462
	C43.805,141.447,44.407,140.615,44.407,139.411z"/>
<path fill="#61381A" d="M56.025,139.773v0.703h-3.95v2.441h-0.719v-2.441h-5.008v-0.703h1.773v-2.931h3.234v-1.748h-2.727
	c-0.508,0.842-1.088,1.598-1.689,2.152c-0.127-0.128-0.402-0.362-0.571-0.469c0.981-0.852,1.913-2.323,2.463-3.805l0.897,0.288
	c-0.043,0.096-0.138,0.117-0.242,0.096c-0.139,0.352-0.299,0.693-0.477,1.034h6.507v0.704h-3.442v1.748h3.212v0.682h-3.212v2.249
	H56.025z M48.841,139.773h2.515v-2.249h-2.515V139.773z"/>
<path fill="#61381A" d="M81.549,117.123l0.94,0.064c-0.01,0.075-0.073,0.127-0.211,0.149v6.949h-0.729v-0.863h-7.006v0.906h-0.717
	v-7.195l0.93,0.064c-0.012,0.075-0.063,0.128-0.213,0.15v5.35h3.074v-7.918l0.952,0.064c-0.011,0.075-0.074,0.127-0.21,0.149v7.706
	h3.189V117.123z"/>
<path fill="#61381A" d="M93.114,118.583l0.39,0.042c-0.137,0.544-0.674,1.961-1.046,2.611c-0.454-0.107-0.517-0.15-0.58-0.181
	c0.231-0.448,0.506-1.129,0.72-1.78h-1.396v4.285c0,0.863-0.37,0.885-2.083,0.885c-0.031-0.202-0.138-0.501-0.242-0.714
	c0.424,0.021,0.803,0.032,1.067,0.032c0.486,0,0.549,0,0.549-0.224v-4.263h-1.9v0.235h-2.009v1.193h2.018v0.661h-2.018v1.557
	l2.241-0.32l0.021,0.608c-1.808,0.309-3.72,0.607-4.892,0.799c-0.023,0.085-0.085,0.128-0.158,0.149l-0.223-0.831
	c0.624-0.075,1.438-0.192,2.322-0.31v-1.652h-1.941v-0.661h1.941v-1.193H83.93v-4.402h4.662v3.486h3.042
	c-0.581-0.565-1.511-1.269-2.346-1.717l0.464-0.448c0.393,0.204,0.806,0.458,1.195,0.726c0.443-0.373,0.909-0.885,1.257-1.375
	h-3.317v-0.65h3.855l0.139-0.043l0.538,0.341c-0.03,0.043-0.095,0.075-0.148,0.097c-0.433,0.638-1.15,1.438-1.839,1.992
	c0.359,0.277,0.667,0.555,0.889,0.789l-0.264,0.288h0.907L93.114,118.583z M84.544,115.716v1.3h1.384v-1.3H84.544z M84.544,117.591
	v1.323h1.384v-1.323H84.544z M87.958,117.016v-1.3h-1.406v1.3H87.958z M87.958,118.914v-1.323h-1.406v1.323H87.958z"/>
<path fill="#61381A" d="M104,121.673h-4.077c0.695,1.29,2.102,1.929,4.214,2.142c-0.158,0.16-0.347,0.458-0.432,0.66
	c-2.304-0.309-3.761-1.129-4.512-2.802h-0.117c-0.518,1.396-1.647,2.323-4.489,2.792c-0.054-0.192-0.232-0.49-0.36-0.639
	c2.462-0.362,3.551-1.056,4.079-2.153h-3.951v-0.65h4.184c0.096-0.32,0.148-0.671,0.201-1.055h-4.333v-0.661h4.374v-0.97h-3.328
	v-0.628h3.328v-0.938h-3.898v-0.661h2.293c-0.159-0.405-0.52-0.927-0.856-1.3l0.594-0.255c0.41,0.405,0.802,0.98,0.961,1.386
	l-0.371,0.17h3.085c-0.104-0.054-0.21-0.106-0.285-0.127c0.329-0.384,0.751-1.002,0.983-1.428l0.833,0.33
	c-0.03,0.064-0.104,0.085-0.211,0.085c-0.23,0.331-0.601,0.789-0.919,1.141h2.475v0.661H99.5v0.938h3.423v0.628H99.5v0.97h4.415
	v0.661h-4.247c-0.022,0.053-0.106,0.096-0.212,0.117c-0.051,0.331-0.105,0.639-0.178,0.938H104V121.673z"/>
<path fill="#61381A" d="M106.753,121.3c-0.496,0.32-1.014,0.619-1.53,0.874c-0.098-0.17-0.278-0.437-0.414-0.586
	c1.826-0.852,3.658-2.313,4.502-3.571l1.045,0.064c-0.021,0.075-0.104,0.128-0.211,0.139c1.026,1.225,2.916,2.558,4.543,3.24
	c-0.157,0.17-0.338,0.437-0.455,0.639c-0.505-0.246-1.046-0.543-1.574-0.885v3.208h-0.718v-0.331h-4.489v0.383h-0.698V121.3z
	 M105.972,116.302v1.247h-0.688v-1.908h4.027v-1.087l0.941,0.063c-0.014,0.075-0.076,0.128-0.213,0.139v0.885h4.09v1.908h-0.72
	v-1.247H105.972z M108.74,117.197c-0.043,0.064-0.115,0.096-0.231,0.096c-0.688,0.821-1.755,1.673-2.716,2.207
	c-0.107-0.139-0.328-0.404-0.465-0.522c0.919-0.479,1.965-1.279,2.6-2.1L108.74,117.197z M112.131,120.863
	c-0.96-0.67-1.858-1.427-2.438-2.142c-0.519,0.682-1.345,1.45-2.306,2.142H112.131z M107.452,123.442h4.489v-1.929h-4.489V123.442z
	 M113.483,119.477c-0.58-0.627-1.796-1.556-2.798-2.185l0.474-0.425c1.005,0.596,2.239,1.491,2.853,2.12L113.483,119.477z"/>
<path fill="#61381A" d="M125.089,121.258v0.627h-2.45v1.759c0,0.416-0.096,0.607-0.434,0.714c-0.327,0.106-0.909,0.106-1.849,0.106
	c-0.031-0.192-0.137-0.448-0.233-0.639c0.433,0.01,0.836,0.021,1.131,0.021c0.611,0,0.688,0,0.688-0.213v-1.749h-6.436v-0.627h6.436
	v-0.885h-5.306v-3.506h3.287v-0.789h-4.174v-0.618h4.174v-0.885l0.909,0.063c-0.013,0.075-0.064,0.128-0.2,0.149v0.672h4.258v0.618
	h-4.258v0.789h3.39v3.506h-1.902v0.01l0.719,0.032c-0.009,0.074-0.063,0.127-0.199,0.149v0.693H125.089z M118.856,123.975
	c-0.339-0.447-1.068-1.097-1.701-1.535l0.528-0.395c0.636,0.417,1.373,1.035,1.732,1.482L118.856,123.975z M117.314,117.411v0.938
	h2.609v-0.938H117.314z M117.314,118.87v0.96h2.609v-0.96H117.314z M123.325,117.411h-2.692v0.938h2.692V117.411z M123.325,119.83
	v-0.96h-2.692v0.96H123.325z"/>
<path fill="#61381A" d="M130.241,115.086v3.922h-3.084v5.457h-0.701v-9.379H130.241z M129.565,115.694h-2.408v1.023h2.408V115.694z
	 M127.157,118.401h2.408v-1.119h-2.408V118.401z M135.205,115.086v8.356c0,0.97-0.368,1.002-2.407,1.002
	c-0.032-0.202-0.158-0.533-0.265-0.746c0.455,0.021,0.887,0.021,1.216,0.021c0.686,0,0.751,0,0.751-0.277v-4.422h-3.214v-3.934
	H135.205z M134.5,115.694h-2.526v1.023h2.526V115.694z M131.973,118.412h2.526v-1.13h-2.526V118.412z"/>
<path fill="#61381A" d="M146.114,120.853v0.671h-4.384v2.068c0,0.896-0.509,0.906-2.461,0.906c-0.054-0.203-0.191-0.501-0.308-0.704
	c0.541,0.021,1.014,0.032,1.354,0.032c0.612,0,0.685,0,0.685-0.234v-2.068h-4.331v-0.671H141v-0.927l0.498,0.032
	c0.538-0.277,1.098-0.65,1.532-1.013h-4.597v-0.639h5.347l0.127-0.043l0.549,0.352c-0.03,0.053-0.097,0.085-0.156,0.096
	c-0.626,0.597-1.63,1.289-2.569,1.759v0.383H146.114z M137.61,117.027v1.715h-0.677v-2.366h1.648
	c-0.199-0.416-0.593-0.98-0.939-1.396l0.591-0.288c0.424,0.469,0.877,1.098,1.067,1.524l-0.307,0.16h2.239
	c-0.157-0.479-0.506-1.14-0.835-1.63l0.613-0.234c0.382,0.533,0.761,1.247,0.897,1.705l-0.369,0.16h1.85
	c0.411-0.49,0.929-1.236,1.214-1.748c0.667,0.245,0.75,0.298,0.836,0.352c-0.032,0.064-0.117,0.096-0.222,0.085
	c-0.266,0.384-0.646,0.885-1.015,1.311h1.723v2.366h-0.699v-1.715H137.61z"/>
<path fill="#61381A" d="M149.786,118.444c0.33,0.406,1.216,1.684,1.415,1.993l-0.411,0.564c-0.181-0.373-0.646-1.129-1.004-1.704
	v5.147h-0.665v-5.275c-0.381,1.257-0.898,2.483-1.437,3.229c-0.073-0.192-0.254-0.469-0.381-0.629
	c0.688-0.927,1.395-2.674,1.732-4.198h-1.532v-0.672h1.617v-2.344l0.876,0.063c-0.01,0.064-0.074,0.118-0.211,0.139v2.142h1.342
	v0.672h-1.342V118.444z M152.923,119.169c0.285,0.81,0.697,1.577,1.195,2.25c0.496-0.694,0.854-1.472,1.076-2.303l0.877,0.202
	c-0.03,0.075-0.104,0.128-0.231,0.128c-0.274,0.896-0.695,1.759-1.279,2.516c0.751,0.842,1.669,1.513,2.728,1.897
	c-0.159,0.149-0.392,0.426-0.497,0.629c-1.034-0.438-1.934-1.12-2.685-1.973c-0.761,0.821-1.722,1.502-2.928,1.982
	c-0.072-0.16-0.264-0.426-0.379-0.565c1.194-0.458,2.146-1.129,2.873-1.949c-0.57-0.779-1.033-1.664-1.373-2.633L152.923,119.169z
	 M153.453,117.528c-0.032,0.053-0.093,0.084-0.2,0.084c-0.379,0.746-1.046,1.673-1.766,2.313c-0.116-0.128-0.337-0.32-0.495-0.437
	c0.685-0.587,1.33-1.493,1.68-2.281L153.453,117.528z M157.129,116.174v0.661h-5.916v-0.661h2.566v-1.62l0.908,0.063
	c-0.009,0.075-0.063,0.128-0.21,0.149v1.407H157.129z M156.675,119.851c-0.317-0.651-1.077-1.641-1.776-2.356l0.562-0.319
	c0.697,0.703,1.478,1.662,1.807,2.313L156.675,119.851z"/>
<path fill="#61381A" d="M178.198,121.098v0.692h-4.459v2.675h-0.729v-2.675h-4.365v-0.692h4.365v-0.757l0.938,0.064
	c-0.008,0.075-0.073,0.128-0.209,0.15v0.543H178.198z M172.088,117.037c-0.021,0.074-0.094,0.117-0.221,0.117
	c-0.106,0.319-0.233,0.64-0.379,0.938c0.559,0.383,1.214,0.884,1.562,1.225l-0.454,0.501c-0.307-0.319-0.875-0.788-1.404-1.183
	c-0.508,0.831-1.152,1.535-1.882,2.026c-0.114-0.139-0.368-0.352-0.518-0.48c1.09-0.682,1.997-1.918,2.431-3.378L172.088,117.037z
	 M177.879,115.982v0.692h-8.949v-0.692h4.079v-1.418l0.938,0.053c-0.008,0.075-0.073,0.128-0.209,0.149v1.215H177.879z
	 M177.445,120.586c-0.474-0.49-1.393-1.236-2.219-1.832c-0.453,0.649-1.022,1.192-1.658,1.587c-0.104-0.148-0.348-0.373-0.496-0.479
	c1.056-0.607,1.935-1.716,2.346-3.048l0.855,0.224c-0.021,0.074-0.096,0.107-0.211,0.107c-0.127,0.373-0.284,0.725-0.476,1.054
	c0.835,0.576,1.872,1.354,2.41,1.876L177.445,120.586z"/>
<path fill="#61381A" d="M188.662,121.864h-3.667c0.985,0.822,2.525,1.504,3.922,1.813c-0.159,0.149-0.372,0.436-0.478,0.628
	c-1.468-0.416-3.094-1.269-4.13-2.281v2.44h-0.708v-2.387c-1.035,0.97-2.664,1.78-4.1,2.195c-0.096-0.181-0.308-0.458-0.465-0.607
	c1.373-0.32,2.895-1.002,3.878-1.802h-3.604v-0.618h4.29v-0.863h-3.276v-0.576h3.276v-0.853h-3.813v-0.597h2.407
	c-0.105-0.33-0.327-0.788-0.549-1.129l0.412-0.085h-2.704v-0.629h1.774c-0.159-0.448-0.539-1.119-0.886-1.62l0.601-0.212
	c0.38,0.49,0.782,1.172,0.94,1.62l-0.561,0.213h1.385v-1.96l0.899,0.053c-0.013,0.106-0.096,0.16-0.232,0.181v1.727h1.371v-1.96
	l0.921,0.053c-0.013,0.106-0.106,0.16-0.243,0.181v1.727h1.33c-0.135-0.053-0.295-0.117-0.392-0.148
	c0.308-0.459,0.677-1.173,0.868-1.664l0.834,0.288c-0.021,0.064-0.105,0.096-0.22,0.096c-0.225,0.416-0.563,1.002-0.858,1.428h1.733
	v0.629h-2.388l0.308,0.096c-0.034,0.074-0.117,0.107-0.225,0.096c-0.148,0.288-0.379,0.703-0.59,1.023h2.504v0.597h-3.92v0.853
	h3.402v0.576h-3.402v0.863h4.353V121.864z M185.04,118.294c0.188-0.309,0.432-0.778,0.59-1.15h-3.286
	c0.244,0.351,0.476,0.82,0.582,1.14l-0.331,0.075h2.612L185.04,118.294z"/>
<path fill="#61381A" d="M82.871,140.125h-4.078c0.697,1.29,2.102,1.93,4.216,2.143c-0.157,0.159-0.349,0.458-0.433,0.66
	c-2.305-0.309-3.763-1.129-4.514-2.803h-0.116c-0.52,1.396-1.648,2.324-4.49,2.792c-0.053-0.192-0.232-0.491-0.36-0.639
	c2.463-0.362,3.552-1.055,4.08-2.153h-3.952v-0.65h4.183c0.097-0.319,0.149-0.671,0.202-1.054h-4.331v-0.661h4.374v-0.971h-3.329
	v-0.628h3.329v-0.939h-3.899v-0.661h2.292c-0.156-0.404-0.517-0.926-0.854-1.299l0.592-0.256c0.413,0.405,0.802,0.98,0.961,1.386
	l-0.369,0.169h3.085c-0.104-0.053-0.212-0.106-0.287-0.126c0.328-0.384,0.752-1.002,0.985-1.429l0.834,0.33
	c-0.032,0.064-0.104,0.085-0.211,0.085c-0.233,0.331-0.602,0.789-0.921,1.14h2.474v0.661h-3.963v0.939h3.423v0.628h-3.423v0.971
	h4.417v0.661h-4.247c-0.021,0.052-0.105,0.096-0.212,0.116c-0.054,0.332-0.106,0.64-0.181,0.938h4.725V140.125z"/>
<path fill="#61381A" d="M85.622,139.752c-0.496,0.319-1.014,0.618-1.531,0.873c-0.095-0.169-0.274-0.436-0.413-0.586
	c1.829-0.852,3.656-2.312,4.502-3.57l1.047,0.064c-0.022,0.074-0.107,0.128-0.212,0.138c1.024,1.226,2.916,2.559,4.542,3.241
	c-0.158,0.169-0.338,0.436-0.452,0.639c-0.507-0.246-1.047-0.544-1.575-0.885v3.208h-0.718v-0.331H86.32v0.383h-0.698V139.752z
	 M84.84,134.753V136h-0.688v-1.908h4.026v-1.087l0.939,0.064c-0.01,0.074-0.072,0.127-0.212,0.138v0.885h4.09V136h-0.719v-1.247
	H84.84z M87.607,135.647c-0.04,0.064-0.113,0.097-0.232,0.097c-0.687,0.82-1.753,1.674-2.712,2.205
	c-0.106-0.138-0.329-0.404-0.466-0.521c0.918-0.48,1.964-1.279,2.598-2.1L87.607,135.647z M90.999,139.314
	c-0.96-0.671-1.859-1.428-2.438-2.142c-0.518,0.682-1.343,1.45-2.304,2.142H90.999z M86.32,141.894h4.491v-1.929H86.32V141.894z
	 M92.353,137.929c-0.582-0.629-1.799-1.556-2.8-2.185l0.474-0.426c1.006,0.597,2.24,1.492,2.854,2.121L92.353,137.929z"/>
<path fill="#61381A" d="M95.203,137.587v1.078h2.65v3.218h-2.65v0.715h-0.659v-7.962h0.889c0.19-0.49,0.39-1.15,0.497-1.63
	l0.898,0.181c-0.021,0.085-0.095,0.118-0.222,0.128c-0.128,0.373-0.318,0.883-0.518,1.321h1.669v2.952H95.203z M97.114,135.265
	h-1.911v1.694h1.911V135.265z M97.197,139.304h-1.994v1.951h1.994V139.304z M103.958,134.263h-2.576v1.684h2.175v4.647
	c0,0.746-0.348,0.767-1.489,0.767c-0.031-0.181-0.127-0.447-0.212-0.628c0.212,0,0.402,0.01,0.562,0.01c0.421,0,0.473,0,0.473-0.16
	v-3.976h-1.508v6.31h-0.677v-6.31h-1.427v4.829h-0.655v-5.489h2.082v-1.684h-2.547v-0.661h5.8V134.263z"/>
<path fill="#61381A" d="M104.746,136.128c0.771-0.202,1.89-0.533,3.011-0.852l0.084,0.575c-0.972,0.32-1.985,0.65-2.629,0.841
	c-0.013,0.085-0.065,0.139-0.129,0.171L104.746,136.128z M108.75,141.734c-0.042,0.053-0.126,0.085-0.232,0.064
	c-0.844,0.426-2.136,0.874-3.182,1.14c-0.125-0.138-0.348-0.395-0.486-0.522c1.038-0.224,2.358-0.629,3.14-1.067L108.75,141.734z
	 M105.612,133.272c0.751,0.202,1.733,0.564,2.249,0.843l-0.314,0.564c-0.508-0.288-1.49-0.683-2.251-0.917L105.612,133.272z
	 M106.183,141.201v-4.369h6.941v4.369H106.183z M106.869,137.344v0.777h5.549v-0.777H106.869z M106.869,138.611v0.789h5.549v-0.789
	H106.869z M106.869,139.89v0.81h5.549v-0.81H106.869z M111.379,134.379c0.256,0.875,0.869,1.685,3.076,2.025
	c-0.137,0.139-0.306,0.405-0.38,0.586c-1.861-0.33-2.643-1.065-3.032-1.875c-0.382,0.81-1.143,1.353-2.779,1.684
	c-0.054-0.149-0.211-0.395-0.328-0.512c1.765-0.321,2.431-0.885,2.684-1.909h-1.214c-0.265,0.331-0.592,0.651-0.972,0.949
	c-0.128-0.138-0.372-0.288-0.54-0.363c0.814-0.564,1.354-1.311,1.638-1.96l0.793,0.118c-0.011,0.074-0.072,0.117-0.201,0.127
	c-0.084,0.181-0.19,0.373-0.317,0.565h3.846l0.128-0.011l0.423,0.053c-0.138,0.405-0.74,1.258-1.11,1.608l-0.57-0.211
	c0.231-0.224,0.477-0.555,0.688-0.875H111.379z M113.579,142.938c-0.688-0.352-1.848-0.799-3.042-1.183l0.581-0.373
	c1.172,0.362,2.461,0.82,3.243,1.172L113.579,142.938z"/>
<path fill="#61381A" d="M123.345,134.177c0.17,0,0.191,0,0.318-0.032l0.465,0.234c-0.021,0.055-0.064,0.085-0.106,0.097
	c-0.39,1.098-0.992,2.036-1.731,2.824c0.729,0.649,1.627,1.205,2.706,1.546c-0.15,0.138-0.353,0.427-0.457,0.608
	c-0.17-0.064-0.327-0.128-0.485-0.203v3.634h-0.696v-0.458h-3.129v0.501h-0.664v-3.613c-0.286,0.14-0.571,0.267-0.867,0.374
	c-0.084-0.181-0.264-0.448-0.403-0.586l0.075-0.021c-0.18-0.351-0.569-0.959-0.897-1.439v5.255h-0.688v-5.309
	c-0.4,1.269-0.949,2.516-1.5,3.262c-0.084-0.191-0.262-0.469-0.391-0.629c0.719-0.916,1.458-2.664,1.809-4.198h-1.555v-0.671h1.637
	v-2.345l0.889,0.064c-0.01,0.074-0.063,0.117-0.2,0.138v2.143h1.426v0.671h-1.426v0.767c0.315,0.363,1.183,1.492,1.384,1.781
	c-0.189,0.255-0.295,0.382-0.359,0.458c0.993-0.362,1.997-0.959,2.843-1.727c-0.499-0.554-0.898-1.129-1.205-1.705
	c-0.349,0.48-0.739,0.917-1.131,1.257c-0.115-0.127-0.358-0.34-0.507-0.458c0.91-0.747,1.775-2.046,2.271-3.4l0.836,0.278
	c-0.033,0.063-0.106,0.106-0.232,0.096c-0.107,0.277-0.232,0.543-0.371,0.81H123.345z M123.463,138.963
	c-0.625-0.341-1.173-0.747-1.65-1.194c-0.494,0.459-1.035,0.863-1.605,1.194H123.463z M120.229,141.787h3.129v-2.195h-3.129V141.787
	z M120.653,134.817l-0.119,0.182c0.299,0.618,0.721,1.246,1.279,1.833c0.552-0.586,1.017-1.27,1.344-2.015H120.653z"/>
<path fill="#61381A" d="M130.97,134.22h-0.983v8.697H129.3v-2.196c-1.268,0.224-2.525,0.448-3.35,0.576
	c-0.021,0.085-0.085,0.139-0.158,0.149l-0.275-0.822c0.275-0.031,0.592-0.073,0.938-0.127v-6.278h-0.918v-0.671h5.433V134.22z
	 M129.3,135.766v-1.545h-2.164v1.545H129.3z M129.3,137.993v-1.567h-2.164v1.567H129.3z M127.136,138.654v1.759
	c0.674-0.097,1.424-0.214,2.164-0.32v-1.439H127.136z M134.562,134.561l0.443,0.15c-0.01,0.053-0.053,0.106-0.082,0.139
	c-0.285,2.152-0.879,3.911-1.705,5.286c0.583,0.949,1.312,1.705,2.21,2.206c-0.168,0.127-0.401,0.405-0.505,0.585
	c-0.858-0.522-1.556-1.236-2.126-2.13c-0.634,0.895-1.372,1.598-2.197,2.12c-0.106-0.17-0.317-0.436-0.474-0.575
	c0.844-0.49,1.614-1.247,2.259-2.238c-0.664-1.279-1.133-2.835-1.446-4.582l0.653-0.129c0.265,1.482,0.656,2.846,1.226,3.997
	c0.603-1.13,1.067-2.515,1.332-4.104h-3.54v-0.704h3.827L134.562,134.561z"/>
<path fill="#61381A" d="M137.568,138.035c-0.381,0.501-0.782,0.959-1.163,1.343c-0.073-0.148-0.274-0.458-0.39-0.607
	c0.844-0.81,1.849-2.142,2.48-3.41l0.793,0.309c-0.041,0.085-0.146,0.106-0.241,0.096c-0.232,0.438-0.507,0.885-0.805,1.321
	l0.202,0.064c-0.021,0.063-0.084,0.117-0.21,0.127v5.638h-0.667V138.035z M139.079,133.335c-0.042,0.096-0.148,0.096-0.23,0.085
	c-0.574,0.735-1.576,1.726-2.398,2.398c-0.086-0.139-0.276-0.395-0.403-0.522c0.783-0.597,1.743-1.535,2.25-2.281L139.079,133.335z
	 M145.852,139.283v0.64h-1.629v2.174c0,0.81-0.412,0.831-2.027,0.831c-0.031-0.202-0.149-0.468-0.243-0.66
	c0.37,0.011,0.718,0.021,0.961,0.021c0.519,0,0.592,0,0.592-0.202v-2.163h-4.396v-0.64h4.396v-0.98h-4.151v-0.618h6.297v0.618
	h-1.237c-0.021,0.053-0.074,0.085-0.19,0.106v0.874H145.852z M144.963,133.335v3.517h-4.977v-3.517H144.963z M141.424,142.064
	c-0.254-0.436-0.824-1.097-1.321-1.566l0.486-0.331c0.507,0.447,1.089,1.087,1.363,1.513L141.424,142.064z M144.257,134.817v-0.927
	h-3.583v0.927H144.257z M144.257,136.299v-0.948h-3.583v0.948H144.257z"/>
<path fill="#61381A" d="M250.426,158.318c1.152-0.969,2.092-2.749,2.092-4.902c0-2.207-0.973-3.965-2.092-4.902v-0.053h0.635
	c1.078,0.97,2.018,2.76,2.018,4.956s-0.939,3.985-2.018,4.957h-0.635V158.318z"/>
<path fill="#61381A" d="M241.832,154.247c-0.486,0.362-1.004,0.704-1.521,0.992c-0.096-0.151-0.274-0.395-0.434-0.543
	c1.85-0.992,3.667-2.708,4.501-4.2l1.014,0.054c-0.029,0.085-0.104,0.139-0.209,0.148c1.024,1.515,2.926,3.07,4.564,3.859
	c-0.17,0.171-0.349,0.416-0.465,0.618c-0.477-0.266-0.983-0.576-1.469-0.938v4.125h-0.719v-0.437h-4.563v0.469h-0.699V154.247z
	 M243.837,149.057c-0.029,0.064-0.125,0.096-0.241,0.074c-0.719,0.971-1.806,1.994-2.789,2.644c-0.127-0.128-0.369-0.362-0.528-0.48
	c0.961-0.597,2.061-1.587,2.726-2.58L243.837,149.057z M247.58,154.067c-1.118-0.843-2.177-1.854-2.831-2.835
	c-0.583,0.927-1.554,1.95-2.674,2.835H247.58z M242.531,157.286h4.563v-2.579h-4.563V157.286z M246.364,148.685
	c1.038,0.735,2.316,1.811,2.929,2.558l-0.592,0.447c-0.583-0.746-1.829-1.844-2.886-2.611L246.364,148.685z"/>
<path fill="#61381A" d="M230.074,149.216h8.747v9.071h-0.73v-0.671h-7.312v0.671h-0.705V149.216z M234.012,149.92h-3.233v3.09h3.233
	V149.92z M230.779,153.725v3.176h3.233v-3.176H230.779z M238.09,153.011v-3.09h-3.36v3.09H238.09z M234.73,156.901h3.36v-3.176
	h-3.36V156.901z"/>
<path fill="#61381A" d="M227.154,155.431h-0.717v-0.49h-2.125v0.543h-0.718v-3.591h-2.104v4.965h6.984v0.694h-6.984v0.82h-0.717
	v-6.48h-1.628v-0.694h1.628v-2.45l0.928,0.063c-0.009,0.076-0.062,0.129-0.211,0.15v2.238h2.104v-2.685l0.93,0.064
	c-0.012,0.074-0.074,0.127-0.212,0.15v2.471h2.125v-2.557l0.928,0.063c-0.008,0.075-0.074,0.128-0.211,0.149v2.344h1.683v0.694
	h-1.683V155.431z M224.312,154.258h2.125v-2.365h-2.125V154.258z"/>
<path fill="#61381A" d="M217.142,153.416c0,0.608-0.486,1.097-1.089,1.097c-0.602,0-1.088-0.489-1.088-1.097
	c0-0.607,0.486-1.097,1.088-1.097C216.678,152.319,217.142,152.83,217.142,153.416z"/>
<path fill="#61381A" d="M206.72,151.284l0.505,0.234c-0.021,0.043-0.064,0.096-0.116,0.128c-0.549,2.685-1.85,4.667-3.424,5.745
	c-0.126-0.181-0.401-0.458-0.569-0.576c1.424-0.895,2.608-2.547,3.147-4.775h-2.862v-0.723h3.19L206.72,151.284z M208.513,150.454
	c0.232,0.884,0.552,1.736,0.932,2.526c0.887-0.757,1.965-1.876,2.62-2.74l0.751,0.565c-0.054,0.064-0.148,0.074-0.233,0.064
	c-0.729,0.81-1.912,1.951-2.83,2.696c0.845,1.493,1.974,2.696,3.422,3.315c-0.178,0.149-0.425,0.436-0.552,0.65
	c-1.922-0.927-3.243-2.824-4.109-5.137v4.934c0,0.97-0.442,1.055-2.429,1.055c-0.045-0.213-0.182-0.576-0.298-0.778
	c0.402,0.011,0.773,0.011,1.068,0.011c0.887,0,0.919,0,0.919-0.288v-8.836l0.951,0.054c-0.011,0.084-0.063,0.139-0.212,0.148
	V150.454z"/>
<path fill="#61381A" d="M202.276,149.345c-0.053,0.105-0.17,0.138-0.296,0.127c-1.606,3.997-4.215,6.833-7.154,8.495
	c-0.125-0.16-0.379-0.415-0.591-0.566c2.874-1.598,5.495-4.348,7.005-8.452L202.276,149.345z"/>
<path fill="#61381A" d="M189.226,150.773c-0.032,0.074-0.117,0.127-0.212,0.139c1.035,1.226,2.927,2.344,4.596,2.889
	c-0.168,0.181-0.326,0.446-0.424,0.638c-1.646-0.618-3.601-1.822-4.637-3.047c-0.908,1.14-2.727,2.396-4.554,3.144
	c-0.085-0.17-0.254-0.438-0.379-0.597c1.868-0.704,3.685-1.994,4.563-3.219L189.226,150.773z M186.308,151.284v-1.023H183.9v-0.671
	h2.408v-1.12l0.909,0.053c-0.01,0.075-0.063,0.128-0.2,0.149v0.917h3.106v-1.12l0.919,0.053c-0.011,0.085-0.073,0.128-0.211,0.149
	v0.917h2.473v0.671h-2.473v1.023h-0.708v-1.023h-3.106v1.023H186.308z M187.017,155.761c-0.031,0.064-0.105,0.107-0.232,0.096
	c-0.519,0.799-1.383,1.621-2.196,2.142c-0.128-0.138-0.382-0.362-0.552-0.468c0.782-0.469,1.639-1.247,2.125-2.068L187.017,155.761z
	 M192.025,154.866h-3.118v3.528h-0.717v-3.528h-3.021v-0.672h3.021v-1.342l0.93,0.063c-0.011,0.075-0.074,0.128-0.213,0.149v1.13
	h3.118V154.866z M192.447,157.998c-0.475-0.585-1.456-1.502-2.282-2.142l0.562-0.394c0.813,0.618,1.828,1.503,2.313,2.09
	L192.447,157.998z"/>
<path fill="#61381A" d="M175.543,148.78c-0.034,0.085-0.128,0.107-0.222,0.096c-0.433,0.693-1.237,1.674-1.935,2.323
	c-0.084-0.148-0.275-0.394-0.403-0.531c0.646-0.576,1.375-1.482,1.755-2.197L175.543,148.78z M174.201,153.641
	c-0.265,0.405-0.55,0.777-0.824,1.087c-0.086-0.15-0.273-0.459-0.393-0.598c0.709-0.788,1.479-2.099,1.966-3.368l0.824,0.288
	c-0.032,0.074-0.104,0.107-0.23,0.107c-0.19,0.458-0.424,0.927-0.678,1.385l0.202,0.064c-0.013,0.064-0.075,0.117-0.202,0.128v5.639
	h-0.665V153.641z M178.11,154.833v1.781c0.518-0.063,1.046-0.14,1.575-0.214l0.021,0.618c-1.5,0.235-3.085,0.469-4.025,0.598
	c-0.011,0.085-0.084,0.127-0.147,0.149l-0.18-0.811l0.538-0.063v-3.325l0.771,0.053c-0.011,0.064-0.063,0.118-0.191,0.128v3.08
	l0.994-0.128v-3.943h-1.849v-0.662h1.849v-1.651h-0.813c-0.149,0.49-0.327,0.949-0.517,1.31c-0.128-0.106-0.361-0.255-0.507-0.34
	c0.357-0.693,0.665-1.855,0.854-2.953l0.806,0.224c-0.021,0.053-0.097,0.105-0.224,0.095c-0.063,0.331-0.138,0.671-0.222,1.002
	h2.651v0.661h-1.384v1.651h1.543v0.662h-1.543v1.45h1.322v0.627H178.11z M182.602,149.313v6.555c0,0.757-0.371,0.821-1.429,0.799
	c-0.021-0.171-0.127-0.469-0.21-0.65c0.2,0,0.381,0.011,0.527,0.011c0.423,0,0.466,0,0.466-0.171v-5.904h-1.352v8.43h-0.667v-9.07
	H182.602z"/>
<path fill="#61381A" d="M172.284,148.514c-1.152,0.97-2.091,2.75-2.091,4.902c0,2.207,0.971,3.965,2.091,4.902v0.055h-0.634
	c-1.067-0.971-2.019-2.761-2.019-4.957s0.951-3.985,2.019-4.956h0.634V148.514z"/>
<path fill="#61381A" d="M163.845,150.261h-0.887c-0.297,0.799-0.74,1.481-1.301,2.058c0.688,0.522,1.49,0.916,2.367,1.15
	c-0.148,0.138-0.338,0.417-0.444,0.607c-0.897-0.276-1.711-0.725-2.407-1.3c-0.707,0.597-1.553,1.055-2.507,1.385
	c-0.073-0.128-0.21-0.319-0.326-0.469c-0.159,0.479-0.338,0.928-0.527,1.28l-0.508-0.256c0.223-0.459,0.443-1.162,0.624-1.802h-1.11
	v4.604c0,0.778-0.349,0.82-1.647,0.82c-0.031-0.182-0.129-0.479-0.233-0.671c0.274,0.01,0.54,0.022,0.738,0.022
	c0.425,0,0.466,0,0.466-0.171v-3.731c-0.42,1.099-1.013,2.186-1.626,2.814c-0.073-0.192-0.254-0.48-0.38-0.651
	c0.675-0.66,1.362-1.885,1.765-3.037h-1.681v-0.639h2.957c-0.526-0.501-1.562-1.151-2.429-1.545l0.443-0.458
	c0.338,0.148,0.696,0.33,1.046,0.522c0.444-0.32,0.889-0.746,1.226-1.151h-3.115v-0.629h3.666l0.127-0.032l0.525,0.33
	c-0.021,0.042-0.094,0.085-0.146,0.096c-0.413,0.564-1.089,1.226-1.744,1.705c0.371,0.234,0.687,0.47,0.918,0.683l-0.432,0.479
	h1.077l0.382,0.022c0,0.138-0.266,1.001-0.341,1.257c0.867-0.288,1.651-0.693,2.296-1.226c-0.414-0.426-0.784-0.906-1.079-1.428
	c-0.254,0.352-0.528,0.672-0.803,0.938c-0.137-0.127-0.392-0.32-0.561-0.425c0.752-0.662,1.438-1.791,1.818-2.953l0.866,0.255
	c-0.021,0.075-0.106,0.118-0.222,0.108c-0.097,0.267-0.211,0.532-0.351,0.799h3.498V150.261z M163,154.696l0.41,0.084
	c0,0.064-0.009,0.149-0.041,0.213c-0.191,1.993-0.379,2.782-0.677,3.08c-0.232,0.234-0.464,0.277-1.088,0.277
	c-0.221,0-0.485,0-0.75-0.021c-0.021-0.203-0.084-0.491-0.201-0.672c0.477,0.043,0.92,0.054,1.089,0.054
	c0.181,0,0.276-0.021,0.369-0.106c0.201-0.204,0.36-0.811,0.508-2.271h-1.721c-0.359,1.247-1.06,2.388-2.643,3.06
	c-0.075-0.16-0.274-0.406-0.423-0.533c1.341-0.533,1.997-1.46,2.345-2.526h-1.637v-0.617h1.796c0.086-0.374,0.136-0.768,0.182-1.151
	l0.906,0.085c-0.021,0.086-0.095,0.128-0.22,0.15c-0.044,0.308-0.086,0.606-0.149,0.916h1.785L163,154.696z M160.009,150.261
	l-0.041,0.074c0.295,0.577,0.696,1.098,1.185,1.557c0.442-0.469,0.813-1.002,1.065-1.631H160.009z"/>
<path fill="#61381A" d="M144.858,150.879v-0.842h-1.299v-0.575h1.299v-0.992l0.866,0.053c-0.01,0.075-0.062,0.118-0.2,0.139v0.799
	h1.511v-0.992l0.877,0.053c-0.01,0.075-0.072,0.128-0.21,0.139v0.799h1.31v0.575h-1.31v0.842h-0.667v-0.842h-1.511v0.842H144.858z
	 M152.866,151.018l0.372,0.021c0,0.064,0,0.17-0.012,0.245c-0.106,4.68-0.211,6.183-0.548,6.63c-0.232,0.33-0.498,0.393-1.143,0.393
	c-0.243,0-0.528-0.01-0.813-0.031c-0.01-0.203-0.073-0.491-0.19-0.672c0.518,0.042,0.982,0.042,1.174,0.042
	c0.18,0,0.274-0.021,0.367-0.16c0.256-0.319,0.373-1.747,0.478-5.787h-1.616c-0.117,2.857-0.539,5.254-2.24,6.715
	c-0.106-0.16-0.349-0.384-0.519-0.49c0.201-0.16,0.372-0.342,0.54-0.523c-1.775,0.225-3.626,0.449-4.776,0.577
	c-0.011,0.085-0.074,0.139-0.148,0.149l-0.221-0.756c0.633-0.055,1.467-0.139,2.377-0.235v-0.991h-1.913v-0.556h1.913v-0.852h-2.123
	v-0.565h2.123v-0.789h-1.936v-2.28h4.619v2.28h-2.018v0.789h2.175v0.565h-2.175v0.852h1.995v0.556h-1.995v0.927
	c0.729-0.075,1.488-0.149,2.229-0.235v0.405c1.035-1.332,1.331-3.26,1.415-5.542h-1.31v-0.671h1.331
	c0.021-0.789,0.021-1.619,0.021-2.482l0.921,0.053c-0.013,0.095-0.087,0.149-0.244,0.181c0,0.768-0.01,1.524-0.021,2.249h1.765
	L152.866,151.018z M144.637,152.841h1.31v-1.194h-1.31V152.841z M147.964,152.841v-1.194h-1.352v1.194H147.964z"/>
<path fill="#61381A" d="M135.583,149.259c-0.031,0.117-0.136,0.182-0.348,0.171c-0.369,1.737-0.56,3.645-0.56,4.795
	c0,0.8,0.031,1.609,0.138,2.11c0.199-0.522,0.654-1.641,0.803-2.015l0.444,0.47c-0.435,1.076-0.75,1.683-0.898,2.162
	c-0.053,0.182-0.084,0.353-0.084,0.503c0,0.116,0.021,0.222,0.053,0.33l-0.751,0.139c-0.339-1.013-0.465-2.25-0.465-3.667
	c0-1.396,0.223-3.346,0.559-5.189L135.583,149.259z M142.316,157.051c-0.381,0.021-0.772,0.031-1.162,0.031
	c-0.751,0-1.458-0.042-1.966-0.116c-1.3-0.191-1.902-0.917-1.902-1.77c0-0.735,0.402-1.354,0.993-2.057l0.686,0.298
	c-0.526,0.555-0.897,1.065-0.897,1.673c0,1.236,1.795,1.236,2.896,1.236c0.445,0,0.918-0.021,1.365-0.054L142.316,157.051z
	 M137.423,150.539c1.362-0.031,3.2-0.16,4.605-0.405l0.064,0.746c-1.311,0.224-3.436,0.363-4.649,0.395L137.423,150.539z"/>
<path fill="#61381A" d="M124.709,149.631c1.099,0.353,2.365,0.907,3.15,1.451l-0.403,0.67c-0.761-0.543-2.007-1.108-3.087-1.48
	L124.709,149.631z M124.669,157.018c3.75-1.172,6.243-3.293,7.509-6.245c0.225,0.181,0.466,0.319,0.688,0.436
	c-1.321,2.92-3.898,5.19-7.48,6.396c-0.01,0.096-0.074,0.202-0.148,0.245L124.669,157.018z"/>
<path fill="#61381A" d="M122.608,150.23v7.033h-0.763v-0.671h-5.819v0.693h-0.739v-7.056H122.608z M121.845,155.878v-4.935h-5.819
	v4.935H121.845z"/>
<path fill="#61381A" d="M113.498,151.967h-2.207v0.735c0,2.036-0.623,4.104-3.382,5.361c-0.136-0.171-0.359-0.385-0.55-0.533
	c2.686-1.173,3.182-3.069,3.182-4.817v-0.746h-3.412v2.654h-0.752v-2.654h-2.071v-0.725h2.071v-2.313l1.014,0.063
	c-0.008,0.107-0.104,0.203-0.262,0.224v2.026h3.412v-2.452l1.015,0.064c-0.011,0.095-0.097,0.181-0.265,0.202v2.186h2.207V151.967z"
	/>
<path fill="#61381A" d="M99.319,150.411c-0.042,0.096-0.125,0.17-0.264,0.17c-0.38,3.315-1.48,6.204-3.233,6.204
	c-0.887,0-1.689-0.896-1.689-2.579c0-2.559,1.975-4.701,4.755-4.701c3.052,0,4.373,1.95,4.373,4.028
	c0,2.537-1.458,3.763-4.016,4.359c-0.097-0.17-0.274-0.458-0.443-0.65c2.431-0.468,3.677-1.663,3.677-3.677
	c0-1.758-1.119-3.357-3.591-3.357c-0.106,0-0.223,0.011-0.318,0.022L99.319,150.411z M98.305,150.272
	c-2.135,0.266-3.456,2.046-3.456,3.911c0,1.14,0.488,1.854,0.993,1.854C97.123,156.038,98.042,153.192,98.305,150.272z"/>
<path fill="#61381A" d="M92.847,150.326v7.076c0,0.501-0.115,0.736-0.474,0.864c-0.36,0.118-1.014,0.128-1.977,0.128
	c-0.032-0.213-0.148-0.533-0.253-0.736c0.39,0.011,0.77,0.021,1.076,0.021c0.879,0,0.92,0,0.92-0.277v-6.373h-3.306
	c-0.023,0.437-0.075,0.896-0.181,1.365c1.099,0.97,2.42,2.259,3.085,3.08l-0.581,0.458c-0.582-0.735-1.691-1.897-2.716-2.846
	c-0.392,1.077-1.173,2.143-2.692,3.038c-0.106-0.159-0.34-0.415-0.51-0.543c2.409-1.312,2.811-3.112,2.875-4.551h-3.139v7.365H84.27
	v-8.068h3.854v-1.865l0.93,0.063c-0.011,0.075-0.063,0.128-0.21,0.149v1.652H92.847z"/>
<path fill="#61381A" d="M76.013,151.807h0.495c0.667-0.842,1.238-1.791,1.682-2.824l0.803,0.276
	c-0.034,0.075-0.126,0.117-0.254,0.107c-0.392,0.874-0.867,1.694-1.416,2.441h1.375v0.639h-1.883
	c-0.348,0.426-0.727,0.82-1.128,1.183h2.472v4.583h-0.677v-0.426h-2.515v0.618h-0.666v-3.687c-0.285,0.191-0.58,0.362-0.887,0.533
	c-0.097-0.139-0.286-0.406-0.412-0.543c0.453-0.235,0.887-0.501,1.299-0.8v-0.278h0.38c0.444-0.351,0.877-0.756,1.279-1.183h-2.812
	v-0.639h2.187v-1.439h-1.699v-0.639h1.699v-1.258l0.879,0.053c-0.014,0.075-0.063,0.128-0.201,0.149v1.056h1.372v0.639h-1.372
	V151.807z M77.482,155.409v-1.172h-2.515v1.172H77.482z M74.967,157.178h2.515v-1.183h-2.515V157.178z M79.109,149.09h3.201
	c0.117-0.033,0.127-0.033,0.146-0.033c0.054,0.033,0.106,0.074,0.466,0.234c-0.011,0.043-0.052,0.085-0.092,0.107
	c-0.394,0.917-0.943,2.079-1.504,3.219c1.11,1.097,1.577,1.918,1.577,2.696c0,1.695-1.112,1.695-1.807,1.695
	c-0.173,0-0.33,0-0.486-0.011c-0.013-0.202-0.106-0.511-0.245-0.713c0.284,0.022,0.571,0.031,0.804,0.031
	c0.464,0,1.025,0,1.025-1.022c0-0.704-0.497-1.46-1.629-2.548c0.498-1.075,0.952-2.099,1.301-2.973h-2.062v8.601h-0.696V149.09z"/>
<path fill="#61381A" d="M78.698,165.993h4.161v0.682h-8.166v2.132c0,1.641-0.137,4.04-1.047,5.669
	c-0.127-0.127-0.443-0.33-0.613-0.416c0.867-1.546,0.951-3.709,0.951-5.254v-2.814h3.983v-1.428l0.939,0.064
	c-0.008,0.075-0.061,0.128-0.209,0.149V165.993z M79.258,166.984c-0.013,0.075-0.065,0.128-0.213,0.149v1.129h3.666v0.651h-3.666
	v1.63h2.925v3.911h-0.716v-0.404h-4.819v0.437h-0.698v-3.943h2.603v-3.624L79.258,166.984z M81.254,173.4v-2.206h-4.819v2.206
	H81.254z"/>
<path fill="#61381A" d="M88.548,170.417c0.297,0.619,0.687,1.162,1.162,1.641c0.803-0.427,1.774-1.044,2.368-1.513l0.675,0.491
	c-0.043,0.052-0.136,0.064-0.23,0.052c-0.613,0.417-1.565,0.959-2.357,1.375c0.833,0.671,1.902,1.151,3.159,1.396
	c-0.148,0.15-0.338,0.437-0.444,0.639c-2.462-0.575-4.153-1.96-5.051-4.082h-1.594v2.973c0.908-0.149,1.911-0.32,2.883-0.49
	l0.033,0.596c-1.682,0.32-3.477,0.651-4.586,0.843c-0.01,0.085-0.074,0.138-0.137,0.159l-0.318-0.778
	c0.401-0.064,0.865-0.128,1.396-0.212v-3.091h-1.903v-0.661h1.903v-4.753h6.635v0.619h-5.905v0.969h5.578v0.598h-5.578v0.969h5.578
	v0.598h-5.578v1.001h6.931v0.661H88.548z"/>
<path fill="#61381A" d="M95.866,165.758v2.527c0,1.779-0.128,4.37-1.045,6.16c-0.13-0.116-0.414-0.287-0.594-0.362
	c0.889-1.706,0.962-4.093,0.962-5.808v-3.177h8.747v0.66H95.866z M100.208,172.165v1.374h3.771v0.661h-8.262v-0.661h1.417v-2.355
	l0.874,0.063c-0.008,0.076-0.073,0.129-0.211,0.138v2.154h1.724v-3.155l0.898,0.055c-0.013,0.074-0.074,0.126-0.212,0.148v0.938
	h2.652v0.64H100.208z M98.242,170.577h-0.614v-2.057c-0.347,0.725-0.8,1.385-1.254,1.78c-0.097-0.14-0.299-0.341-0.424-0.448
	c0.561-0.437,1.152-1.291,1.512-2.121h-1.237v-0.586h1.403v-1.087l0.806,0.053c-0.012,0.075-0.065,0.128-0.191,0.138v0.896h1.268
	v0.586h-1.268v0.287c0.297,0.213,1.058,0.799,1.247,0.97l-0.382,0.49c-0.167-0.191-0.548-0.554-0.865-0.841V170.577z
	 M101.962,170.577h-0.614v-2.355c-0.424,0.799-1.022,1.566-1.585,1.993c-0.104-0.15-0.283-0.352-0.423-0.47
	c0.634-0.394,1.313-1.214,1.724-2.014h-1.195v-0.586h1.479v-1.087l0.814,0.053c-0.01,0.075-0.063,0.128-0.2,0.138v0.896h1.764v0.586
	h-1.479c0.391,0.821,1.067,1.609,1.786,1.982c-0.149,0.117-0.338,0.341-0.435,0.501c-0.633-0.405-1.227-1.13-1.636-1.939V170.577z"
	/>
<path fill="#61381A" d="M106.816,173.561v-7.152h-0.021l-1.299,0.757l-0.211-0.66l1.636-0.928h0.753v7.983H106.816z"/>
<path fill="#61381A" d="M111.568,169.33c-0.854-0.416-1.236-1.119-1.236-1.802c0-1.236,0.965-2.079,2.24-2.079
	c1.437,0,2.124,0.981,2.124,1.94c0,0.682-0.359,1.428-1.301,1.887v0.042c0.973,0.417,1.576,1.131,1.576,2.089
	c0,1.354-1.099,2.281-2.495,2.281c-1.509,0-2.439-0.969-2.439-2.122c0-1.032,0.612-1.779,1.531-2.194V169.33z M114.075,171.504
	c0-1.002-0.667-1.514-1.715-1.855c-0.93,0.31-1.425,0.991-1.425,1.78c0,0.906,0.602,1.599,1.553,1.599
	C113.501,173.028,114.075,172.334,114.075,171.504z M111.167,167.442c-0.012,0.853,0.591,1.322,1.467,1.588
	c0.688-0.266,1.206-0.81,1.206-1.566c0-0.672-0.369-1.364-1.299-1.364C111.621,166.101,111.167,166.75,111.167,167.442z"/>
<path fill="#61381A" d="M125.787,171.323v0.703h-3.953v2.441h-0.716v-2.441h-5.008v-0.703h1.773v-2.932h3.234v-1.747h-2.728
	c-0.507,0.841-1.088,1.598-1.69,2.152c-0.125-0.128-0.403-0.362-0.569-0.469c0.981-0.852,1.911-2.322,2.46-3.805l0.899,0.288
	c-0.042,0.096-0.137,0.117-0.244,0.096c-0.138,0.352-0.296,0.693-0.476,1.034h6.509v0.704h-3.445v1.747h3.214v0.683h-3.214v2.249
	H125.787z M118.601,171.323h2.517v-2.249h-2.517V171.323z"/>
<path fill="#61381A" d="M76.561,183.325l0.466,0.277c-0.032,0.043-0.073,0.085-0.137,0.096c-0.329,0.864-0.814,1.705-1.363,2.462
	c0.434,0.331,1.288,1.045,1.532,1.237l-0.412,0.639c-0.242-0.288-0.794-0.799-1.226-1.194v4.392h-0.698v-4.092
	c-0.411,0.448-0.844,0.852-1.276,1.172c-0.077-0.191-0.266-0.501-0.381-0.628c1.141-0.799,2.346-2.207,3.002-3.667h-2.833v-0.661
	h1.488v-2.024l0.899,0.053c-0.012,0.074-0.064,0.128-0.201,0.149v1.822h1.014L76.561,183.325z M76.921,181.705h5.982v0.629h-5.982
	V181.705z M77.155,191.233v-4.732h5.429v4.689h-0.696v-0.469H77.83v0.512H77.155z M77.779,183.112h4.204v2.611h-4.204V183.112z
	 M79.499,187.13H77.83v1.172h1.669V187.13z M77.83,190.104h1.669v-1.193H77.83V190.104z M81.317,185.138v-1.44h-2.895v1.44H81.317z
	 M81.887,188.303v-1.172h-1.722v1.172H81.887z M80.166,190.104h1.722v-1.193h-1.722V190.104z"/>
<path fill="#61381A" d="M87.98,183.602c-0.021,0.054-0.075,0.096-0.14,0.106c-0.337,0.885-0.854,1.759-1.436,2.547
	c0.485,0.341,1.425,1.056,1.68,1.257l-0.412,0.597c-0.275-0.288-0.898-0.831-1.384-1.236v4.37h-0.701v-4.018
	c-0.462,0.501-0.947,0.938-1.424,1.289c-0.073-0.191-0.264-0.511-0.38-0.639c1.215-0.831,2.515-2.313,3.211-3.848h-3.02v-0.661
	h1.612v-2.035l0.9,0.053c-0.011,0.074-0.061,0.128-0.199,0.149v1.833h1.099l0.116-0.042L87.98,183.602z M91.319,190.264h2.376v0.703
	h-6.382v-0.703h1.099v-6.447l0.909,0.063c-0.012,0.075-0.063,0.128-0.211,0.149v6.235h1.501v-8.92l0.927,0.052
	c-0.007,0.086-0.073,0.139-0.219,0.149v3.593h2.027v0.682h-2.027V190.264z"/>
<path fill="#61381A" d="M104.35,188.441h-4.078c0.695,1.29,2.1,1.929,4.216,2.142c-0.158,0.159-0.351,0.458-0.435,0.661
	c-2.303-0.309-3.761-1.129-4.512-2.803h-0.114c-0.519,1.396-1.649,2.323-4.491,2.792c-0.054-0.192-0.232-0.491-0.361-0.639
	c2.462-0.363,3.552-1.056,4.08-2.153h-3.951v-0.65h4.184c0.095-0.32,0.147-0.671,0.199-1.055h-4.33v-0.661h4.374v-0.97h-3.329
	v-0.628h3.329v-0.939h-3.9v-0.66h2.293c-0.157-0.404-0.518-0.927-0.854-1.3l0.592-0.256c0.412,0.405,0.803,0.98,0.961,1.385
	l-0.37,0.17h3.086c-0.106-0.053-0.211-0.106-0.284-0.127c0.327-0.384,0.747-1.001,0.979-1.428l0.837,0.33
	c-0.031,0.063-0.106,0.086-0.211,0.086c-0.233,0.33-0.603,0.788-0.921,1.14h2.474v0.66h-3.963v0.939h3.423v0.628h-3.423v0.97h4.416
	v0.661h-4.247c-0.021,0.053-0.104,0.095-0.209,0.116c-0.056,0.331-0.108,0.641-0.183,0.938h4.725V188.441z"/>
<path fill="#61381A" d="M107.101,188.067c-0.495,0.321-1.013,0.619-1.531,0.875c-0.094-0.17-0.274-0.437-0.413-0.586
	c1.829-0.853,3.657-2.312,4.504-3.571l1.044,0.064c-0.022,0.075-0.105,0.129-0.211,0.139c1.026,1.225,2.916,2.559,4.542,3.24
	c-0.158,0.17-0.338,0.437-0.453,0.639c-0.507-0.245-1.045-0.543-1.575-0.884v3.208h-0.718v-0.331h-4.49v0.384h-0.698V188.067z
	 M106.321,183.069v1.248h-0.688v-1.909h4.028v-1.087l0.938,0.063c-0.014,0.074-0.074,0.128-0.212,0.139v0.885h4.089v1.909h-0.719
	v-1.248H106.321z M109.088,183.964c-0.042,0.064-0.115,0.096-0.233,0.096c-0.688,0.821-1.754,1.674-2.713,2.207
	c-0.106-0.139-0.329-0.404-0.466-0.522c0.918-0.48,1.965-1.278,2.598-2.099L109.088,183.964z M112.479,187.631
	c-0.959-0.671-1.859-1.428-2.439-2.143c-0.518,0.682-1.343,1.449-2.304,2.143H112.479z M107.799,190.21h4.49v-1.929h-4.49V190.21z
	 M113.832,186.246c-0.58-0.629-1.796-1.557-2.799-2.186l0.474-0.426c1.006,0.598,2.242,1.492,2.854,2.121L113.832,186.246z"/>
<path fill="#61381A" d="M116.679,185.904v1.077h2.652v3.219h-2.652v0.714h-0.655v-7.961h0.887c0.191-0.49,0.392-1.151,0.498-1.63
	l0.898,0.181c-0.021,0.085-0.097,0.117-0.225,0.128c-0.125,0.373-0.315,0.884-0.515,1.321h1.668v2.952H116.679z M118.59,183.581
	h-1.911v1.695h1.911V183.581z M118.675,187.621h-1.996v1.95h1.996V187.621z M125.438,182.579h-2.579v1.683h2.178v4.648
	c0,0.745-0.349,0.767-1.49,0.767c-0.031-0.181-0.128-0.447-0.212-0.628c0.212,0,0.403,0.01,0.563,0.01c0.42,0,0.473,0,0.473-0.16
	v-3.975h-1.511v6.31h-0.674v-6.31h-1.428v4.828h-0.656v-5.49h2.084v-1.683h-2.548v-0.661h5.801V182.579z"/>
<path fill="#61381A" d="M126.224,184.443c0.772-0.202,1.893-0.531,3.01-0.852l0.087,0.576c-0.973,0.319-1.986,0.65-2.631,0.841
	c-0.012,0.085-0.064,0.139-0.127,0.171L126.224,184.443z M130.228,190.051c-0.039,0.053-0.126,0.084-0.231,0.064
	c-0.845,0.426-2.134,0.874-3.181,1.14c-0.126-0.138-0.348-0.395-0.485-0.523c1.035-0.223,2.358-0.628,3.139-1.065L130.228,190.051z
	 M127.09,181.588c0.752,0.203,1.733,0.564,2.252,0.842l-0.317,0.564c-0.508-0.288-1.489-0.682-2.25-0.917L127.09,181.588z
	 M127.662,189.517v-4.369h6.942v4.369H127.662z M128.348,185.659v0.778h5.547v-0.778H128.348z M128.348,186.927v0.79h5.547v-0.79
	H128.348z M128.348,188.207v0.81h5.547v-0.81H128.348z M132.86,182.696c0.253,0.875,0.866,1.684,3.074,2.025
	c-0.137,0.14-0.306,0.405-0.379,0.586c-1.861-0.33-2.642-1.065-3.035-1.875c-0.379,0.81-1.14,1.353-2.778,1.684
	c-0.052-0.149-0.209-0.395-0.326-0.512c1.765-0.319,2.431-0.885,2.684-1.908h-1.216c-0.263,0.331-0.59,0.65-0.972,0.949
	c-0.126-0.139-0.37-0.289-0.536-0.362c0.813-0.565,1.352-1.312,1.636-1.961l0.792,0.117c-0.01,0.075-0.073,0.117-0.201,0.129
	c-0.083,0.181-0.188,0.372-0.316,0.564h3.846l0.128-0.012l0.421,0.054c-0.138,0.405-0.739,1.258-1.108,1.609l-0.57-0.212
	c0.231-0.225,0.477-0.555,0.686-0.875H132.86z M135.058,191.255c-0.688-0.353-1.85-0.799-3.043-1.183l0.581-0.374
	c1.173,0.362,2.462,0.822,3.241,1.173L135.058,191.255z"/>
<path fill="#61381A" d="M144.825,182.494c0.17,0,0.191,0,0.319-0.031l0.462,0.233c-0.019,0.054-0.062,0.086-0.104,0.097
	c-0.391,1.097-0.993,2.036-1.731,2.824c0.727,0.65,1.626,1.204,2.704,1.545c-0.147,0.14-0.352,0.427-0.455,0.608
	c-0.168-0.064-0.328-0.128-0.486-0.204v3.635h-0.696v-0.459h-3.128v0.502h-0.665v-3.613c-0.286,0.139-0.571,0.267-0.867,0.374
	c-0.083-0.182-0.265-0.448-0.403-0.587l0.076-0.021c-0.181-0.352-0.57-0.96-0.898-1.439v5.254h-0.688v-5.308
	c-0.399,1.268-0.949,2.515-1.5,3.262c-0.083-0.193-0.262-0.47-0.39-0.629c0.718-0.916,1.458-2.664,1.807-4.199h-1.554v-0.671h1.637
	v-2.345l0.889,0.063c-0.01,0.074-0.063,0.118-0.2,0.139v2.143h1.426v0.671h-1.426v0.767c0.317,0.363,1.184,1.493,1.384,1.781
	c-0.188,0.256-0.295,0.383-0.36,0.458c0.993-0.362,1.998-0.958,2.845-1.726c-0.499-0.555-0.899-1.13-1.206-1.705
	c-0.347,0.479-0.739,0.916-1.131,1.257c-0.115-0.127-0.358-0.341-0.508-0.458c0.911-0.747,1.776-2.046,2.272-3.401l0.834,0.278
	c-0.031,0.063-0.104,0.106-0.229,0.096c-0.107,0.276-0.233,0.543-0.373,0.81H144.825z M144.944,187.28
	c-0.626-0.342-1.173-0.747-1.651-1.194c-0.493,0.459-1.034,0.863-1.604,1.194H144.944z M141.709,190.104h3.128v-2.196h-3.128
	V190.104z M142.132,183.133l-0.118,0.181c0.298,0.618,0.719,1.247,1.278,1.833c0.552-0.586,1.016-1.269,1.345-2.015H142.132z"/>
<path fill="#61381A" d="M152.447,182.536h-0.98v8.697h-0.687v-2.196c-1.269,0.224-2.524,0.448-3.35,0.577
	c-0.021,0.083-0.086,0.138-0.159,0.148l-0.274-0.82c0.274-0.032,0.592-0.075,0.938-0.128v-6.277h-0.918v-0.671h5.43V182.536z
	 M150.78,184.082v-1.546h-2.167v1.546H150.78z M150.78,186.309v-1.566h-2.167v1.566H150.78z M148.613,186.97v1.759
	c0.677-0.097,1.428-0.214,2.167-0.32v-1.439H148.613z M156.042,182.877l0.442,0.149c-0.011,0.053-0.051,0.106-0.084,0.138
	c-0.286,2.154-0.876,3.911-1.702,5.287c0.582,0.948,1.312,1.704,2.209,2.206c-0.168,0.127-0.402,0.403-0.507,0.586
	c-0.855-0.522-1.554-1.237-2.122-2.131c-0.636,0.894-1.375,1.598-2.198,2.12c-0.106-0.172-0.318-0.437-0.477-0.575
	c0.844-0.491,1.617-1.248,2.262-2.239c-0.667-1.278-1.131-2.835-1.448-4.583l0.656-0.128c0.263,1.482,0.654,2.846,1.226,3.997
	c0.601-1.13,1.066-2.515,1.331-4.104h-3.541v-0.704h3.825L156.042,182.877z"/>
<path fill="#61381A" d="M159.046,186.352c-0.38,0.5-0.781,0.96-1.163,1.343c-0.072-0.148-0.273-0.458-0.391-0.607
	c0.846-0.81,1.85-2.143,2.482-3.411l0.793,0.31c-0.04,0.085-0.146,0.106-0.243,0.096c-0.229,0.437-0.506,0.885-0.801,1.321
	l0.198,0.064c-0.021,0.064-0.084,0.117-0.21,0.128v5.638h-0.666V186.352z M160.556,181.652c-0.04,0.097-0.147,0.097-0.23,0.086
	c-0.569,0.735-1.576,1.726-2.398,2.398c-0.084-0.139-0.275-0.395-0.402-0.523c0.782-0.597,1.744-1.535,2.252-2.28L160.556,181.652z
	 M167.332,187.599v0.639h-1.628v2.175c0,0.809-0.413,0.831-2.029,0.831c-0.031-0.203-0.148-0.469-0.242-0.661
	c0.368,0.011,0.718,0.021,0.96,0.021c0.519,0,0.593,0,0.593-0.203v-2.163h-4.396v-0.639h4.396v-0.981h-4.152V186h6.298v0.618h-1.237
	c-0.021,0.054-0.073,0.086-0.189,0.108v0.873H167.332z M166.443,181.652v3.517h-4.975v-3.517H166.443z M162.904,190.381
	c-0.256-0.437-0.823-1.098-1.321-1.567l0.486-0.33c0.507,0.447,1.088,1.087,1.363,1.513L162.904,190.381z M165.735,183.133v-0.927
	h-3.581v0.927H165.735z M165.735,184.615v-0.949h-3.581v0.949H165.735z"/>
<path fill="#61381A" d="M28.103,190.327h-4.681v-0.543l0.771-0.821c1.881-1.917,2.832-3.08,2.832-4.38
	c0-0.852-0.369-1.641-1.511-1.641c-0.634,0-1.204,0.352-1.585,0.661l-0.295-0.618c0.486-0.437,1.204-0.777,2.049-0.777
	c1.595,0,2.23,1.172,2.23,2.27c0,1.502-1.046,2.781-2.684,4.444l-0.624,0.661v0.021h3.498V190.327z"/>
<path fill="#61381A" d="M29.326,186.363c0-2.792,1.077-4.146,2.557-4.146c1.501,0,2.42,1.428,2.42,4.039
	c0,2.771-0.963,4.2-2.537,4.2C30.33,190.456,29.326,189.027,29.326,186.363z M33.415,186.298c0-1.993-0.475-3.367-1.584-3.367
	c-0.941,0-1.607,1.268-1.607,3.367c0,2.1,0.581,3.432,1.574,3.432C32.97,189.73,33.415,188.196,33.415,186.298z"/>
<path fill="#61381A" d="M37.076,190.327v-7.151h-0.019l-1.301,0.757l-0.211-0.661l1.637-0.927h0.751v7.982H37.076z"/>
<path fill="#61381A" d="M44.164,186.555c-0.434,0.553-1.047,0.885-1.816,0.885c-1.352,0-2.188-1.066-2.188-2.419
	c0-1.46,0.951-2.803,2.504-2.803c1.479,0,2.42,1.3,2.42,3.336c0,2.654-1.331,4.498-3.361,4.817
	c-0.368,0.064-0.706,0.085-0.938,0.075v-0.735c0.222,0.021,0.476-0.012,0.813-0.055c1.33-0.191,2.336-1.278,2.599-3.101H44.164z
	 M41.048,184.967c0,1.077,0.601,1.801,1.51,1.801c0.856,0,1.637-0.661,1.637-1.3c0-1.535-0.561-2.569-1.605-2.569
	C41.669,182.898,41.048,183.772,41.048,184.967z"/>
<path fill="#61381A" d="M55.583,188.09v0.702h-3.952v2.441h-0.72v-2.441h-5.007v-0.702h1.776v-2.931h3.23v-1.748h-2.725
	c-0.506,0.842-1.089,1.598-1.69,2.152c-0.128-0.127-0.402-0.362-0.573-0.469c0.985-0.853,1.915-2.323,2.463-3.806l0.899,0.289
	c-0.045,0.096-0.139,0.117-0.244,0.096c-0.137,0.351-0.294,0.692-0.475,1.034h6.51v0.704h-3.445v1.748h3.212v0.682h-3.212v2.25
	H55.583z M48.399,188.09h2.513v-2.25h-2.513V188.09z"/>
</svg>
