<svg xmlns="http://www.w3.org/2000/svg" width="269" height="207" viewBox="-7.87 -3.32 269 207"><path fill="#FFF" d="M172.33 14.03s-33.67 1.82-70.23-9.1C65.53-5.99 21.7 4.02 7.28 26.77-7.15 49.53 3 78.65 23.2 84.11c20.2 5.46 59.74.1 77.93-1.82 34.64-3.64 77.07 5.16 108.71 2.73 35.6-2.73 54.84-27.3 43.3-53.7C243.2 8.6 210.8 7.66 172.33 14.03"/><path fill="none" stroke="#BC7092" stroke-linecap="round" stroke-linejoin="round" stroke-dasharray="1.01 4.02" d="M172.33 14.03s-33.67 1.82-70.23-9.1C65.53-5.99 21.7 4.02 7.28 26.77-7.15 49.53 3 78.65 23.2 84.11c20.2 5.46 59.74.1 77.93-1.82 34.64-3.64 77.07 5.16 108.71 2.73 35.6-2.73 54.84-27.3 43.3-53.7C243.2 8.6 210.8 7.66 172.33 14.03z"/><path fill="#61381A" d="M28.07 50.15v.2c0 .19 0 .3-.07.48-.28.9-.66 1.78-1.22 2.64.38.42.73.83 1.26 1.5.15.19.14.38-.03.55l-.22.23c-.18.18-.38.17-.55-.04-.43-.56-.64-.83-.88-1.07v4.97c0 .25-.13.38-.38.38h-.53c-.25 0-.38-.13-.38-.38v-4.38c-.4.37-.8.7-1.26 1.03-.22.15-.42.09-.52-.17l-.08-.23c-.08-.21 0-.37.17-.5 1.55-1.16 2.7-2.74 3.33-4.8h-2.94c-.25 0-.38-.12-.38-.37v-.03c0-.25.13-.38.38-.38h1.25v-1.84c0-.25.13-.38.38-.38h.64c.25 0 .38.13.38.38v1.84h1.27c.26-.01.38.12.38.37zm8.14-1.84c0 .24-.13.37-.38.37h-7.15c-.25 0-.38-.13-.38-.38 0-.23.13-.34.38-.34h7.15c.26 0 .38.13.38.35zM35.7 59.9h-.65c-.25 0-.38-.13-.38-.38v-.24h-4.96v.24c0 .26-.13.38-.38.38h-.61c-.25 0-.38-.13-.38-.38v-5.21c0-.25.13-.38.38-.38h6.97c.25 0 .38.13.38.38v5.21c.01.26-.12.38-.37.38zm-.45-7.04h-6.02c-.25 0-.38-.13-.38-.38v-2.36c0-.25.13-.38.38-.38h6.02c.25 0 .38.13.38.38v2.36c0 .25-.13.38-.38.38zm-3.78 1.77h-1.75v1.68h1.75v-1.68zm0 2.28h-1.75v1.72h1.75v-1.72zm2.73-6.52h-3.94v1.86h3.94v-1.86zm.48 4.24h-1.85v1.68h1.85v-1.68zm0 2.28h-1.85v1.72h1.85v-1.72zM43.73 50.15v.2c0 .17-.03.3-.08.47-.35.92-.78 1.8-1.37 2.68.66.72 1.2 1.37 1.55 1.84.15.2.13.38-.06.54l-.24.2c-.2.15-.36.14-.52-.07-.3-.42-.7-.9-1.05-1.31v4.92c0 .25-.13.38-.38.38h-.56c-.25 0-.38-.13-.38-.38v-4.4c-.4.34-.87.7-1.4 1.06-.22.15-.4.09-.5-.17l-.08-.21c-.08-.23-.01-.38.17-.52 1.58-1.14 2.78-2.73 3.55-4.8H39.2c-.25 0-.38-.12-.38-.37v-.03c0-.25.13-.38.38-.38h1.39v-1.84c0-.25.13-.38.38-.38h.62c.25 0 .38.13.38.38v1.84h1.39c.23-.03.36.1.36.35zm7.67 1.55c0 .25-.13.38-.38.38h-2.31v6.61h2.6c.25 0 .38.13.38.38v.03c0 .26-.13.38-.38.38h-8.44c-.25 0-.38-.13-.38-.38v-.03c0-.26.13-.38.38-.38h1.39v-8.43c0-.25.13-.38.38-.38h.62c.25 0 .38.13.38.38v8.43h1.68V48.06c0-.25.13-.38.38-.38h.65c.25 0 .38.13.38.38v3.26h2.3c.24 0 .37.13.37.38zM58.93 47.45c.28.42.52.85.74 1.26h2.38l.69-1.2c.1-.2.27-.28.49-.2l.49.13c.25.07.34.25.2.5-.12.21-.27.48-.47.78h2.8c.26 0 .39.13.39.38 0 .23-.13.34-.38.34h-4.72v1.47h4.04c.25 0 .38.13.38.38 0 .2-.13.3-.38.3h-4.04v1.51h5.12c.25 0 .38.13.38.38 0 .2-.13.3-.38.3h-5.12v1.55h5.05c.25 0 .38.13.38.38 0 .23-.13.34-.38.34h-4.9c.62 1.37 2.27 2.42 4.67 2.9.27.06.35.21.28.47l-.03.1c-.08.21-.24.31-.48.25-2.4-.5-4.35-1.67-5.26-2.9-.92 1.23-2.91 2.37-5.37 2.9-.24.06-.4-.04-.48-.27l-.02-.1c-.08-.25.01-.4.27-.47 2.4-.48 4.06-1.53 4.69-2.9h-4.9c-.25 0-.38-.13-.38-.38 0-.23.13-.34.38-.34h5.05v-1.55h-5.12c-.25 0-.38-.13-.38-.38 0-.2.13-.3.38-.3h5.12v-1.51h-4.04c-.25 0-.38-.13-.38-.38 0-.2.13-.3.38-.3h4.04v-1.47h-4.72c-.25 0-.38-.13-.38-.38 0-.23.13-.34.38-.34h2.88l-.45-.78c-.14-.24-.08-.42.17-.5l.42-.14c.24-.07.39-.03.52.17zM77.09 51.98c1.54 1.48 3.15 2.71 4.87 3.71.2.13.25.3.14.5l-.07.13c-.13.23-.3.27-.52.14l-.94-.55v3.67c0 .25-.13.38-.38.38h-.67c-.25 0-.38-.13-.38-.38v-.38h-6.1v.38c0 .25-.13.38-.38.38h-.67c-.25 0-.38-.13-.38-.38v-3.67l-.94.55c-.22.13-.4.1-.52-.14l-.07-.13c-.11-.2-.07-.38.14-.5 1.72-1 3.33-2.23 4.87-3.7.14-.15.28-.2.46-.2h1.06c.19 0 .34.05.48.19zm5.06-3.12v1.95c0 .25-.13.38-.38.38h-.63c-.25 0-.38-.13-.38-.38v-1.64h-9.35v1.64c0 .25-.13.38-.38.38h-.63c-.25 0-.38-.13-.38-.38v-1.95c0-.26.13-.38.38-.38h4.97v-1.03c0-.26.13-.38.38-.38h.67c.25 0 .38.13.38.38v1.03h4.97c.26 0 .38.12.38.38zm-7.32 1.56c-.87 1.06-2.08 2.1-3.68 3-.22.13-.4.07-.52-.14l-.07-.13c-.11-.21-.07-.4.14-.52 1.26-.78 2.34-1.7 3.26-2.9.15-.2.34-.21.53-.06l.27.21c.2.16.23.34.07.54zm1.27 1.98c-.9.88-1.92 1.75-3.05 2.58h6.1c-1.14-.82-2.16-1.7-3.05-2.58zm3.05 3.29h-6.1v2.87h6.1v-2.87zm-1.32-6.11c1.43 1.02 2.62 2.05 3.6 3 .18.18.17.35.01.54l-.22.26c-.17.18-.36.18-.53 0-1.12-1.15-2.27-2.13-3.46-3.02-.2-.14-.22-.34-.06-.52l.14-.18c.14-.19.32-.22.52-.08zM88.77 48.04c-.14.44-.3.88-.48 1.33h1.6c.25 0 .38.13.38.38v3.15c0 .25-.13.38-.38.38H86.6v1.64h3.42c.25 0 .38.13.38.38v4.01c0 .26-.13.38-.38.38h-.59c-.25 0-.38-.13-.38-.38v-.24H86.6v.52c0 .25-.13.38-.38.38h-.61c-.25 0-.38-.13-.38-.38v-9.85c0-.25.13-.38.38-.38h1.3c.17-.37.34-.9.55-1.57.07-.23.22-.32.46-.3l.57.08c.25.06.37.22.28.47zm.2 2.06h-2.35v2.5h2.35v-2.5zm.1 5.54h-2.45v2.74h2.45v-2.74zm8.66-7.1c0 .24-.13.37-.38.37h-2.56v2.1h2.3c.25 0 .38.13.38.38v5.45c0 1.5-.13 1.7-1.29 1.7-.17 0-.42-.01-.73-.04-.24-.03-.35-.15-.36-.4-.01-.25.13-.38.4-.35l.38.04c.34.04.28-.85.28-.85v-5.23h-1.36v8.02c0 .25-.13.38-.38.38h-.65c-.25 0-.38-.13-.38-.38v-8.02h-1.25v6.44c0 .25-.13.38-.38.38h-.59c-.25 0-.38-.13-.38-.38v-6.77c0-.25.13-.38.38-.38h2.21v-2.1h-2.59c-.25 0-.38-.13-.38-.38 0-.23.13-.35.38-.35h6.55c.27 0 .4.13.4.37zM138.2 49.95h-6.06v1.76h6.79c.4 0 .59.2.59.6 0 .3-.2.44-.59.44h-6.79v1.92h7.77c.4 0 .59.2.59.6 0 .3-.2.48-.59.48h-17.72c-.4 0-.59-.2-.59-.6 0-.3.2-.48.59-.48h7.79v-1.92h-6.8c-.4 0-.59-.2-.59-.6 0-.29.2-.44.59-.44h6.8v-1.76h-6.09c-.4 0-.59-.2-.59-.6v-6.32c0-.4.2-.6.59-.6h14.31c.4 0 .59.2.59.6v6.33c0 .39-.19.59-.59.59zm-12.48 7.74c-.63 1.01-1.42 2.07-2.35 3.2-.24.29-.52.33-.83.11l-.44-.3c-.33-.22-.35-.5-.09-.82.7-.88 1.44-1.87 2.16-3.04.2-.33.48-.4.8-.22l.52.29c.36.19.45.45.23.78zm4.25-14.17h-4.47v2.2h4.47v-2.2zm0 3.13h-4.47v2.31h4.47v-2.31zm-.39 10.73c.28 1.06.44 2 .57 2.87.07.4-.1.6-.5.66l-.94.13c-.4.07-.63-.13-.68-.53-.13-.88-.28-1.83-.48-2.78-.09-.4.09-.66.48-.7l.85-.11c.35-.05.62.08.7.46zm4.28-.26c.5 1.08.96 2.07 1.29 2.95.15.38 0 .64-.4.75l-.79.2c-.37.09-.61-.04-.74-.4-.4-1.04-.8-1.98-1.18-2.87-.17-.37-.04-.66.33-.77l.72-.22c.35-.11.59 0 .77.36zm2.73-13.6h-4.45v2.2h4.45v-2.2zm0 3.13h-4.45v2.31h4.45v-2.31zm1.31 9.95c.85 1.08 1.6 2.14 2.31 3.2.22.33.15.62-.17.81l-.52.3c-.33.2-.63.13-.83-.18-.74-1.12-1.46-2.16-2.2-3.13-.24-.3-.2-.62.13-.84l.46-.3c.32-.2.6-.14.82.14zM159.91 60.64h-1c-.4 0-.59-.2-.59-.6v-.82h-13.3v.82c0 .4-.2.6-.6.6h-1c-.4 0-.59-.2-.59-.6v-16.5c0-.4.2-.6.6-.6h16.5c.4 0 .58.2.58.6v16.51c-.01.4-.21.59-.6.59zm-9.31-16.53h-5.58v6.17h5.58v-6.17zm0 7.29h-5.58v6.7h5.58v-6.7zm7.72-7.29h-5.58v6.17h5.58v-6.17zm0 7.29h-5.58v6.7h5.58v-6.7zM185.16 41.95c-.07.38-.1.7-.17 1h7.83c.4 0 .6.2.6.6 0 .3-.2.48-.6.48h-8.07c-.17.6-.4 1.3-.7 2.14h8c.4 0 .6.2.6.6 0 .26-.2.4-.6.4h-4.76c.44.97.87 1.72 1.2 2.25h5.1c.4 0 .6.2.6.6 0 .3-.2.46-.6.46h-4.39c1.4 1.76 2.9 3.08 4.54 4.03.3.18.41.44.28.8l-.13.35c-.15.4-.44.5-.79.29-.8-.48-1.5-.97-2.1-1.46v6.02c0 .4-.2.6-.59.6h-1.03c-.4 0-.59-.2-.59-.6v-.38h-8.86v.38c0 .4-.2.6-.59.6h-1.02c-.4 0-.59-.2-.59-.6v-6c-.59.46-1.29.95-2.1 1.43-.35.22-.63.11-.79-.29l-.13-.35c-.13-.35-.02-.62.28-.8 1.66-.97 3.2-2.3 4.54-4.03h-4.38c-.4 0-.59-.2-.59-.6 0-.3.2-.46.6-.46h5.1c.32-.53.75-1.28 1.2-2.25h-4.77c-.4 0-.59-.2-.59-.6 0-.26.2-.4.6-.4h5.16c.2-.57.44-1.3.66-2.14h-6.59c-.4 0-.59-.2-.59-.6 0-.3.2-.48.6-.48h6.8c.08-.33.14-.7.2-1.15.03-.38.25-.57.62-.55l1.02.04c.45.03.65.25.58.67zm-5.24 10.69h8.95c-.7-.8-1.29-1.54-1.75-2.18h-5.37c-.32.46-.91 1.19-1.83 2.18zm8.91.97h-8.86v2.3h8.86v-2.3zm0 3.19h-8.86v2.38h8.86V56.8zm-6.37-7.4h3.97c-.55-.95-.94-1.65-1.18-2.25h-1.61c-.27.6-.64 1.3-1.18 2.25zM209.7 48.85h4.05c.4 0 .59.22.59.62-.02 2.75-.13 4.9-.35 6.48-.46 3.2-1.46 4.43-3.67 4.43-.98 0-2.31-.07-3.93-.22-.37-.04-.57-.27-.57-.64v-.11c0-.4.22-.6.63-.55 1.64.15 2.8.22 3.53.22.55 0 .94-.3 1.46-1.7.46-1.17.68-3.7.68-7.36h-2.73l-.33.88c-.13.35-.37.5-.72.42l-.83-.2c-.4-.09-.55-.35-.41-.75.6-1.83 1.1-3.9 1.46-6.13h-4.82c-.1 6.2-.8 9.85-2.5 12.74-.67 1.17-1.74 2.38-3.24 3.7-.3.26-.6.24-.85-.04l-.33-.38c-.26-.29-.24-.57.04-.84 1.46-1.34 2.44-2.67 3.32-4.94.9-2.31 1.27-5.47 1.33-10.25h-4.54c-.4 0-.6-.2-.6-.6v-.04c0-.4.2-.6.6-.6h13.1c.4 0 .59.2.59.6v.77c-.16 1.38-.49 2.84-.96 4.49zM26.8 29.54c.25.38.46.75.66 1.12h2.1c.25-.4.46-.75.6-1.07.1-.19.25-.25.45-.19l.43.13c.22.06.3.23.19.44l-.42.7h2.5c.22 0 .34.11.34.34 0 .2-.11.3-.34.3h-4.2v1.3h3.6c.23 0 .35.11.35.34 0 .18-.11.26-.34.26h-3.6v1.34h4.55c.23 0 .34.11.34.34 0 .18-.11.26-.34.26h-4.55v1.38h4.49c.22 0 .34.11.34.34 0 .2-.11.3-.34.3h-4.35c.55 1.22 2.01 2.15 4.15 2.58.23.05.31.19.25.41l-.02.09c-.07.19-.21.28-.42.23-2.14-.45-3.87-1.48-4.67-2.58-.82 1.1-2.59 2.11-4.77 2.58-.21.05-.36-.04-.42-.24l-.02-.07c-.07-.23.01-.36.24-.41 2.14-.43 3.6-1.36 4.16-2.58h-4.35c-.22 0-.34-.11-.34-.34 0-.2.11-.3.34-.3h4.49v-1.38h-4.55c-.22 0-.34-.11-.34-.34 0-.18.11-.26.34-.26h4.55v-1.34h-3.6c-.22 0-.34-.11-.34-.34 0-.18.11-.26.34-.26h3.6v-1.3h-4.19c-.22 0-.34-.11-.34-.34 0-.2.11-.3.34-.3h2.56l-.4-.7c-.13-.21-.07-.38.15-.45l.37-.13c.18-.07.31-.04.43.14zM41.76 33.57c1.37 1.32 2.8 2.41 4.33 3.3.19.11.22.26.12.45l-.06.11c-.11.2-.26.24-.46.13l-.83-.49v3.27c0 .23-.11.34-.34.34h-.6c-.22 0-.34-.1-.34-.34V40h-5.42v.34c0 .23-.11.34-.34.34h-.6c-.23 0-.34-.1-.34-.34v-3.27l-.83.5c-.2.1-.35.06-.46-.14l-.06-.1c-.1-.2-.06-.35.12-.46 1.53-.9 2.96-1.99 4.33-3.3.12-.13.25-.18.4-.18h.94c.18.01.31.06.44.18zm4.5-2.77v1.73c0 .23-.11.34-.34.34h-.56c-.22 0-.34-.11-.34-.34v-1.46h-8.3v1.46c0 .23-.11.34-.34.34h-.56c-.22 0-.34-.11-.34-.34V30.8c0-.23.11-.34.34-.34h4.41v-.92c0-.23.11-.34.34-.34h.6c.22 0 .34.11.34.34v.92h4.41c.23 0 .34.11.34.34zm-6.5 1.38c-.77.94-1.85 1.86-3.27 2.66-.2.11-.36.06-.46-.13l-.06-.11c-.1-.19-.06-.35.12-.47 1.12-.7 2.08-1.52 2.9-2.58.14-.18.3-.19.47-.05l.24.19c.17.15.2.31.06.49zm1.12 1.77c-.8.78-1.7 1.56-2.71 2.3h5.42c-1.01-.75-1.92-1.52-2.71-2.3zm2.7 2.92h-5.42v2.55h5.42v-2.55zm-1.16-5.43c1.27.9 2.33 1.82 3.2 2.68.16.16.15.31.01.48l-.2.23c-.15.16-.32.16-.47 0-1-1.02-2.02-1.9-3.07-2.69-.17-.13-.2-.3-.05-.46l.12-.16c.12-.18.28-.21.46-.08zM50.96 30.07c-.12.39-.26.78-.42 1.18h1.43c.22 0 .34.1.34.34v2.8c0 .23-.1.34-.34.34h-2.92v1.46h3.03c.23 0 .34.1.34.34v3.57c0 .23-.1.34-.34.34h-.52c-.22 0-.34-.11-.34-.34v-.22h-2.18v.46c0 .23-.1.34-.34.34h-.56c-.22 0-.34-.11-.34-.34v-8.76c0-.23.11-.34.34-.34h1.16c.15-.33.3-.8.48-1.4.06-.2.2-.29.41-.27l.51.08c.24.05.34.19.26.42zm.18 1.82h-2.09v2.22h2.09v-2.22zm.08 4.94h-2.18v2.44h2.18v-2.44zm7.7-6.33c0 .21-.11.33-.34.33h-2.27v1.87h2.04c.22 0 .34.11.34.34v4.85c0 1.33-.11 1.5-1.14 1.5-.15 0-.37-.01-.65-.04-.21-.03-.31-.14-.32-.35-.01-.23.11-.34.35-.31l.34.04c.3.04.25-.75.25-.75v-4.65h-1.2v7.14c0 .23-.11.34-.34.34h-.57c-.22 0-.34-.11-.34-.34v-7.14h-1.1v5.73c0 .23-.11.34-.34.34h-.52c-.22 0-.34-.11-.34-.34v-6.02c0-.23.11-.34.34-.34h1.97v-1.87h-2.3c-.22 0-.34-.11-.34-.34 0-.2.11-.31.34-.31h5.82c.2 0 .32.12.32.32zM70.98 30.36c0 .2-.1.3-.34.3h-1.8v1.15h1.57c.22 0 .34.1.34.34 0 .16-.1.25-.34.25h-1.47c.44.82 1.04 1.57 1.8 2.27.16.15.17.3.05.49l-.12.16c-.15.16-.3.19-.48.03-.56-.52-1-1-1.34-1.43v1.85c0 .23-.1.34-.34.34h-.46c-.22 0-.34-.11-.34-.34v-1.82c-.4.5-.9 1.03-1.53 1.58-.16.15-.32.14-.47-.04l-.07-.09c-.15-.18-.13-.34.04-.5.84-.77 1.53-1.6 2.03-2.51h-1.26c-.22 0-.34-.11-.34-.34 0-.16.11-.25.34-.25h1.27v-1.14h-3.08v1.14h.97c.22 0 .34.11.34.34 0 .16-.1.25-.34.25h-.86c.37.41.75.84 1.1 1.26.14.16.12.33-.03.48l-.14.14c-.16.16-.34.16-.47-.03l-.57-.73v2.25c0 .23-.1.34-.34.34h-.46c-.22 0-.34-.11-.34-.34v-1.9c-.2.3-.46.61-.75.95-.16.19-.34.18-.48 0l-.13-.15c-.14-.16-.14-.31 0-.48.44-.53.88-1.18 1.17-1.8h-.9c-.23 0-.34-.11-.34-.34 0-.16.11-.25.34-.25h1.08v-1.14h-1.72v4.42c0 2.06-.39 3.77-1.04 5.21-.1.24-.3.26-.47.07l-.34-.39c-.12-.14-.14-.28-.07-.45.52-1.43.8-3.42.8-5.83v-3.32c0-.23.11-.34.34-.34h9.67c.21.03.32.14.32.34zm-.8 7.21c0 .18-.11.26-.34.26h-2.9v1.85h3.72c.23 0 .34.11.34.34 0 .19-.11.29-.34.29h-9.04c-.22 0-.34-.11-.34-.34 0-.19.11-.29.34-.29h1.25v-2.46c0-.23.11-.34.34-.34h.55c.22 0 .34.11.34.34v2.46h1.62v-3.34c0-.23.11-.34.34-.34h.56c.22 0 .34.11.34.34v.9h2.9c.2-.01.32.1.32.33zM73.23 31.01c.68-.34 1.55-.54 2.46-.54 1.85 0 2.87.98 2.87 2.51 0 .75-.26 1.52-.88 2.44-.48.73-1.64 1.72-3.18 3.28l-.22.23h4c.2 0 .32.11.32.33v.01c0 .21-.11.33-.32.33h-5.1c-.21 0-.32-.11-.32-.33v-.07c0-.16.05-.29.19-.4 1.55-1.33 2.65-2.45 3.33-3.35.55-.73.88-1.58.88-2.38 0-1.3-.6-1.91-1.69-1.91-.67 0-1.34.2-2.13.65-.24.14-.4.04-.4-.21v-.21c0-.2.06-.32.19-.38zM86.11 30.92v.01c0 .21-.1.33-.32.33h-3.5l-.16 3.02c.4-.19.93-.3 1.47-.3 1.85 0 2.87 1.03 2.87 2.7 0 1.93-1.14 3.04-3.4 3.04-.76 0-1.47-.15-2.06-.4-.16-.08-.23-.2-.23-.38v-.18c0-.26.16-.34.4-.23.71.38 1.3.52 1.91.52 1.37 0 2.13-.77 2.13-2.39 0-1.4-.65-2.07-1.77-2.07-.48 0-.86.11-1.27.43-.12.1-.24.15-.4.15h-.57c-.2 0-.32-.13-.3-.34l.21-3.92c.01-.2.12-.3.32-.3h4.36c.2-.01.31.09.31.31zM91.52 29.98l-.24.74h7.04c.22 0 .34.11.34.34 0 .21-.1.33-.34.33h-3.48v2.32h3.1c.22 0 .34.11.34.34 0 .21-.1.33-.34.33h-3.1v2.75h4.04c.22 0 .34.11.34.34 0 .23-.1.34-.34.34h-4.04v2.54c0 .23-.1.34-.34.34h-.6c-.23 0-.34-.11-.34-.34v-2.54H88.4c-.22 0-.34-.11-.34-.34 0-.23.11-.34.34-.34h1.8v-3.08c0-.23.11-.34.34-.34h3.03v-2.32h-2.54c-.45 1.13-1.02 2.21-1.72 3.3-.12.19-.29.2-.46.07l-.35-.25c-.17-.13-.2-.29-.09-.48.8-1.27 1.47-2.7 1.97-4.31.06-.21.2-.29.4-.25l.5.1c.24.04.33.2.25.41zm2.04 4.4h-2.14v2.75h2.14v-2.75zM25.22 123.56v-7.15h-.02l-1.3.76-.21-.66 1.64-.93h.75v7.98h-.86zM32.3 119.79c-.43.55-1.05.89-1.82.89-1.35 0-2.19-1.06-2.19-2.42 0-1.46.95-2.8 2.5-2.8 1.48 0 2.42 1.3 2.42 3.34 0 2.65-1.33 4.5-3.36 4.82-.37.06-.7.09-.94.07v-.74c.22.02.48-.01.81-.05 1.33-.2 2.34-1.28 2.6-3.1h-.02zm-3.11-1.59c0 1.08.6 1.8 1.51 1.8.86 0 1.64-.66 1.64-1.3 0-1.53-.56-2.57-1.6-2.57-.93 0-1.55.87-1.55 2.07zM38.43 119.79c-.43.55-1.05.89-1.82.89-1.35 0-2.2-1.06-2.2-2.42 0-1.46.96-2.8 2.5-2.8 1.49 0 2.43 1.3 2.43 3.34 0 2.65-1.33 4.5-3.36 4.82-.37.06-.7.09-.94.07v-.74c.22.02.47-.01.8-.05 1.34-.2 2.34-1.28 2.6-3.1h-.01zm-3.12-1.59c0 1.08.6 1.8 1.51 1.8.86 0 1.64-.66 1.64-1.3 0-1.53-.56-2.57-1.6-2.57-.92 0-1.55.87-1.55 2.07zM44.75 115.58v.73H41.9l-.33 2.26c.17-.02.34-.04.6-.04 1.4 0 2.67.84 2.67 2.45 0 1.58-1.16 2.7-2.73 2.7-.8 0-1.46-.23-1.82-.47l.26-.7c.3.2.88.45 1.56.45 1 0 1.85-.73 1.84-1.9 0-1.1-.7-1.85-2.17-1.85-.42 0-.75.03-1.01.07l.5-3.72h3.47zM55.94 121.32v.7H52v2.44h-.72v-2.44h-5v-.7h1.76v-2.93h3.23v-1.75h-2.73c-.5.84-1.09 1.6-1.69 2.15-.13-.13-.4-.36-.57-.47.98-.85 1.91-2.32 2.46-3.8l.9.3c-.04.1-.14.11-.24.1-.14.34-.3.7-.48 1.02h6.5v.7h-3.44v1.75h3.21v.68h-3.2v2.25h3.96zm-7.18 0h2.52v-2.25h-2.52v2.25zM25.22 142.01v-7.15h-.02l-1.3.76-.21-.66 1.64-.93h.75v7.98h-.86zM32.3 138.24c-.43.55-1.05.88-1.82.88-1.35 0-2.19-1.07-2.19-2.42 0-1.46.95-2.8 2.5-2.8 1.48 0 2.42 1.3 2.42 3.34 0 2.65-1.33 4.5-3.36 4.82-.37.06-.7.09-.94.07v-.73c.22.02.48-.01.81-.05 1.33-.2 2.34-1.28 2.6-3.1h-.02zm-3.11-1.59c0 1.08.6 1.8 1.51 1.8.86 0 1.64-.66 1.64-1.3 0-1.53-.56-2.57-1.6-2.57-.93 0-1.55.88-1.55 2.07zM38.43 138.24c-.43.55-1.05.88-1.82.88-1.35 0-2.2-1.07-2.2-2.42 0-1.46.96-2.8 2.5-2.8 1.49 0 2.43 1.3 2.43 3.34 0 2.65-1.33 4.5-3.36 4.82-.37.06-.7.09-.94.07v-.73c.22.02.47-.01.8-.05 1.34-.2 2.34-1.28 2.6-3.1h-.01zm-3.12-1.59c0 1.08.6 1.8 1.51 1.8.86 0 1.64-.66 1.64-1.3 0-1.53-.56-2.57-1.6-2.57-.92 0-1.55.88-1.55 2.07zM41.2 137.78c.36-.53 1-.98 1.85-.98 1.34 0 2.24 1 2.24 2.55 0 1.46-.89 2.8-2.43 2.8s-2.58-1.3-2.58-3.36c0-2.14 1-4.38 3.56-4.8.3-.04.56-.07.74-.07l.01.73c-2.2 0-3.24 1.6-3.42 3.14h.03zm3.2 1.63c0-1.23-.65-1.94-1.6-1.94-.93 0-1.64.92-1.64 1.51.01 1.46.62 2.46 1.72 2.46.92.01 1.52-.82 1.52-2.03zM56.02 139.77v.7h-3.95v2.44h-.72v-2.44h-5v-.7h1.77v-2.93h3.24v-1.75h-2.74c-.5.84-1.08 1.6-1.68 2.15-.13-.13-.4-.36-.57-.47.98-.85 1.9-2.32 2.46-3.8l.9.3c-.04.1-.14.11-.24.1-.15.34-.3.7-.49 1.02h6.5v.7h-3.43v1.75h3.2v.68h-3.2v2.25h3.95zm-7.18 0h2.52v-2.25h-2.52v2.25zM81.55 117.12l.94.06c-.01.07-.07.13-.21.15v6.95h-.73v-.86h-7v.9h-.72v-7.2l.93.06c-.01.07-.06.13-.21.15v5.35h3.07v-7.92l.95.06c-.01.07-.07.13-.21.15v7.7h3.19v-5.55zM93.11 118.58l.4.04c-.15.54-.68 1.96-1.06 2.61-.45-.1-.52-.15-.58-.18.23-.45.5-1.13.72-1.78h-1.4v4.3c0 .85-.37.88-2.08.88-.03-.2-.14-.5-.24-.7l1.07.02c.5 0 .55 0 .55-.22v-4.26h-1.9v.23h-2v1.2h2.02v.66H86.6v1.56l2.24-.32.02.6-4.9.8c-.02.1-.09.13-.16.15l-.22-.83c.62-.07 1.44-.2 2.32-.3v-1.66h-1.94v-.66h1.94v-1.2h-1.96v-4.4h4.66v3.5h3.04c-.58-.57-1.51-1.28-2.35-1.73l.46-.45c.4.2.8.46 1.2.73.44-.37.9-.89 1.26-1.38h-3.32v-.65h3.85l.14-.04.54.34c-.03.04-.1.07-.15.1-.43.64-1.15 1.44-1.84 2 .36.28.67.56.89.8l-.26.28h.9l.16-.04zm-8.57-2.86v1.3h1.38v-1.3h-1.38zm0 1.88v1.32h1.38v-1.32h-1.38zm3.42-.58v-1.3h-1.4v1.3h1.4zm0 1.89v-1.32h-1.4v1.32h1.4zM104 121.67h-4.08c.7 1.3 2.1 1.93 4.21 2.14-.16.16-.35.46-.43.66-2.3-.3-3.76-1.13-4.51-2.8h-.12c-.52 1.4-1.65 2.32-4.49 2.8-.05-.2-.23-.49-.36-.64 2.46-.36 3.55-1.06 4.08-2.15h-3.95v-.65h4.18c.1-.32.15-.67.2-1.05H94.4v-.66h4.37v-.97h-3.33v-.63h3.33v-.94h-3.9v-.66h2.3c-.16-.4-.52-.93-.86-1.3l.6-.26c.41.4.8.98.96 1.4l-.37.16h3.08l-.28-.13c.33-.38.75-1 .98-1.43l.83.33c-.03.06-.1.1-.21.1-.23.32-.6.78-.92 1.13h2.48v.66H99.5v.94h3.42v.63H99.5v.97h4.42v.66h-4.25c-.02.05-.1.1-.21.12-.05.33-.1.64-.18.94H104v.63zM106.75 121.3c-.5.32-1 .62-1.53.87-.1-.17-.28-.44-.4-.59 1.82-.85 3.65-2.31 4.5-3.57l1.03.06c-.02.07-.1.13-.2.14 1.02 1.23 2.91 2.56 4.53 3.24-.16.17-.34.44-.46.64-.5-.25-1.05-.54-1.57-.89v3.2h-.72v-.33h-4.49v.38h-.7v-3.15zm-.78-5v1.25h-.69v-1.9h4.03v-1.09l.94.06c-.01.07-.08.13-.21.14v.89h4.09v1.9h-.72v-1.25h-7.44zm2.77.9c-.04.06-.12.1-.23.1-.69.82-1.75 1.67-2.72 2.2-.1-.14-.33-.4-.47-.52.92-.48 1.97-1.28 2.6-2.1l.82.32zm3.39 3.66c-.96-.67-1.86-1.43-2.44-2.14-.52.68-1.34 1.45-2.3 2.14h4.74zm-4.68 2.58h4.49v-1.93h-4.49v1.93zm6.03-3.96c-.58-.63-1.8-1.56-2.8-2.19l.47-.42c1 .6 2.24 1.5 2.85 2.12l-.52.49zM125.09 121.26v.63h-2.45v1.76c0 .42-.1.6-.43.7-.33.1-.9.1-1.85.1-.03-.2-.14-.44-.23-.63l1.13.02c.6 0 .69 0 .69-.21v-1.75h-6.44v-.63h6.44v-.9h-5.3v-3.5h3.29v-.78h-4.17v-.62h4.17v-.9l.9.07c-.01.07-.06.13-.2.15v.67h4.26v.62h-4.26v.79h3.39v3.5h-1.9l.72.04c0 .07-.06.13-.2.15v.7h2.44zm-6.23 2.71c-.34-.45-1.07-1.1-1.7-1.53l.53-.4c.64.42 1.37 1.03 1.73 1.48l-.56.45zm-1.55-6.56v.94h2.6v-.94h-2.6zm0 1.46v.96h2.6v-.96h-2.6zm6.02-1.46h-2.7v.94h2.7v-.94zm0 2.42v-.96h-2.7v.96h2.7zM130.24 115.09V119h-3.08v5.46h-.7v-9.38h3.78zm-.68.61h-2.4v1.02h2.4v-1.02zm-2.4 2.7h2.4v-1.12h-2.4v1.12zm8.04-3.31v8.36c0 .97-.37 1-2.4 1-.03-.2-.16-.53-.27-.75.46.02.89.02 1.22.02.69 0 .75 0 .75-.28v-4.42h-3.21v-3.93h3.91zm-.7.61h-2.53v1.02h2.53v-1.02zm-2.53 2.71h2.53v-1.13h-2.53v1.13zM146.11 120.85v.67h-4.38v2.07c0 .9-.5.9-2.46.9-.05-.2-.2-.5-.3-.7l1.35.03c.61 0 .7 0 .7-.23v-2.07h-4.34v-.67H141v-.93l.5.03c.54-.28 1.1-.65 1.53-1h-4.6v-.65h5.35l.13-.04.55.35c-.03.05-.1.1-.16.1-.63.6-1.63 1.3-2.57 1.76v.38h4.38zm-8.5-3.82v1.72h-.68v-2.37h1.65c-.2-.42-.6-.98-.94-1.4l.6-.29c.42.47.88 1.1 1.07 1.52l-.3.16h2.24c-.16-.48-.5-1.14-.83-1.63l.61-.23c.38.53.76 1.25.9 1.7l-.37.16h1.85c.41-.49.93-1.24 1.21-1.75.67.24.75.3.84.35-.03.06-.12.1-.22.09-.27.38-.65.89-1.01 1.31h1.72v2.37h-.7v-1.72h-7.64zM149.79 118.44c.33.4 1.22 1.68 1.42 2l-.41.56c-.18-.37-.65-1.13-1-1.7v5.15h-.67v-5.28c-.38 1.26-.9 2.48-1.44 3.23-.07-.2-.25-.47-.38-.63.69-.93 1.4-2.67 1.73-4.2h-1.53v-.67h1.62v-2.34l.88.06c-.01.06-.07.12-.21.14v2.14h1.34v.67h-1.34v.87zm3.13.73c.28.81.7 1.58 1.2 2.25.5-.7.85-1.47 1.08-2.3l.88.2c-.03.07-.1.13-.23.13-.27.9-.7 1.76-1.28 2.52.75.84 1.67 1.51 2.73 1.9-.16.15-.4.43-.5.63-1.03-.44-1.93-1.12-2.69-1.97-.76.82-1.72 1.5-2.93 1.98-.07-.16-.26-.43-.38-.56 1.2-.46 2.15-1.13 2.87-1.95-.57-.78-1.03-1.66-1.37-2.63l.62-.2zm.53-1.64c-.03.05-.1.08-.2.08-.38.75-1.05 1.67-1.77 2.31-.12-.13-.34-.32-.5-.44.69-.59 1.33-1.5 1.68-2.28l.79.33zm3.68-1.36v.66h-5.92v-.66h2.57v-1.62l.9.06c0 .07-.06.13-.21.15v1.4h2.66zm-.45 3.68c-.32-.65-1.08-1.64-1.78-2.36l.56-.32c.7.7 1.48 1.66 1.8 2.31l-.58.37zM178.2 121.1v.7h-4.46v2.67H173v-2.67h-4.37v-.7H173v-.76l.94.06c0 .07-.07.13-.2.15v.54h4.45zm-6.11-4.06c-.02.07-.1.12-.22.12-.1.32-.23.64-.38.94.56.38 1.21.88 1.56 1.23l-.45.5c-.3-.32-.88-.79-1.4-1.18-.5.83-1.15 1.53-1.88 2.03-.11-.14-.37-.35-.52-.48 1.09-.68 2-1.92 2.43-3.38l.86.22zm5.79-1.06v.7h-8.95v-.7h4.08v-1.42l.94.05c0 .07-.07.13-.2.15v1.22h4.13zm-.44 4.61c-.47-.49-1.4-1.24-2.22-1.83-.45.65-1.02 1.2-1.66 1.59-.1-.15-.35-.37-.5-.48 1.06-.6 1.94-1.72 2.35-3.05l.85.22c-.02.07-.1.1-.21.1-.13.37-.28.72-.48 1.05.83.58 1.87 1.35 2.41 1.88l-.54.52zM188.66 121.86H185c.98.82 2.52 1.5 3.92 1.81-.16.15-.37.44-.48.63-1.47-.42-3.1-1.27-4.13-2.28v2.44h-.7v-2.39c-1.03.97-2.66 1.78-4.1 2.2-.1-.18-.3-.46-.47-.6 1.37-.32 2.9-1 3.88-1.8h-3.6v-.62h4.3v-.86h-3.29v-.58h3.28v-.85h-3.8v-.6h2.4c-.1-.33-.34-.79-.56-1.13l.41-.09h-2.7v-.63h1.77c-.16-.45-.54-1.12-.89-1.62l.6-.2c.38.48.78 1.16.94 1.61l-.56.21h1.4v-1.96l.9.05c-.02.1-.1.16-.24.18v1.73h1.37v-1.96l.92.05c0 .1-.1.16-.24.18v1.73h1.33l-.4-.15c.3-.46.68-1.17.87-1.66l.83.3c-.02.05-.1.1-.22.1-.23.41-.56 1-.86 1.42h1.73v.63h-2.39l.3.1c-.03.07-.12.1-.23.1-.15.3-.38.7-.59 1.02h2.5v.6h-3.92v.85h3.4v.58h-3.4v.86h4.35v.6zm-3.62-3.56c.19-.3.43-.78.59-1.15h-3.29c.24.35.48.82.58 1.14l-.33.07h2.61l-.16-.06zM82.87 140.13H78.8c.7 1.29 2.1 1.93 4.22 2.14-.16.15-.35.45-.43.65-2.3-.3-3.76-1.13-4.5-2.8h-.13c-.52 1.4-1.65 2.32-4.49 2.8-.05-.2-.23-.5-.36-.64 2.46-.36 3.55-1.05 4.08-2.15h-3.95v-.65h4.18c.1-.32.15-.67.2-1.05h-4.33v-.66h4.37v-.97h-3.33v-.63h3.33v-.94h-3.9v-.66h2.3c-.16-.4-.52-.93-.85-1.3l.6-.26c.41.4.8.98.96 1.4l-.37.16h3.08l-.29-.13c.33-.38.75-1 .98-1.43l.83.33c-.03.06-.1.1-.2.1-.24.32-.6.78-.93 1.13h2.47v.66h-3.96v.94h3.42v.63h-3.42v.97h4.42v.66h-4.25c-.02.05-.1.1-.2.12-.06.33-.1.64-.19.94h4.72v.64zM85.62 139.75c-.5.32-1 .62-1.53.87-.1-.17-.27-.44-.4-.59 1.82-.85 3.65-2.3 4.5-3.57l1.04.06c-.02.07-.1.13-.2.14 1.01 1.23 2.91 2.56 4.53 3.24-.16.17-.34.44-.45.64-.5-.25-1.05-.54-1.57-.89v3.2h-.72v-.33h-4.5v.38h-.7v-3.15zm-.78-5V136h-.69v-1.9h4.03v-1.09l.94.06c-.01.07-.07.13-.21.14v.89H93v1.9h-.72v-1.25h-7.44zm2.76.9c-.04.06-.11.1-.23.1-.69.82-1.75 1.67-2.71 2.2-.1-.14-.33-.4-.47-.52.92-.48 1.96-1.28 2.6-2.1l.81.32zm3.4 3.66c-.96-.67-1.86-1.43-2.44-2.14-.52.68-1.34 1.45-2.3 2.14H91zm-4.68 2.59h4.5v-1.93h-4.5v1.93zm6.03-3.97c-.58-.63-1.8-1.56-2.8-2.19l.47-.43c1 .6 2.24 1.5 2.85 2.12l-.52.5zM95.2 137.59v1.08h2.65v3.22H95.2v.7h-.66v-7.95h.9c.18-.5.38-1.15.5-1.63l.9.18c-.03.09-.1.12-.23.13-.13.37-.32.88-.52 1.32h1.67v2.95H95.2zm1.91-2.33H95.2v1.7h1.91v-1.7zm.09 4.04h-2v1.95h2v-1.95zm6.76-5.04h-2.58v1.68h2.17v4.65c0 .75-.35.77-1.49.77-.03-.18-.13-.45-.21-.63l.56.01c.42 0 .47 0 .47-.16v-3.98h-1.5v6.31h-.68v-6.31h-1.43v4.83h-.66v-5.49h2.08v-1.68h-2.55v-.66h5.8v.66zM104.75 136.13c.77-.2 1.89-.53 3-.85l.09.57c-.97.32-2 .65-2.63.84-.01.09-.07.14-.13.17l-.33-.73zm4 5.6c-.04.05-.13.09-.23.06-.84.43-2.14.87-3.18 1.14-.13-.14-.35-.4-.49-.52 1.04-.22 2.36-.63 3.14-1.07l.76.39zm-3.14-8.46c.75.2 1.73.56 2.25.84l-.31.56c-.5-.29-1.49-.68-2.25-.92l.31-.48zm.57 7.93v-4.37h6.94v4.37h-6.94zm.69-3.86v.78h5.55v-.78h-5.55zm0 1.27v.79h5.55v-.79h-5.55zm0 1.28v.81h5.55v-.81h-5.55zm4.51-5.51c.26.88.87 1.69 3.08 2.02-.14.14-.3.4-.38.59-1.86-.33-2.64-1.06-3.03-1.88-.38.81-1.14 1.35-2.78 1.68-.05-.15-.21-.4-.33-.51 1.76-.32 2.43-.89 2.68-1.9h-1.21c-.27.33-.6.65-.97.95-.13-.14-.37-.29-.54-.36.81-.56 1.35-1.31 1.64-1.96l.8.12c-.01.07-.07.12-.2.13-.08.18-.19.37-.32.56h3.85l.13-.01.42.05c-.14.4-.74 1.26-1.11 1.6l-.57-.21c.23-.22.48-.56.69-.88h-1.85zm2.2 8.56c-.69-.35-1.85-.8-3.04-1.18l.58-.37c1.17.36 2.46.82 3.24 1.17l-.78.38zM123.34 134.18c.17 0 .2 0 .32-.03l.47.23c-.02.06-.06.09-.1.1-.39 1.1-1 2.04-1.73 2.82.73.65 1.63 1.2 2.7 1.55-.15.14-.35.43-.46.6-.17-.06-.33-.13-.48-.2v3.63h-.7v-.46h-3.13v.5h-.66v-3.61c-.28.14-.56.27-.86.37-.08-.18-.26-.45-.4-.6l.06-.01c-.18-.35-.57-.96-.9-1.44v5.25h-.69v-5.3c-.4 1.27-.95 2.52-1.5 3.26-.08-.2-.26-.47-.4-.63.72-.92 1.46-2.66 1.8-4.2h-1.55v-.67h1.64v-2.35l.9.06c-.02.07-.07.12-.2.14v2.14h1.42v.67h-1.43v.77c.32.36 1.18 1.5 1.38 1.78-.19.26-.3.38-.36.46 1-.36 2-.96 2.84-1.73-.5-.55-.9-1.13-1.2-1.7-.35.48-.74.92-1.13 1.26-.12-.13-.36-.34-.5-.46.91-.75 1.77-2.05 2.27-3.4l.84.28c-.03.06-.1.1-.23.1-.1.28-.23.54-.37.8h2.34zm.12 4.78c-.63-.34-1.17-.75-1.65-1.2-.5.46-1.03.86-1.6 1.2h3.25zm-3.23 2.83h3.13v-2.2h-3.13v2.2zm.42-6.97l-.12.18c.3.62.72 1.25 1.28 1.83.55-.59 1.02-1.27 1.34-2.02h-2.5zM130.97 134.22h-.98v8.7h-.69v-2.2c-1.27.22-2.52.45-3.35.58-.02.09-.09.14-.16.15l-.28-.82c.28-.03.6-.07.94-.13v-6.28h-.92v-.67h5.43v.67zm-1.67 1.55v-1.54h-2.16v1.54h2.16zm0 2.23v-1.57h-2.16V138h2.16zm-2.16.65v1.76l2.16-.32v-1.44h-2.16zm7.42-4.09l.44.15c-.01.05-.05.1-.08.14-.28 2.15-.88 3.91-1.7 5.29.58.95 1.31 1.7 2.21 2.2-.17.13-.4.4-.5.58-.86-.52-1.56-1.24-2.13-2.13-.63.9-1.37 1.6-2.2 2.12-.1-.17-.32-.44-.47-.57.84-.49 1.61-1.25 2.26-2.24-.66-1.28-1.13-2.83-1.45-4.58l.65-.13c.27 1.48.66 2.85 1.23 4 .6-1.13 1.07-2.52 1.33-4.1h-3.54v-.7h3.83l.12-.03zM137.57 138.03c-.38.5-.78.96-1.16 1.34-.07-.15-.27-.46-.4-.6.85-.8 1.86-2.14 2.49-3.4l.8.3c-.04.09-.15.1-.24.1-.23.44-.5.89-.8 1.32l.2.06c-.02.06-.08.12-.21.13v5.64h-.67v-4.89zm1.51-4.69c-.04.1-.15.1-.23.09-.57.73-1.58 1.73-2.4 2.4-.09-.14-.28-.4-.4-.52.78-.6 1.74-1.53 2.25-2.28l.78.31zm6.77 5.94v.64h-1.63v2.17c0 .81-.41.83-2.03.83-.03-.2-.15-.47-.24-.66l.96.02c.52 0 .6 0 .6-.2v-2.16h-4.4v-.64h4.4v-.98h-4.15v-.62h6.3v.62h-1.24c-.02.05-.07.09-.19.1v.87h1.62zm-.89-5.94v3.52h-4.98v-3.52h4.98zm-3.54 8.72c-.25-.44-.82-1.1-1.32-1.57l.49-.33c.5.45 1.09 1.09 1.36 1.51l-.53.39zm2.84-7.24v-.93h-3.58v.93h3.58zm0 1.48v-.95h-3.58v.95h3.58zM250.43 158.32c1.15-.97 2.1-2.75 2.1-4.9 0-2.2-.97-3.96-2.1-4.9v-.05h.64c1.08.97 2.02 2.76 2.02 4.96s-.94 3.98-2.02 4.96h-.64v-.07zM241.83 154.25c-.49.36-1 .7-1.52 1-.1-.15-.27-.4-.43-.54 1.85-1 3.67-2.7 4.5-4.2l1.01.05c-.03.09-.1.14-.2.15 1.02 1.5 2.93 3.07 4.56 3.86-.17.17-.35.42-.47.62-.48-.27-.98-.58-1.47-.94v4.13h-.72v-.44h-4.56v.47h-.7v-4.16zm2.01-5.19c-.03.06-.13.1-.24.07-.72.97-1.8 2-2.79 2.64-.13-.13-.37-.36-.53-.48.96-.6 2.06-1.59 2.73-2.58l.83.35zm3.74 5.01c-1.12-.84-2.18-1.85-2.83-2.83-.58.93-1.55 1.95-2.67 2.83h5.5zm-5.05 3.22h4.56v-2.58h-4.56v2.58zm3.83-8.6c1.04.73 2.32 1.81 2.93 2.56l-.6.45c-.58-.75-1.83-1.84-2.89-2.61l.56-.4zM230.07 149.22h8.75v9.07h-.73v-.67h-7.3v.67h-.7v-9.07zm3.94.7h-3.23v3.09h3.23v-3.09zm-3.23 3.8v3.18h3.23v-3.18h-3.23zm7.31-.71v-3.09h-3.36v3.09h3.36zm-3.36 3.89h3.36v-3.18h-3.36v3.18zM227.15 155.43h-.72v-.49h-2.13v.54h-.72v-3.6h-2.1v4.96h6.98v.7h-6.98v.82h-.72v-6.48h-1.63v-.7h1.63v-2.45l.93.06c0 .08-.06.13-.2.15v2.24h2.1v-2.69l.92.06c0 .07-.07.13-.2.15v2.47h2.12v-2.56l.93.06c0 .07-.07.13-.2.15v2.34h1.67v.7h-1.68v3.57zm-2.84-1.17h2.13v-2.37h-2.13v2.37zM217.14 153.42c0 .6-.49 1.1-1.09 1.1-.6 0-1.09-.5-1.09-1.1 0-.6.5-1.1 1.1-1.1.62 0 1.08.51 1.08 1.1zM206.72 151.28l.5.23c-.02.04-.06.1-.12.13-.55 2.7-1.85 4.67-3.42 5.75-.13-.18-.4-.46-.57-.58 1.42-.9 2.6-2.55 3.15-4.78h-2.86v-.72h3.19l.13-.03zm1.79-.83c.23.88.55 1.74.93 2.53.89-.76 1.97-1.88 2.62-2.74l.75.56c-.05.06-.15.07-.23.06-.73.81-1.91 1.95-2.83 2.7.84 1.5 1.97 2.7 3.42 3.31-.18.15-.42.44-.55.65-1.92-.93-3.24-2.82-4.1-5.14v4.93c0 .97-.44 1.05-2.43 1.05-.04-.21-.18-.58-.3-.78l1.07.01c.89 0 .92 0 .92-.29v-8.84l.95.05c-.01.08-.06.14-.21.15v1.79zM202.28 149.34c-.05.1-.17.14-.3.13-1.6 4-4.21 6.83-7.15 8.5-.13-.16-.38-.4-.6-.57 2.87-1.6 5.5-4.35 7-8.45l1.05.39zM189.23 150.77c-.03.07-.12.13-.21.14 1.03 1.23 2.93 2.34 4.6 2.9-.17.17-.33.44-.42.63-1.65-.62-3.6-1.82-4.64-3.05-.9 1.14-2.73 2.4-4.55 3.14-.1-.17-.25-.44-.38-.6 1.87-.7 3.69-2 4.56-3.22l1.04.06zm-2.93.51v-1.02h-2.4v-.67h2.4v-1.12l.9.05c-.01.07-.06.13-.2.15v.92h3.1v-1.12l.92.05c-.01.09-.07.13-.21.15v.92h2.47v.67h-2.47v1.02h-.7v-1.02h-3.1v1.02h-.71zm.72 4.48c-.03.06-.1.1-.23.1-.52.8-1.38 1.62-2.2 2.14-.13-.14-.38-.36-.55-.47.78-.47 1.64-1.25 2.13-2.07l.85.3zm5.01-.89h-3.12v3.53h-.72v-3.53h-3.02v-.67h3.02v-1.34l.93.06c-.01.07-.07.13-.21.15v1.13h3.12v.67zm.42 3.13c-.47-.58-1.46-1.5-2.28-2.14l.56-.4c.81.62 1.83 1.5 2.31 2.09l-.59.45zM175.54 148.78c-.03.09-.13.1-.22.1-.43.7-1.24 1.67-1.94 2.32-.08-.15-.28-.4-.4-.53.65-.58 1.38-1.48 1.75-2.2l.81.31zm-1.34 4.86c-.27.4-.55.78-.82 1.09-.09-.15-.27-.46-.4-.6.7-.79 1.48-2.1 1.97-3.37l.82.29c-.03.07-.1.1-.23.1-.19.46-.42.93-.68 1.39l.2.06c-.01.06-.07.12-.2.13v5.64h-.67v-4.73zm3.91 1.19v1.78l1.57-.21.02.62c-1.5.23-3.08.47-4.03.6-.01.09-.08.13-.15.15l-.18-.81.54-.06v-3.33l.77.05c-.01.06-.06.12-.2.13v3.08l1-.13v-3.94h-1.85v-.66h1.85v-1.65h-.81c-.15.49-.33.95-.52 1.31-.13-.1-.36-.26-.5-.34.36-.7.67-1.85.85-2.95l.8.22c-.02.05-.1.1-.22.1-.06.33-.14.67-.22 1h2.65v.66h-1.38v1.65h1.54v.66h-1.54v1.45h1.32v.63h-1.31zm4.49-5.52v6.55c0 .76-.37.82-1.43.8-.02-.17-.13-.47-.21-.65l.53.01c.42 0 .47 0 .47-.17v-5.9h-1.35v8.43h-.67v-9.07h2.66zM172.28 148.51c-1.15.97-2.1 2.75-2.1 4.9 0 2.2.97 3.96 2.1 4.9v.06h-.63c-1.07-.97-2.02-2.76-2.02-4.96s.95-3.98 2.02-4.96h.63v.06zM163.84 150.26h-.89c-.3.8-.73 1.48-1.3 2.06.7.52 1.5.92 2.37 1.15-.15.14-.34.42-.44.6-.9-.28-1.7-.72-2.4-1.3-.7.6-1.55 1.05-2.5 1.4-.07-.14-.2-.33-.33-.48-.16.48-.34.93-.53 1.28l-.5-.26c.22-.46.44-1.16.62-1.8h-1.1v4.6c0 .78-.36.82-1.66.82-.03-.18-.13-.48-.23-.67l.74.02c.42 0 .47 0 .47-.17v-3.73c-.42 1.1-1 2.2-1.63 2.81-.07-.2-.25-.48-.38-.65.68-.66 1.36-1.89 1.76-3.04h-1.68v-.64h2.96c-.53-.5-1.56-1.15-2.43-1.54l.44-.46c.34.15.7.33 1.05.52.44-.32.9-.75 1.23-1.15h-3.12V149h3.67l.13-.03.53.33c-.02.04-.1.1-.15.1-.4.56-1.09 1.23-1.74 1.7.37.23.7.47.92.68l-.43.48h1.08l.38.02c0 .14-.27 1-.34 1.26.87-.29 1.65-.7 2.3-1.23-.4-.43-.78-.9-1.08-1.43-.25.35-.53.67-.8.94-.14-.13-.4-.32-.56-.42.75-.66 1.44-1.8 1.82-2.95l.87.26c-.02.07-.1.12-.22.1-.1.27-.2.53-.35.8h3.5v.65zm-.84 4.44l.41.08c0 .06 0 .15-.04.21-.2 2-.38 2.78-.68 3.08-.23.23-.46.28-1.09.28-.22 0-.48 0-.75-.02-.02-.2-.08-.5-.2-.67.48.04.92.05 1.09.05.18 0 .28-.02.37-.1.2-.2.36-.81.5-2.27h-1.72c-.36 1.25-1.06 2.39-2.64 3.06-.07-.16-.27-.4-.42-.53 1.34-.53 2-1.46 2.35-2.53h-1.64v-.62h1.8c.09-.37.14-.77.18-1.15l.9.09c-.02.09-.1.13-.22.15l-.15.92h1.78l.17-.03zm-3-4.44l-.04.07c.3.58.7 1.1 1.19 1.56.44-.47.81-1 1.06-1.63H160zM144.86 150.88v-.84h-1.3v-.57h1.3v-1l.87.05c-.01.07-.06.12-.2.14v.8h1.5v-1l.89.05c-.01.07-.07.13-.21.14v.8h1.3v.57h-1.3v.84h-.67v-.84h-1.51v.84h-.67zm8.01.14l.37.02-.01.24c-.1 4.68-.21 6.18-.55 6.63-.23.33-.5.4-1.14.4l-.81-.03c-.01-.2-.07-.5-.19-.67.52.04.98.04 1.17.04.18 0 .27-.02.37-.16.26-.32.37-1.75.48-5.79h-1.62c-.12 2.86-.54 5.25-2.24 6.71-.1-.16-.35-.38-.52-.49.2-.16.37-.34.54-.52-1.77.23-3.63.45-4.78.58-.01.09-.07.14-.15.15l-.22-.76 2.38-.23v-1h-1.91v-.56h1.91v-.85h-2.12v-.56h2.12v-.79h-1.94v-2.28h4.62v2.28h-2.02v.79h2.17v.56h-2.17v.85h2v.56h-2v.93l2.23-.23v.4c1.03-1.33 1.33-3.26 1.42-5.54h-1.31v-.67h1.33c.02-.79.02-1.62.02-2.48l.92.05c-.01.1-.09.15-.24.18l-.02 2.25h1.76l.15-.01zm-8.23 1.82h1.31v-1.2h-1.31v1.2zm3.32 0v-1.2h-1.35v1.2h1.35zM135.58 149.26c-.03.12-.14.18-.35.17-.37 1.74-.56 3.65-.56 4.8 0 .8.03 1.6.14 2.1l.8-2.01.44.47c-.43 1.08-.75 1.68-.9 2.16-.05.18-.08.35-.08.5 0 .12.02.22.05.33l-.75.14c-.34-1.01-.47-2.25-.47-3.67 0-1.4.22-3.35.56-5.2l1.12.21zm6.74 7.79c-.38.02-.77.03-1.16.03-.75 0-1.46-.04-1.97-.12-1.3-.2-1.9-.92-1.9-1.77 0-.73.4-1.35 1-2.06l.69.3c-.53.56-.9 1.06-.9 1.67 0 1.24 1.8 1.24 2.9 1.24.45 0 .92-.02 1.36-.05l-.02.76zm-4.9-6.51c1.36-.03 3.2-.16 4.6-.4l.06.75c-1.31.22-3.44.36-4.65.4l-.01-.75zM124.7 149.63c1.1.35 2.38.9 3.16 1.45l-.4.67c-.76-.54-2-1.1-3.1-1.48l.34-.64zm-.03 7.39c3.75-1.17 6.24-3.3 7.5-6.25.23.18.47.32.69.44-1.32 2.92-3.9 5.19-7.48 6.4-.01.1-.07.2-.15.24l-.56-.83zM122.6 150.23v7.03h-.75v-.67h-5.82v.7h-.74v-7.06h7.31zm-.76 5.65v-4.93h-5.82v4.93h5.82zM113.5 151.97h-2.2v.73c0 2.04-.62 4.1-3.38 5.36-.14-.17-.36-.4-.55-.53 2.69-1.17 3.18-3.07 3.18-4.82v-.75h-3.41v2.65h-.75v-2.65h-2.07v-.72h2.07v-2.31l1 .06c0 .1-.1.2-.25.22v2.03h3.4v-2.45l1.02.06c-.01.1-.1.18-.27.2v2.19h2.2v.73zM99.32 150.41c-.04.1-.13.17-.26.17-.38 3.31-1.48 6.2-3.23 6.2-.9 0-1.7-.9-1.7-2.58 0-2.56 1.99-4.7 4.76-4.7 3.05 0 4.37 1.95 4.37 4.03 0 2.54-1.46 3.76-4.02 4.36-.1-.17-.27-.46-.44-.65 2.43-.47 3.68-1.66 3.68-3.68 0-1.76-1.12-3.36-3.6-3.36l-.32.02.76.19zm-1.02-.14c-2.13.27-3.46 2.05-3.46 3.91 0 1.14.49 1.85 1 1.85 1.28.01 2.2-2.83 2.46-5.76zM92.85 150.33v7.08c0 .5-.12.74-.47.86-.36.12-1.01.13-1.98.13-.03-.21-.15-.53-.25-.74l1.08.02c.88 0 .92 0 .92-.28v-6.37h-3.3c-.02.44-.07.9-.18 1.36 1.1.97 2.42 2.26 3.08 3.08l-.58.46c-.58-.73-1.7-1.9-2.72-2.85-.4 1.08-1.17 2.14-2.7 3.04-.1-.16-.34-.41-.51-.54 2.4-1.31 2.8-3.11 2.88-4.55h-3.14v7.37h-.71v-8.07h3.85v-1.86l.93.06c-.01.07-.06.13-.21.15v1.65h4.01zM76.01 151.8h.5c.67-.83 1.24-1.8 1.68-2.81l.8.28c-.03.07-.13.12-.25.1-.4.87-.87 1.7-1.42 2.44h1.38v.64h-1.88c-.35.43-.73.82-1.13 1.18h2.47v4.58h-.68v-.43h-2.52v.62h-.67v-3.7c-.28.2-.58.37-.89.54l-.4-.54c.44-.23.88-.5 1.3-.8v-.28h.37c.44-.35.88-.76 1.28-1.18h-2.8v-.64h2.18v-1.44h-1.7v-.64h1.7v-1.26l.88.05c0 .07-.06.13-.2.15v1.06h1.37v.64h-1.37v1.44zm1.47 3.6v-1.17h-2.52v1.17h2.52zm-2.51 1.78h2.52V156h-2.52v1.18zm4.13-8.09h3.2l.15-.03c.05.03.1.07.47.23-.01.04-.05.09-.1.1-.4.92-.94 2.08-1.5 3.22 1.11 1.1 1.58 1.92 1.58 2.7 0 1.7-1.11 1.7-1.8 1.7l-.49-.01c-.01-.2-.1-.51-.24-.71l.8.03c.46 0 1.02 0 1.02-1.02 0-.7-.5-1.46-1.63-2.55.5-1.07.95-2.1 1.3-2.97H79.8v8.6h-.7v-9.29zM78.7 166h4.16v.67h-8.17v2.13c0 1.64-.14 4.04-1.05 5.67-.13-.13-.44-.33-.61-.42.87-1.55.95-3.7.95-5.25V166h3.98v-1.44l.94.06c0 .07-.06.13-.2.15V166zm.56.98c-.01.07-.07.13-.21.15v1.13h3.67v.65h-3.67v1.63h2.92v3.91h-.72v-.4h-4.82v.44h-.7v-3.94h2.6v-3.62l.93.05zm1.99 6.42v-2.2h-4.82v2.2h4.82zM88.55 170.42c.3.62.69 1.16 1.16 1.64.8-.43 1.77-1.04 2.37-1.51l.68.5c-.04.05-.14.06-.23.05-.61.42-1.56.96-2.36 1.38.83.67 1.9 1.15 3.16 1.4-.15.15-.34.44-.44.64-2.46-.57-4.15-1.96-5.05-4.08h-1.6v2.97l2.88-.5.03.6c-1.68.33-3.48.66-4.6.85 0 .09-.06.14-.13.16l-.32-.78 1.4-.21v-3.1h-1.9v-.66h1.9v-4.75h6.63v.62h-5.9v.97h5.58v.6h-5.58v.97h5.58v.6h-5.58v1h6.93v.66h-4.61zM95.87 165.76v2.53c0 1.78-.13 4.37-1.04 6.16-.13-.12-.41-.3-.6-.36.89-1.7.96-4.1.96-5.8v-3.18h8.75v.66h-8.07zm4.33 6.4v1.37h3.77v.66h-8.26v-.66h1.42v-2.35l.87.06c0 .08-.07.13-.21.14v2.15h1.72v-3.15l.9.06c-.01.07-.07.13-.21.15v.94h2.65v.64h-2.65zm-1.96-1.58h-.61v-2.06c-.35.72-.8 1.39-1.25 1.78-.1-.14-.3-.34-.42-.45.56-.44 1.15-1.3 1.51-2.12h-1.24v-.59h1.4v-1.09l.8.05c-.01.07-.07.13-.2.14v.9h1.27v.59h-1.27v.29c.3.21 1.06.8 1.25.97l-.38.49c-.17-.2-.55-.55-.86-.84v1.94zm3.72 0h-.61v-2.35c-.42.8-1.02 1.57-1.58 2-.1-.15-.28-.35-.42-.47.63-.4 1.31-1.21 1.72-2.01h-1.2v-.59h1.48v-1.09l.81.05c-.01.07-.06.13-.2.14v.9h1.76v.59h-1.48c.4.82 1.07 1.6 1.79 1.98-.15.12-.34.34-.43.5-.63-.4-1.23-1.13-1.64-1.94v2.29zM106.82 173.56v-7.15h-.02l-1.3.76-.21-.66 1.64-.93h.75v7.98h-.86zM111.57 169.33c-.85-.42-1.24-1.12-1.24-1.8 0-1.24.96-2.08 2.24-2.08 1.44 0 2.12.98 2.12 1.94 0 .68-.36 1.43-1.3 1.89v.04c.97.42 1.58 1.13 1.58 2.09 0 1.35-1.1 2.28-2.5 2.28-1.5 0-2.44-.97-2.44-2.12 0-1.03.6-1.78 1.53-2.2v-.04zm2.51 2.17c0-1-.67-1.51-1.72-1.85-.93.31-1.43 1-1.43 1.78 0 .9.6 1.6 1.55 1.6 1.02 0 1.6-.7 1.6-1.53zm-2.91-4.06c-.01.85.6 1.32 1.47 1.59.69-.27 1.2-.81 1.2-1.57 0-.67-.37-1.36-1.3-1.36-.92 0-1.37.65-1.37 1.34zM125.79 171.32v.7h-3.95v2.44h-.72v-2.44h-5v-.7h1.77v-2.93h3.23v-1.75h-2.73c-.5.84-1.1 1.6-1.7 2.15-.12-.13-.4-.36-.56-.47.98-.85 1.9-2.32 2.46-3.8l.9.3c-.04.1-.14.11-.24.1-.14.34-.3.7-.48 1.02h6.5v.7h-3.44v1.75h3.2v.68h-3.2v2.25h3.96zm-7.19 0h2.52v-2.25h-2.52v2.25zM76.56 183.32l.47.28c-.03.04-.07.1-.14.1-.33.86-.8 1.7-1.36 2.46.43.33 1.3 1.04 1.53 1.24l-.4.64c-.25-.29-.8-.8-1.24-1.2v4.4h-.7v-4.1c-.4.46-.84.86-1.28 1.18-.08-.2-.27-.5-.38-.63 1.14-.8 2.35-2.2 3-3.67h-2.83v-.66h1.5v-2.02l.9.05c-.02.07-.07.13-.2.15v1.82h1l.13-.04zm.36-1.62h5.98v.63h-5.98v-.63zm.24 9.53v-4.73h5.43v4.69h-.7v-.47h-4.06v.51h-.67zm.62-8.12h4.2v2.61h-4.2v-2.61zm1.72 4.02h-1.67v1.17h1.67v-1.17zm-1.67 2.97h1.67v-1.2h-1.67v1.2zm3.49-4.96v-1.44h-2.9v1.44h2.9zm.57 3.16v-1.17h-1.72v1.17h1.72zm-1.72 1.8h1.72v-1.2h-1.72v1.2zM87.98 183.6c-.02.05-.07.1-.14.1-.34.9-.85 1.76-1.44 2.55.48.34 1.43 1.06 1.68 1.26l-.41.6c-.28-.29-.9-.83-1.38-1.24v4.37h-.7v-4.02c-.46.5-.95.94-1.42 1.3-.07-.2-.26-.52-.38-.65 1.22-.83 2.52-2.3 3.21-3.85h-3.02v-.66h1.61v-2.04l.9.05c-.01.07-.06.13-.2.15v1.83h1.1l.12-.04.47.29zm3.34 6.66h2.38v.7h-6.38v-.7h1.1v-6.45l.9.06c-.01.07-.06.13-.21.15v6.24h1.5v-8.92l.93.05c0 .09-.07.14-.22.15v3.6h2.03v.68h-2.03v4.44zM104.35 188.44h-4.08c.7 1.3 2.1 1.93 4.22 2.14-.16.16-.35.46-.43.66-2.3-.3-3.76-1.13-4.51-2.8h-.11c-.52 1.4-1.65 2.32-4.5 2.8-.05-.2-.23-.5-.36-.64 2.46-.36 3.55-1.06 4.08-2.15h-3.95v-.65h4.18c.1-.32.15-.67.2-1.05h-4.33v-.66h4.37v-.97H95.8v-.63h3.33v-.94h-3.9v-.66h2.3c-.16-.4-.52-.93-.85-1.3l.6-.26c.41.4.8.98.96 1.4l-.37.16h3.09l-.28-.13c.33-.38.75-1 .98-1.43l.84.33c-.03.06-.1.1-.21.1-.23.32-.6.78-.92 1.13h2.47v.66h-3.96v.94h3.42v.63h-3.42v.97h4.42v.66h-4.25c-.02.05-.1.1-.2.12-.06.33-.1.64-.18.94h4.72v.63zM107.1 188.07c-.5.32-1 .62-1.53.88-.1-.17-.27-.44-.4-.6 1.82-.84 3.65-2.3 4.5-3.56l1.03.06c-.02.07-.1.13-.2.14 1.02 1.23 2.91 2.56 4.53 3.24-.16.17-.34.44-.45.64-.5-.24-1.04-.54-1.57-.88v3.2h-.72v-.33h-4.49v.38h-.7v-3.17zm-.78-5v1.25h-.69v-1.9h4.03v-1.09l.94.06c-.01.07-.07.13-.21.14v.89h4.09v1.9h-.72v-1.25h-7.44zm2.77.89c-.04.06-.12.1-.23.1-.69.82-1.75 1.67-2.71 2.2-.1-.14-.33-.4-.47-.52.92-.48 1.97-1.28 2.6-2.1l.81.32zm3.39 3.67c-.96-.67-1.86-1.43-2.44-2.14-.52.68-1.34 1.45-2.3 2.14h4.74zm-4.68 2.58h4.49v-1.93h-4.49v1.93zm6.03-3.96c-.58-.63-1.8-1.56-2.8-2.19l.47-.43c1 .6 2.24 1.5 2.85 2.12l-.52.5zM116.68 185.9v1.08h2.65v3.22h-2.65v.71h-.66v-7.96h.89c.2-.49.4-1.15.5-1.63l.9.18c-.02.1-.1.12-.23.13-.13.37-.32.88-.52 1.32h1.67v2.95h-2.55zm1.91-2.32h-1.91v1.7h1.91v-1.7zm.08 4.04h-2v1.95h2v-1.95zm6.77-5.04h-2.58v1.68h2.18v4.65c0 .74-.35.77-1.49.77-.03-.18-.13-.45-.21-.63l.56.01c.42 0 .47 0 .47-.16v-3.98h-1.51v6.31h-.67v-6.31h-1.43v4.83h-.66v-5.49h2.08v-1.68h-2.55v-.66h5.8v.66zM126.22 184.44c.77-.2 1.9-.53 3.01-.85l.1.58c-.98.32-2 .65-2.64.84 0 .1-.06.14-.13.17l-.34-.74zm4.01 5.61c-.04.05-.13.08-.23.06-.84.43-2.13.87-3.18 1.14-.13-.14-.35-.4-.48-.52 1.03-.22 2.36-.63 3.14-1.06l.75.38zm-3.14-8.46c.75.2 1.73.56 2.25.84l-.32.56c-.5-.29-1.49-.68-2.25-.92l.32-.48zm.57 7.93v-4.37h6.94v4.37h-6.94zm.69-3.86v.78h5.55v-.78h-5.55zm0 1.27v.79h5.55v-.79h-5.55zm0 1.27v.81h5.55v-.81h-5.55zm4.51-5.5c.25.88.87 1.68 3.07 2.02-.14.14-.3.4-.38.59-1.86-.33-2.64-1.06-3.04-1.88-.38.81-1.14 1.35-2.78 1.68-.05-.15-.2-.4-.33-.51 1.76-.32 2.43-.89 2.68-1.9h-1.22c-.26.33-.59.65-.97.95-.13-.14-.37-.29-.54-.36.81-.56 1.35-1.31 1.64-1.96l.8.12c-.01.07-.07.12-.2.13-.08.18-.19.37-.32.56h3.85l.13-.01.42.05c-.14.4-.74 1.26-1.1 1.6l-.57-.21c.23-.23.48-.56.69-.88h-1.83zm2.2 8.55c-.69-.35-1.85-.8-3.04-1.18l.58-.37c1.17.36 2.46.82 3.24 1.17l-.78.38zM144.82 182.5c.17 0 .2 0 .32-.04l.46.23c-.02.05-.06.1-.1.1-.4 1.1-1 2.04-1.73 2.82.73.65 1.63 1.2 2.7 1.54-.15.14-.35.43-.46.6l-.49-.2v3.63h-.7v-.46h-3.13v.5h-.67v-3.6c-.29.13-.57.26-.87.36-.08-.18-.27-.45-.4-.59l.08-.02c-.18-.35-.57-.96-.9-1.44v5.25h-.69v-5.3c-.4 1.27-.95 2.52-1.5 3.26-.08-.2-.26-.47-.39-.63.73-.92 1.47-2.66 1.8-4.2h-1.54v-.67h1.64v-2.35l.89.06c-.01.07-.06.12-.2.14v2.14h1.43v.67h-1.43v.77c.32.36 1.18 1.5 1.38 1.78l-.36.46c1-.36 2-.96 2.84-1.73-.5-.56-.9-1.13-1.2-1.7-.35.48-.74.92-1.13 1.26-.12-.13-.36-.34-.5-.46.91-.75 1.78-2.05 2.27-3.4l.83.28c-.02.06-.1.1-.22.1-.1.28-.23.54-.37.81h2.34zm.12 4.78c-.63-.34-1.17-.75-1.65-1.2-.5.46-1.03.86-1.6 1.2h3.25zm-3.24 2.82h3.13v-2.2h-3.13v2.2zm.43-6.97l-.12.18c.3.62.72 1.25 1.28 1.83.55-.59 1.02-1.27 1.34-2.02h-2.5zM152.45 182.54h-.98v8.7h-.7v-2.2c-1.26.22-2.51.45-3.34.58-.02.08-.1.14-.16.15l-.27-.82c.27-.03.6-.07.94-.13v-6.28h-.92v-.67h5.43v.67zm-1.67 1.54v-1.55h-2.17v1.55h2.17zm0 2.22v-1.57h-2.17v1.57h2.17zm-2.17.67v1.76l2.17-.32v-1.44h-2.17zm7.43-4.09l.44.15c-.01.05-.05.1-.08.14-.29 2.15-.88 3.91-1.7 5.29.58.95 1.31 1.7 2.2 2.2-.17.13-.4.4-.5.59-.85-.52-1.55-1.24-2.12-2.13-.64.9-1.38 1.6-2.2 2.12-.1-.17-.32-.44-.48-.57.84-.5 1.62-1.25 2.26-2.24-.67-1.28-1.13-2.83-1.45-4.58l.66-.13c.26 1.48.65 2.85 1.23 4 .6-1.13 1.07-2.52 1.33-4.1h-3.54v-.7h3.83l.12-.04zM159.05 186.35c-.38.5-.78.96-1.16 1.34-.07-.15-.27-.46-.4-.6.85-.8 1.85-2.14 2.48-3.4l.8.3c-.04.1-.15.1-.24.1-.23.44-.5.9-.8 1.32l.2.06c-.02.06-.08.12-.21.13v5.64h-.67v-4.89zm1.51-4.7c-.04.1-.15.1-.23.09-.57.73-1.58 1.73-2.4 2.4-.08-.14-.28-.4-.4-.52.78-.6 1.74-1.53 2.25-2.28l.78.31zm6.77 5.95v.64h-1.63v2.17c0 .8-.41.83-2.03.83-.03-.2-.15-.47-.24-.66l.96.02c.52 0 .6 0 .6-.2v-2.16h-4.4v-.64h4.4v-.98h-4.15V186h6.3v.62h-1.24c-.02.05-.07.09-.19.1v.87h1.62zm-.89-5.95v3.52h-4.97v-3.52h4.97zm-3.54 8.73c-.26-.44-.82-1.1-1.32-1.57l.49-.33c.5.45 1.09 1.09 1.36 1.51l-.53.39zm2.84-7.25v-.93h-3.58v.93h3.58zm0 1.49v-.95h-3.58v.95h3.58zM28.1 190.33h-4.68v-.54l.77-.82c1.88-1.92 2.83-3.08 2.83-4.38 0-.85-.37-1.64-1.5-1.64-.64 0-1.2.35-1.59.66l-.3-.62c.5-.44 1.2-.78 2.05-.78 1.6 0 2.23 1.17 2.23 2.27 0 1.5-1.05 2.78-2.68 4.44l-.62.66v.02h3.5v.73zM29.33 186.36c0-2.8 1.08-4.15 2.56-4.15 1.5 0 2.42 1.43 2.42 4.04 0 2.77-.96 4.2-2.54 4.2-1.44.01-2.44-1.42-2.44-4.09zm4.08-.06c0-2-.47-3.37-1.58-3.37-.94 0-1.6 1.27-1.6 3.37s.58 3.43 1.57 3.43c1.17 0 1.61-1.53 1.61-3.43zM37.08 190.33v-7.15h-.02l-1.3.76-.21-.66 1.64-.93h.75v7.98h-.86zM44.16 186.56c-.43.55-1.05.89-1.82.89-1.35 0-2.19-1.07-2.19-2.42 0-1.46.95-2.8 2.5-2.8 1.48 0 2.42 1.3 2.42 3.34 0 2.65-1.33 4.5-3.36 4.82-.37.06-.7.09-.94.07v-.74c.22.02.48 0 .81-.06 1.33-.2 2.34-1.28 2.6-3.1h-.02zm-3.11-1.59c0 1.08.6 1.8 1.51 1.8.86 0 1.64-.66 1.64-1.3 0-1.53-.56-2.57-1.6-2.57-.93 0-1.55.87-1.55 2.07zM55.58 188.09v.7h-3.95v2.44h-.72v-2.44h-5v-.7h1.78v-2.93h3.23v-1.75H48.2c-.5.84-1.09 1.6-1.69 2.15-.13-.13-.4-.36-.57-.47.98-.85 1.92-2.32 2.46-3.8l.9.29c-.04.1-.14.12-.24.1-.14.35-.3.7-.47 1.03h6.51v.7h-3.44v1.75h3.21v.68h-3.2v2.25h3.92zm-7.18 0h2.51v-2.25H48.4v2.25z"/></svg>