<?xml version="1.0" encoding="utf-8"?>
<!-- Generator: Adobe Illustrator 15.0.0, SVG Export Plug-In  -->
<!DOCTYPE svg PUBLIC "-//W3C//DTD SVG 1.1//EN" "http://www.w3.org/Graphics/SVG/1.1/DTD/svg11.dtd" [
	<!ENTITY ns_flows "http://ns.adobe.com/Flows/1.0/">
]>
<svg version="1.1"
	 xmlns="http://www.w3.org/2000/svg" xmlns:xlink="http://www.w3.org/1999/xlink" xmlns:a="http://ns.adobe.com/AdobeSVGViewerExtensions/3.0/"
	 x="0px" y="0px" width="132px" height="132px" viewBox="0 0 132 132" enable-background="new 0 0 132 132" xml:space="preserve">
<defs>
</defs>
<polygon fill="#33CCFF" points="48.342,132.074 17.694,114.378 0,83.732 0,48.342 17.694,17.694 48.342,0 83.732,0 114.378,17.694 
	132.073,48.342 132.073,83.732 114.378,114.378 83.732,132.074 "/>
<g>
	<g>
		<path d="M23.382,40.046c0.969-0.983,2.17-1.977,3.525-2.914c4.151-2.832,7.046-2.666,8.076-0.73
			c0.816,1.512,0.479,3.306-1.337,4.918c-0.195,0.173-0.389,0.348-0.582,0.523c1.379-0.36,2.62,0.106,3.651,0.824
			c0.993,0.691,1.963,1.401,2.914,2.13c0.292,0.229,0.254,0.51-0.091,0.702c-0.292,0.162-0.582,0.327-0.871,0.495
			c-0.271,0.157-0.509,0.166-0.735-0.009c-1.045-0.757-2.114-1.492-3.206-2.203c-1.844-1.184-2.152-1.148-3.93,0.089
			c-0.414,0.292-0.825,0.589-1.233,0.893c1.101,1.485,2.203,2.971,3.304,4.456c0.192,0.26,0.14,0.511-0.148,0.729
			c-0.283,0.214-0.564,0.431-0.845,0.651c-0.285,0.224-0.542,0.212-0.745-0.04c-2.609-3.257-5.219-6.514-7.828-9.771
			C23.111,40.552,23.137,40.289,23.382,40.046z M32.881,37.76c-0.984-1.676-2.841-1.609-5.572,0.272
			c-0.614,0.427-1.16,0.867-1.707,1.39c1.131,1.526,2.263,3.052,3.395,4.578c0.415-0.308,0.832-0.609,1.251-0.906
			C33.072,41.123,33.955,39.594,32.881,37.76z"/>
		<path d="M47.712,27.948c0.002,0.006,0.004,0.012,0.006,0.019c0.09,0.31-0.076,0.536-0.479,0.658
			c-2.457,0.746-4.881,1.628-7.262,2.646c0.627,1.468,1.255,2.935,1.883,4.403c2.084-0.892,4.204-1.671,6.35-2.338
			c0.376-0.117,0.625-0.012,0.718,0.296c0.087,0.292-0.066,0.496-0.436,0.61c-2.116,0.657-4.205,1.426-6.259,2.305
			c0.768,1.793,1.535,3.587,2.302,5.38c1.991-0.852,4.019-1.59,6.073-2.213c0.338-0.103,0.566,0.009,0.657,0.319
			c0.001,0.006,0.003,0.012,0.005,0.018c0.091,0.31-0.037,0.525-0.369,0.626c-2.521,0.765-5.001,1.705-7.422,2.82
			c-0.318,0.147-0.559,0.072-0.698-0.22c-1.794-3.803-3.588-7.606-5.382-11.41c-0.138-0.292-0.004-0.546,0.39-0.727
			c2.986-1.376,6.046-2.536,9.157-3.48C47.356,27.537,47.622,27.638,47.712,27.948z"/>
		<path d="M59.798,25.417c2.35,3.973,4.375,8.058,6.067,12.215c0.134,0.338-0.022,0.57-0.406,0.586
			c-0.351,0.014-0.701,0.031-1.051,0.052c-0.323,0.019-0.513-0.101-0.633-0.36c-0.498-1.185-1.021-2.363-1.568-3.534
			c-1.863,0.168-3.719,0.42-5.563,0.756c-0.216,1.275-0.406,2.551-0.57,3.825c-0.047,0.282-0.199,0.448-0.517,0.516
			c-0.325,0.07-0.649,0.143-0.973,0.218c-0.375,0.088-0.588-0.095-0.55-0.456c0.531-4.459,1.4-8.937,2.609-13.391
			c0.081-0.282,0.284-0.45,0.655-0.504c0.578-0.085,1.156-0.164,1.735-0.235C59.405,25.06,59.645,25.167,59.798,25.417z
			 M61.792,33.461c-1.047-2.165-2.182-4.305-3.403-6.415c-0.614,2.358-1.137,4.724-1.569,7.089
			C58.469,33.845,60.128,33.62,61.792,33.461z"/>
		<path d="M69.309,36.364c1.128,0.752,2.107,1.088,3.234,1.177c1.873,0.154,2.952-0.488,3.201-2.338
			c0.201-1.52-0.594-2.548-2.588-3.33c-3.125-1.216-4.671-2.521-4.658-4.244c-0.001-1.945,1.941-3.272,5.308-3.003
			c1.749,0.145,3.367,0.596,4.653,1.231c0.306,0.142,0.42,0.372,0.378,0.635c-0.015,0.094-0.029,0.188-0.044,0.282
			c-0.061,0.375-0.393,0.457-0.801,0.205c-1.433-0.842-2.716-1.254-4.117-1.375c-1.706-0.145-2.899,0.46-2.965,2.09
			c-0.057,1.388,0.951,2.391,2.573,3.005c3.782,1.483,4.768,2.92,4.45,4.826c-0.404,2.297-2.218,3.298-5.371,3.027
			c-1.307-0.108-2.577-0.447-3.57-0.96c-0.263-0.138-0.364-0.31-0.359-0.595c0.001-0.114,0.003-0.228,0.004-0.341
			C68.642,36.238,68.939,36.127,69.309,36.364z"/>
		<path d="M95.083,37.359c-0.918,1.985-2.111,3.201-3.789,3.949c-1.446,0.624-3.27,0.64-5.238-0.012
			c-3.87-1.267-5.671-4.242-4.831-8.533c0.826-4.244,4.279-6.349,9.229-4.741C95.39,29.684,96.962,33.463,95.083,37.359z
			 M83.549,33.297c-0.927,3.87,0.216,6.185,2.823,7.043c2.606,0.867,4.928-0.299,6.496-3.956c0.765-1.822,0.922-3.49,0.464-4.61
			c-0.593-1.438-1.608-2.269-3.196-2.796C86.927,27.926,84.471,29.446,83.549,33.297z"/>
		<path d="M112.392,40.715c-2.629,3.281-5.258,6.563-7.887,9.844c-0.203,0.252-0.461,0.264-0.745,0.04
			c-0.325-0.255-0.651-0.506-0.98-0.754c-0.256-0.192-0.354-0.382-0.327-0.669c0.248-4.069,0.127-8.254-0.38-12.497
			c-1.681,2.927-3.36,5.854-5.041,8.782c-0.161,0.28-0.409,0.334-0.718,0.16c-0.297-0.167-0.595-0.331-0.895-0.492
			c-0.311-0.168-0.396-0.406-0.246-0.692c1.96-3.72,3.92-7.44,5.881-11.161c0.149-0.286,0.434-0.33,0.818-0.123
			c0.438,0.236,0.873,0.477,1.306,0.722c0.335,0.19,0.488,0.39,0.52,0.693c0.572,4.295,0.756,8.537,0.569,12.666
			c2.012-2.71,4.022-5.421,6.034-8.132c0.192-0.259,0.484-0.257,0.84,0.012c0.343,0.259,0.684,0.522,1.022,0.789
			C112.515,40.18,112.594,40.463,112.392,40.715z"/>
	</g>
</g>
<path d="M57.62,96.054c-2.278,2.346-5.36,3.484-8.978,3.484c-3.685,0-6.365-1.206-8.509-3.283c-3.35-3.35-5.494-8.844-5.494-17.621
	c0-9.782,2.479-16.281,6.231-20.033c2.412-2.345,5.494-3.618,9.045-3.618c3.618,0,6.365,1.139,8.71,3.618
	c2.68,2.948,5.025,9.111,5.025,18.09C63.65,85.937,61.372,92.168,57.62,96.054z M43.951,60.745
	c-2.211,2.68-3.886,8.978-3.886,17.554c0,6.767,1.273,12.396,3.082,15.009c1.541,2.144,3.417,3.215,6.03,3.215
	c2.077,0,3.886-0.938,5.226-2.545c2.546-3.016,3.819-8.51,3.819-16.215c0-8.71-1.474-14.338-3.082-16.616
	c-1.541-2.144-3.283-3.082-5.829-3.082C46.899,58.065,45.292,59.137,43.951,60.745z"/>
<path d="M74.502,67.042c-1.072-0.133-2.412-0.201-3.552-0.401c0.201-3.015,0.402-6.164,0.671-9.179
	c2.546-1.273,6.7-2.479,11.658-2.479c3.752,0,6.968,0.536,9.715,2.613c2.077,1.541,3.685,4.422,3.685,7.102
	c0,5.628-4.221,9.38-9.111,10.788v0.401c6.834,1.005,10.317,5.562,10.317,10.452c0,4.557-2.345,7.639-5.293,9.916
	c-2.747,2.077-7.437,3.283-12.864,3.283c-2.813,0-6.365-0.268-8.777-1.005c-0.535-3.082-1.004-6.298-1.406-9.38
	c1.139-0.269,2.412-0.536,3.551-0.737l1.675,6.097c0.134,0.402,0.402,0.604,0.536,0.737c1.608,0.737,3.618,0.938,5.562,0.938
	c3.417,0,6.565-1.006,8.308-2.412c1.876-1.608,3.149-3.819,3.149-6.969c0-5.427-4.958-8.643-11.122-8.643c-0.737,0-3.217,0-4.69,0
	c-0.067-1.072-0.134-2.346-0.067-3.418c9.983,0.201,14.808-3.885,14.808-9.179c0-1.943-0.536-3.819-2.077-5.226
	c-1.675-1.608-4.154-2.077-6.767-2.077c-2.412,0-4.69,0.603-6.299,1.675c-0.134,0.134-0.335,0.402-0.401,0.737L74.502,67.042z"/>
</svg>
