<svg xmlns="http://www.w3.org/2000/svg" width="82.279" height="25.991" viewBox="0 0 82.279 25.991">
  <g id="グループ_26" data-name="グループ 26" transform="translate(-20 -9.004)">
    <g id="グループ_22" data-name="グループ 22" transform="translate(20 20.406)">
      <path id="パス_16" data-name="パス 16" d="M421.579,259.824a3.832,3.832,0,0,1-2.805,4l2.956,3.429a1.044,1.044,0,0,1,.342.654c0,.262-.131.422-.845,1.026-.573.482-.744.644-1.045.644-.242,0-.413-.181-.664-.483l-3.4-4.213c-.312-.392-.312-.4-.875-.4h-1.689v3.57c0,1.347,0,1.347-1.427,1.347-1.408,0-1.408,0-1.408-1.347V257c0-1.81,0-1.81,1.86-1.81H416.7C419.719,255.189,421.579,257.129,421.579,259.824Zm-8.024-2.051v4.143h2.8c1.78,0,2.393-.835,2.393-2.041a1.964,1.964,0,0,0-2.243-2.1Z" transform="translate(-410.72 -254.998)" fill="#4f2a14"/>
      <path id="パス_17" data-name="パス 17" d="M465.046,269.587a5.959,5.959,0,0,1-6.083-6.3v-6.646c0-1.448,0-1.448,1.4-1.448s1.408,0,1.408,1.448v6.817a3.29,3.29,0,1,0,6.566,0v-6.817c0-1.448,0-1.448,1.408-1.448s1.407,0,1.407,1.448v6.646A5.98,5.98,0,0,1,465.046,269.587Z" transform="translate(-443.79 -254.998)" fill="#4f2a14"/>
      <path id="パス_18" data-name="パス 18" d="M517.61,256.385l5.369,9.492h.06c-.191-2.162-.181-4.877-.181-6.646v-2.594c0-1.448,0-1.448,1.407-1.448s1.408,0,1.408,1.448v10.749c0,2.011,0,2.011-1.8,2.011-1.78,0-1.78,0-2.363-1.086l-5.48-9.713-.06.02c.191,2.121.191,4.243.191,5.933v3.489c0,1.358,0,1.358-1.377,1.358-1.408,0-1.408,0-1.408-1.358V257.321c0-2.132,0-2.132,2.111-2.132C516.957,255.189,516.976,255.2,517.61,256.385Z" transform="translate(-481.089 -254.998)" fill="#4f2a14"/>
      <path id="パス_19" data-name="パス 19" d="M566.861,263.46a18.512,18.512,0,0,1,0-3.157,6.29,6.29,0,0,1,12.528,0,18.376,18.376,0,0,1,0,3.157,6.291,6.291,0,0,1-12.528,0Zm9.723-.332a17.264,17.264,0,0,0,0-2.494,3.455,3.455,0,0,0-6.908,0,14.807,14.807,0,0,0,0,2.494,3.455,3.455,0,0,0,6.908,0Z" transform="translate(-517.705 -254.582)" fill="#4f2a14"/>
    </g>
    <g id="グループ_23" data-name="グループ 23" transform="translate(20 9.004)">
      <path id="パス_6" data-name="パス 6" d="M181.138,266.709a2.026,2.026,0,0,1,2.149,2.318v2.752c0,.71,0,.71-.736.71-.71,0-.71,0-.71-.71v-2.673a.879.879,0,0,0-.942-.979,1.517,1.517,0,0,0-1.064.455V271.8c0,.694,0,.694-.72.694s-.725,0-.725-.694v-6.135c0-.752,0-.752.72-.752s.725,0,.725.752v1.456A2.179,2.179,0,0,1,181.138,266.709Z" transform="translate(-178.391 -264.66)" fill="#4f2a14"/>
      <path id="パス_7" data-name="パス 7" d="M204.589,275.941a4.076,4.076,0,0,1-2.234.572c-1.541,0-2.234-.836-2.234-1.831,0-.9.619-1.72,2.112-1.72a4.336,4.336,0,0,1,1.229.164v-.386c0-.535-.259-.821-.99-.821a3.139,3.139,0,0,0-1,.191,1.909,1.909,0,0,1-.424.106c-.121-.011-.191-.058-.36-.44a1.527,1.527,0,0,1-.17-.5c0-.117.085-.217.44-.355a4.212,4.212,0,0,1,1.514-.286c1.54,0,2.371.661,2.371,2.154v2.652A.5.5,0,0,1,204.589,275.941Zm-1.127-.868v-.979a3.443,3.443,0,0,0-1.038-.164c-.64,0-.937.323-.937.72,0,.482.376.715.947.715A1.9,1.9,0,0,0,203.462,275.073Z" transform="translate(-193.286 -268.583)" fill="#4f2a14"/>
      <path id="パス_8" data-name="パス 8" d="M222.928,265.659c-.757,0-.757,0-.757-.778,0-.762,0-.762.757-.762s.762,0,.762.762C223.69,265.659,223.69,265.659,222.928,265.659Zm.731,1.35v4.245c0,.694,0,.694-.731.694-.715,0-.715,0-.715-.694v-4.245c0-.741,0-.741.715-.741C223.658,266.267,223.658,266.267,223.658,267.008Z" transform="translate(-208.401 -264.118)" fill="#4f2a14"/>
      <path id="パス_9" data-name="パス 9" d="M237.648,271.14a2.1,2.1,0,0,1-.122.535c-.116.387-.175.5-.376.5a2.017,2.017,0,0,1-.376-.064,2.124,2.124,0,0,0-.514-.064c-.392,0-.6.191-.6.672v3.012c0,.677,0,.677-.72.677s-.73,0-.73-.677v-3.287a1.68,1.68,0,0,1,1.868-1.815,4.41,4.41,0,0,1,1.1.143C237.468,270.854,237.648,270.939,237.648,271.14Z" transform="translate(-216.652 -268.583)" fill="#4f2a14"/>
      <path id="パス_10" data-name="パス 10" d="M262.936,266.709a3.406,3.406,0,0,1,1.228.249v-1.3c0-.746,0-.746.725-.746s.725,0,.725.746v5.775a.526.526,0,0,1-.254.5,4.073,4.073,0,0,1-2.234.656,2.346,2.346,0,0,1-2.509-2.218,10.207,10.207,0,0,1,0-1.5A2.165,2.165,0,0,1,262.936,266.709Zm.222,4.473a1.949,1.949,0,0,0,1.006-.323v-2.493a2.293,2.293,0,0,0-1.09-.275.923.923,0,0,0-1.017.99,7.293,7.293,0,0,0,0,1.069A1,1,0,0,0,263.158,271.182Z" transform="translate(-234.736 -264.66)" fill="#4f2a14"/>
      <path id="パス_11" data-name="パス 11" d="M287.456,274.1h-2.848v.106c0,.672.529,1.032,1.228,1.032a2.922,2.922,0,0,0,1.1-.207,1.5,1.5,0,0,1,.434-.143c.148,0,.222.111.386.482a1.159,1.159,0,0,1,.143.45c0,.106-.064.191-.365.334a4.239,4.239,0,0,1-1.684.36,2.418,2.418,0,0,1-2.61-2.255,10.786,10.786,0,0,1,.005-1.376,2.358,2.358,0,0,1,2.493-2.249,2.3,2.3,0,0,1,2.44,2.451v.275C288.176,274.025,288.06,274.1,287.456,274.1Zm-.593-1.117a1.04,1.04,0,0,0-1.107-1.154c-.794,0-1.154.508-1.149,1.287h2.133C286.863,273.115,286.863,273.115,286.863,272.982Z" transform="translate(-250.248 -268.583)" fill="#4f2a14"/>
      <path id="パス_12" data-name="パス 12" d="M308.312,271.135c.175.143.233.227.233.333s-.048.185-.275.482c-.212.275-.286.36-.418.36s-.207-.074-.413-.175a1.942,1.942,0,0,0-.874-.217c-.518,0-.762.191-.762.476,0,.228.17.36.635.471.238.058.556.122.715.159,1.1.264,1.614.783,1.614,1.688,0,1.128-.989,1.8-2.2,1.8a3.289,3.289,0,0,1-2.048-.614c-.159-.116-.27-.217-.27-.349,0-.1.032-.164.259-.461s.307-.381.439-.381a.87.87,0,0,1,.371.18,2.289,2.289,0,0,0,1.265.36c.54,0,.789-.222.789-.513,0-.222-.164-.382-.609-.487-.292-.069-.471-.106-.8-.185a1.715,1.715,0,0,1-1.525-1.646c0-1.128.974-1.783,2.207-1.783A2.778,2.778,0,0,1,308.312,271.135Z" transform="translate(-264.663 -268.583)" fill="#4f2a14"/>
      <path id="パス_13" data-name="パス 13" d="M325.571,265.659c-.757,0-.757,0-.757-.778,0-.762,0-.762.757-.762s.762,0,.762.762C326.333,265.659,326.333,265.659,325.571,265.659Zm.731,1.35v4.245c0,.694,0,.694-.731.694-.715,0-.715,0-.715-.694v-4.245c0-.741,0-.741.715-.741C326.3,266.267,326.3,266.267,326.3,267.008Z" transform="translate(-278.761 -264.118)" fill="#4f2a14"/>
      <path id="パス_14" data-name="パス 14" d="M338.7,278.6a3.8,3.8,0,0,1-1.747-.424c-.376-.19-.513-.286-.513-.45,0-.116.058-.228.222-.5.249-.386.3-.455.455-.455a2.05,2.05,0,0,1,.572.249,2.088,2.088,0,0,0,1.011.249,1.01,1.01,0,0,0,1.106-1.127v-.127a2.912,2.912,0,0,1-1.286.286,2.1,2.1,0,0,1-2.266-2.075,8.657,8.657,0,0,1,0-1.382,2.331,2.331,0,0,1,2.531-2.212,4.194,4.194,0,0,1,2.2.624.544.544,0,0,1,.259.524v4.24A2.41,2.41,0,0,1,338.7,278.6Zm-1.017-5.521c-.016.217-.01.677,0,.9a.989.989,0,0,0,1.069,1.064,1.935,1.935,0,0,0,1.048-.307v-2.44a2.007,2.007,0,0,0-1.016-.281A1.027,1.027,0,0,0,337.68,273.077Z" transform="translate(-286.581 -268.583)" fill="#4f2a14"/>
      <path id="パス_15" data-name="パス 15" d="M363.714,276.412c-.72,0-.72,0-.72-.694V273.03a.913.913,0,0,0-1-.979,2.055,2.055,0,0,0-1.016.26v3.409c0,.694,0,.694-.72.694s-.726,0-.726-.694v-3.991a.551.551,0,0,1,.254-.519,4.126,4.126,0,0,1,2.244-.577,2.122,2.122,0,0,1,2.409,2.329v2.758C364.439,276.412,364.439,276.412,363.714,276.412Z" transform="translate(-302.559 -268.583)" fill="#4f2a14"/>
    </g>
    <g id="グループ_24" data-name="グループ 24" transform="translate(-230.391 -234.171)">
      <g id="グループ_1" data-name="グループ 1" transform="translate(318.066 256.187)">
        <path id="パス_1" data-name="パス 1" d="M622.917,277.593a.441.441,0,0,1-.248-.807l9.453-6.4a.441.441,0,1,1,.495.731l-9.452,6.4A.442.442,0,0,1,622.917,277.593Z" transform="translate(-622.476 -266.969)" fill="#4f2a14"/>
        <path id="パス_2" data-name="パス 2" d="M664.093,261.624a.441.441,0,0,1-.261-.8l.771-.564a.441.441,0,0,1,.521.713l-.771.564A.438.438,0,0,1,664.093,261.624Z" transform="translate(-650.701 -260.023)" fill="#4f2a14"/>
        <path id="パス_3" data-name="パス 3" d="M632.37,272.225a.441.441,0,0,1-.247-.076l-9.453-6.4a.441.441,0,0,1,.5-.731l9.452,6.4a.441.441,0,0,1-.247.807Z" transform="translate(-622.476 -263.289)" fill="#4f2a14"/>
        <path id="パス_4" data-name="パス 4" d="M654.571,264.424a2.37,2.37,0,1,1,2.37-2.37A2.373,2.373,0,0,1,654.571,264.424Zm0-3.858a1.488,1.488,0,1,0,1.487,1.487A1.489,1.489,0,0,0,654.571,260.567Z" transform="translate(-642.852 -259.684)" fill="#4f2a14"/>
        <path id="パス_5" data-name="パス 5" d="M654.571,287.534a2.37,2.37,0,1,1,2.37-2.37A2.373,2.373,0,0,1,654.571,287.534Zm0-3.857a1.487,1.487,0,1,0,1.487,1.487A1.489,1.489,0,0,0,654.571,283.677Z" transform="translate(-642.852 -275.525)" fill="#4f2a14"/>
      </g>
    </g>
  </g>
</svg>
